<?xml version="1.0" standalone="no"?>
<!DOCTYPE svg PUBLIC "-//W3C//DTD SVG 1.1//EN" "http://www.w3.org/Graphics/SVG/1.1/DTD/svg11.dtd" >
<svg xmlns="http://www.w3.org/2000/svg">
<metadata>Generated by IcoMoon</metadata>
<defs>
<font id="kordit-fonts" horiz-adv-x="1024">
<font-face units-per-em="1024" ascent="960" descent="-64" />
<missing-glyph horiz-adv-x="1024" />
<glyph unicode="&#x20;" horiz-adv-x="512" d="" />
<glyph unicode="&#xe900;" glyph-name="403-error" d="M731.692 735.306c0-124.094-88.636-242.628-197.996-242.628-109.354 0-198 118.534-198 242.628s88.642 224.694 198 224.694c109.352 0 197.996-100.598 197.996-224.694zM522.628 190.41c-23.058 0-41.772-18.65-41.772-41.626 0-18.312 11.92-33.852 28.406-39.402v-22.2c0-7.326 6.016-13.32 13.368-13.32 7.354 0 13.372 5.994 13.372 13.32v22.2c16.596 5.55 28.406 21.090 28.406 39.402-0.004 22.978-18.722 41.626-41.78 41.626zM536 328.604h-26.736c-22.168 0-40.104-17.872-40.104-39.958v-48.288h106.942v48.288c0 22.086-17.938 39.958-40.102 39.958zM673.694 513.604c-162.27-120.566-280 5.978-280 5.978s-293.77-26.904-285-315.866c4.132-123.27 22.324-181.78 49.386-217.666 31.712-42.050 72.614-50.050 72.614-50.050s500.306 0 572 0c25.24 5.624 50.182 18.33 70.522 41.716 35.036 40.284 46.792 120.040 48.478 272.276 2.212 199.84-248 263.612-248 263.612zM662.092 43.842c0-10.99-9.022-19.982-20.046-19.982h-237.888c-11.028 0-20.050 8.992-20.050 19.982v176.538c0 10.99 9.022 19.976 20.050 19.976h21.722v58.276c0 41.4 33.644 74.924 75.194 74.924h43.442c41.552 0 75.198-33.52 75.192-74.924v-58.276h22.286c11.028 0 20.052-8.988 20.102-19.98l-0.004-176.534z" />
<glyph unicode="&#xe901;" glyph-name="404-error" d="M726.77 734.5c0-124.54-88.644-243.5-198-243.5-109.352 0-198 118.96-198 243.5s88.646 225.5 198 225.5c109.354 0 198-100.96 198-225.5zM384.77 518l-94-159-120.328-233.698c0 0-17.672-46.302 3.328-86.302s46-45 69-45 286 0 286 0h220c0 0 49.464-2.886 77 20 25.208 20.95 37 35 39 87 1.672 43.454-11 85-60 108-49.222 23.106-34 16-34 16l-132 266 32 25c0 0 248.212-68 246-268.558-1.582-143.394-15.988-220.564-43.038-262.486-19.064-29.542-44.406-41.58-75.962-46.956-70.642-12.032-572-2-572-2s-39.118-7.548-73.146 44.402c-23.892 36.474-45.276 102.272-48.854 220.598-8.77 290 281 317 281 317zM485.77 456l71-8 123-247c0 0 124-8 134-81s-69-86-116-85l-212 421z" />
<glyph unicode="&#xe902;" glyph-name="add-column" d="M743.876-63.876h280v692h-280v-692zM781.376 595.124h205v-297.998h-205v297.998zM781.376-26.376v290.5h205v-290.5h-205zM371.876 595.124h280v-307.334h-280v307.334zM371.876 959.876h280v-331.752h-280v331.752zM-0.124-63.876h280v692h-280v-692zM37.376 595.124h205v-297.998h-205v297.998zM37.376-26.376v290.5h205v-290.5h-205z" />
<glyph unicode="&#xe903;" glyph-name="add-multiple" d="M841.556 821.024h-829.806c-6.5 0-11.75-4.344-11.75-9.78v-865.462c0-5.416 5.22-9.782 11.75-9.782h829.806c6.55 0 11.778 4.366 11.778 9.782v865.462c0 5.39-5.226 9.78-11.778 9.78zM648.016 324.054c0-5.302-4.278-9.624-9.522-9.624h-161.878v-163.562c0-5.304-4.278-9.626-9.524-9.626h-76.176c-5.254 0-9.524 4.322-9.524 9.626v163.562h-161.876c-5.256 0-9.524 4.322-9.524 9.624v76.968c0 5.31 4.268 9.624 9.524 9.624h161.876v163.566c0 5.308 4.27 9.622 9.524 9.622h76.176c5.248 0 9.524-4.314 9.524-9.622v-163.566h161.878c5.244 0 9.522-4.312 9.522-9.622v-76.97zM170.664 960.764v-93.16h739.554v-791.864h113.782v885.024z" />
<glyph unicode="&#xe904;" glyph-name="add-row" d="M0 216v-280h692v280h-692zM659 178.5v-205h-297.998v205h297.998zM37.5 178.5h290.5v-205h-290.5v205zM351.666 588h307.334v-280h-307.334v280zM692.002 588h331.752v-280h-331.752v280zM0 960v-280h692v280h-692zM659 922.5v-205h-297.998v205h297.998zM37.5 922.5h290.5v-205h-290.5v205z" />
<glyph unicode="&#xe905;" glyph-name="add-tab" d="M989.748 960h-953.496c-19.95 0-36.122-16.17-36.122-36.122v-951.754c0-19.952 16.172-36.124 36.122-36.124h953.496c19.948 0 36.124 16.176 36.124 36.124v951.754c0 19.952-16.176 36.122-36.124 36.122zM953.624 735.696h-250.132v152.062h250.132v-152.062zM631.25 887.758v-152.062h-242.128v152.062h242.128zM72.374 8.252v879.506h246.128v-188.182c0-19.95 16.172-36.122 36.124-36.122h598.998v-655.208l-881.25 0.006zM757.826 274.128h-189.956v-189.956c0-6.154-5.020-11.174-11.178-11.174h-89.39c-6.164 0-11.172 5.020-11.172 11.174v189.956h-189.956c-6.166 0-11.174 5.020-11.174 11.178v89.388c0 6.166 5.008 11.174 11.174 11.174h189.956v189.958c0 6.166 5.008 11.172 11.172 11.172h89.39c6.158 0 11.178-5.008 11.178-11.172v-189.956h189.956c6.154 0 11.174-5.008 11.174-11.176v-89.388c0-6.158-5.020-11.178-11.174-11.178z" />
<glyph unicode="&#xe906;" glyph-name="add" d="M1001.74 336.696h-378.436v-378.434c0-12.262-10-22.262-22.266-22.262h-178.084c-12.282 0-22.26 10-22.26 22.262v378.434h-378.432c-12.284 0-22.262 10-22.262 22.266v178.084c0 12.282 9.978 22.26 22.262 22.26h378.434v378.434c0 12.284 9.98 22.26 22.26 22.26h178.084c12.266 0 22.266-9.978 22.266-22.26v-378.434h378.434c12.26 0 22.26-9.978 22.26-22.26v-178.084c0-12.266-10-22.266-22.26-22.266z" />
<glyph unicode="&#xe907;" glyph-name="administration" d="M422.711 555.633c0-91.558-80.528-165.758-179.801-165.758-99.263 0-179.802 74.2-179.802 165.758 0 91.618 80.539 165.869 179.802 165.869 99.272 0 179.801-74.251 179.801-165.869zM827.676 417.748c0 0-23.676-43.824-121.953-40.912-98.318 2.914-108.613 40.912-108.613 40.912-94.924 0-198.797-119.381-198.797-267.471v-70.686c0-69.359 624.232-69.359 624.232 0v70.686c0 148.090-99.945 267.471-194.869 267.471zM853.070 226.889l-49.713-48.467c-8.105-7.895-13.168-23.484-11.26-34.635l11.742-68.424c1.908-11.15-4.721-15.973-14.736-10.709l-61.453 32.314c-10.014 5.264-26.398 5.264-36.412 0l-61.453-32.314c-10.016-5.264-16.645-0.441-14.736 10.709l11.732 68.424c1.918 11.15-3.154 26.74-11.25 34.635l-49.723 48.467c-8.096 7.895-5.564 15.689 5.625 17.316l68.717 9.984c11.199 1.627 24.459 11.26 29.461 21.406l30.727 62.256c5.002 10.146 13.199 10.146 18.213 0l30.715-62.256c5.014-10.146 18.273-19.779 29.463-21.406l68.715-9.984c11.201-1.627 13.732-9.422 5.627-17.316zM943.090 652.887c0-118.971-104.646-215.391-233.641-215.391-128.984 0-233.651 96.42-233.651 215.391 0 119.056 104.667 215.54 233.651 215.54 128.994 0 233.641-96.484 233.641-215.54zM367.225 150.277c0 68.475 22.229 130.781 55.486 178.012-26.578 29.010-59.063 46.398-90.834 46.398 0 0-18.222-33.742-93.849-31.49-75.657 2.238-83.583 31.49-83.583 31.49-73.055 0-152.991-91.881-152.991-205.848v-54.402c0-36.412 223.677-47.975 365.771-34.686v70.525zM304.505 163.848l9.030-52.656c1.466-8.588-3.627-12.293-11.341-8.246l-47.291 24.871c-7.704 4.049-20.32 4.049-28.024 0l-47.291-24.871c-7.704-4.047-12.807-0.342-11.341 8.246l9.030 52.656c1.477 8.578-2.421 20.582-8.658 26.658l-38.261 37.297c-6.237 6.076-4.289 12.072 4.329 13.328l52.876 7.674c8.618 1.256 18.824 8.67 22.681 16.475l23.636 47.914c3.857 7.814 10.165 7.814 14.022 0l23.635-47.914c3.857-7.805 14.063-15.219 22.672-16.475l52.886-7.674c8.618-1.256 10.566-7.252 4.329-13.328l-38.261-37.297c-6.237-6.076-10.125-18.080-8.658-26.658z" />
<glyph unicode="&#xe908;" glyph-name="align-center" d="M595.086 960v-1024h-170.668v1024h170.668zM112.75 475.5v384h794v-384h-794zM162.75 809.5v-284h694v284h-694zM302.752 370.5h414v-334h-414v334z" />
<glyph unicode="&#xe909;" glyph-name="align-left" d="M-1-65v1024h170.668v-1024h-170.668zM1023 860.75v-384h-710v384h710zM978.29 526.75v284h-620.58v-284h620.58zM313.894 371.75h370.202v-334h-370.202v334z" />
<glyph unicode="&#xe90a;" glyph-name="align-right" d="M1022.75 959v-1024h-170.668v1024h170.668zM4.25 474.5v384h707.328v-384h-707.328zM48.792 808.5v-284h618.244v284h-618.244zM345.442 369.5h368.808v-334h-368.808v334z" />
<glyph unicode="&#xe90b;" glyph-name="alphabet" d="M131.37 675.994h87.642l131.15-454.524h-83.996l-24.46 93.43h-136.51l-25.128-93.43h-81.024l132.326 454.524zM126.264 393.224h94.938l-46.828 178.852-48.11-178.852zM650.726 627.578c10.954-19.324 16.434-42.45 16.434-69.382 0-27.75-5.53-50.060-16.582-66.914-6.178-9.458-15.28-18.092-27.306-25.904 18.272-8.43 32.058-21.79 41.362-40.086 9.292-18.298 13.946-40.5 13.946-66.608 0-26.932-5.312-51.090-15.942-72.468-6.764-14.182-15.214-26.108-25.356-35.768-11.432-11.1-24.918-18.71-40.456-22.82-15.538-4.116-32.396-6.166-50.588-6.166h-161.32v454.532h173.020c43.658-0.824 74.588-16.96 92.788-48.416zM456.33 597.054v-100.216h87.016c15.544 0 28.166 3.748 37.862 11.254 9.698 7.5 14.542 20.812 14.542 39.934 0 21.168-6.41 35.15-19.23 41.936-11.058 4.726-25.16 7.090-42.308 7.090l-77.882 0.002zM456.33 421.594v-121.184h86.92c15.524 0 27.614 2.668 36.256 8.016 15.686 9.862 23.534 28.778 23.534 56.74 0 23.634-7.61 39.878-22.808 48.718-8.486 4.932-20.414 7.504-35.782 7.708h-88.12zM757.242 621.372c28.836 36.772 65.522 55.16 110.056 55.16 59.594 0 103.164-24.654 130.72-73.954 15.218-27.686 23.384-55.464 24.508-83.344h-74.808c-4.762 21.412-10.872 37.582-18.322 48.492-13.326 19.396-33.076 29.094-59.25 29.094-26.65 0-47.672-13.69-63.058-41.066-15.386-27.38-23.076-66.124-23.076-116.232 0-50.112 8.118-87.638 24.354-112.594 16.234-24.958 36.868-37.426 61.888-37.426 25.66 0 45.226 10.708 58.692 32.126 7.446 11.516 13.622 28.792 18.534 51.822h74.32c-6.408-48.698-22.792-88.298-49.138-118.804-26.354-30.514-60.114-45.766-101.284-45.766-50.944 0-90.992 20.612-120.148 61.828-29.154 41.422-43.73 98.198-43.73 170.33 0 77.994 16.582 138.1 49.742 180.334z" />
<glyph unicode="&#xe90c;" glyph-name="alphanumeric" d="M136.048 677.14h89.308l133.644-455.364h-85.592l-24.924 93.602h-139.108l-25.608-93.602h-82.562l134.842 455.364zM130.846 393.848h96.742l-47.716 179.184-49.026-179.184zM404.282 309.524c11.574 30.222 38.896 62.222 81.974 95.996 37.38 29.386 61.574 50.44 72.582 63.162 16.886 19.8 25.33 41.48 25.33 65.040 0 19.174-4.836 35.124-14.514 47.84-9.68 12.714-23.536 19.076-41.56 19.076-24.668 0-41.462-10.112-50.38-30.33-5.124-11.676-8.162-30.23-9.11-55.658h-78.844c1.328 38.562 7.69 69.728 19.086 93.494 21.656 45.232 60.122 67.852 115.4 67.852 43.684 0 78.448-13.29 104.284-39.868 25.826-26.58 38.75-61.756 38.75-105.532 0-33.564-9.124-63.374-27.38-89.428-11.974-17.304-31.648-36.586-59.026-57.848l-32.51-25.328c-20.344-15.844-34.264-27.308-41.756-34.398-7.5-7.082-13.808-15.316-18.932-24.696h180.172v-78.484h-282.64c0.758 32.512 7.116 62.214 19.074 89.11zM805.906 367.89c0-17.66 2.836-32.27 8.508-43.84 10.526-21.312 29.658-31.964 57.402-31.964 17.008 0 31.84 5.828 44.492 17.504 12.656 11.672 18.986 28.468 18.986 50.386 0 29.020-11.736 48.402-35.208 58.148-13.356 5.484-34.392 8.218-63.126 8.218v62.108c28.118 0.404 47.73 3.144 58.862 8.218 19.21 8.524 28.822 25.772 28.822 51.758 0 16.842-4.912 30.544-14.732 41.1-9.816 10.552-23.638 15.832-41.446 15.832-20.446 0-35.478-6.5-45.088-19.486-9.622-12.99-14.222-30.344-13.814-52.058h-80.982c0.806 21.918 4.562 42.722 11.248 62.412 7.096 17.25 18.248 33.184 33.456 47.798 11.354 10.352 24.836 18.266 40.442 23.748 15.616 5.48 34.776 8.22 57.482 8.22 42.174 0 76.188-10.914 102.036-32.728 25.846-21.818 38.776-51.098 38.776-87.832 0-25.984-7.714-47.906-23.138-65.76-9.736-11.164-19.892-18.774-30.446-22.832 7.914 0 19.284-6.802 34.098-20.4 22.122-20.504 33.186-48.512 33.186-84.028 0-37.348-12.93-70.168-38.782-98.488-25.856-28.312-64.124-42.468-114.814-42.468-62.448 0-105.838 20.398-130.17 61.192-12.776 21.714-19.876 50.128-21.292 85.246l85.246-0.004z" />
<glyph unicode="&#xe90d;" glyph-name="approve" d="M874.158 960h-724c-82.842 0-150-67.158-150-150v-724c0-82.842 67.158-150 150-150h724c82.842 0 150 67.158 150 150v724c0 82.842-67.158 150-150 150zM413.234 95.002l-271.21 272.814 126.476 180.466 126.734-130.616 261.778 371.334h233.284l-477.062-693.998z" />
<glyph unicode="&#xe90e;" glyph-name="arrow-down" d="M666.102 300.834v661.605h-308.22v-661.605h-195.293l349.78-364.834 348.018 364.834z" />
<glyph unicode="&#xe90f;" glyph-name="arrow-first" d="M0 27.896c143-102.043 347-135.098 511.998 7.998 165.002 143.096 154.119 344.717 154.119 344.717v217.139h195.293l-349.779 362.25-348.018-362.25h194.284v-224.193h0.004l0.098-72.172c0-298.561-357.999-273.488-357.999-273.488z" />
<glyph unicode="&#xe910;" glyph-name="arrow-last" d="M1024 871.103c-143 102.044-347 135.098-512-7.997s-154.118-344.717-154.118-344.717v-217.139h-195.293l349.78-362.25 348.018 362.25h-194.285v224.193h-0.004l-0.098 72.172c0 298.561 358 273.487 358 273.487z" />
<glyph unicode="&#xe911;" glyph-name="arrow-up" d="M356.874 596.035v-660.035h308.22v660.035h195.293l-349.78 363.965-348.018-363.965z" />
<glyph unicode="&#xe912;" glyph-name="assessment" d="M919.112 230.454c3.086 3.082 4.628 7.708 4.628 10.792v639.686c0 43.156-33.912 77.068-75.532 77.068h-676.678c-41.618 0-75.53-35.456-75.53-77.068v-863.194c0-43.16 33.912-77.072 75.53-77.072h479.38c3.082 0 7.706 1.542 10.788 4.624l257.414 285.164zM666.324 205.828h148.090l-148.090-169.672v169.672zM874.452 860.932v-604.276h-243.546c-9.248 0-15.414-6.164-15.414-15.412v-249.75h-423.962c-24.662 0-44.7 21.58-44.7 46.244v823.194c0 26.204 20.036 46.236 44.7 46.236h638.222c24.662 0 44.7-21.576 44.7-46.236v0zM572.42 341.024c-13.584-6.998-34.362 4.336-62.342 34.006-10.684 11.306-27.454 32.088-50.316 62.334-13.992-9.824-31.798-23.66-53.416-41.522l-52.624-42.514c2.58-23.14 4.516-57.908 5.818-104.304-0.468-10.7-4.76-18.14-12.876-22.32-5.906-3.042-12.284-3.622-19.138-1.732-6.856 1.884-11.916 6-15.186 12.35-3.65 7.088-6.38 39.76-8.192 98.038-4.488 2.542-8.022 6.328-10.606 11.348-6.16 11.956-2.88 23.356 9.836 34.204 0.56 40.256 3.112 87.516 7.66 141.782 6.17 73.962 13.532 113.152 22.096 117.562 11.658 6.004 23.812 1.992 36.458-12.038l52.268-67.212 112.252-136.892 30.64-28.482c10.438-9.756 16.684-16.624 18.738-20.61 3.27-6.348 3.716-12.842 1.346-19.474-2.376-6.646-6.514-11.484-12.416-14.524zM363.906 553.846l-10.752-134.692c15.504 13.774 39.744 33.26 72.708 58.462l-61.956 76.23zM752.734 622.444c2.812-5.464 3.456-11.156 1.93-17.078-1.526-5.924-5.020-10.29-10.478-13.102-1.772-0.914-4.58-1.988-8.428-3.22-3.848-1.236-6.732-2.346-8.648-3.334l-21.914-11.846c-8.854-4.936-16.232-8.736-22.142-11.406l26.8-52.032c6.844-13.284 3.694-23.312-9.444-30.078-6.496-3.346-12.258-4.212-17.29-2.602-5.032 1.612-9.26 5.738-12.682 12.38l-26.786 50.918c-17.33-10.234-29.686-17.25-37.064-21.050-22.882-11.788-37.816-10.89-44.812 2.694-4.942 9.594-3.962 17.662 2.942 24.208 2.422 2.178 9.614 6.352 21.57 12.51 7.378 3.8 19.734 10.816 37.064 21.050l-13.564 25.792c-6.918 13.43-11.042 23.072-12.376 28.926-1.264 6.072-1.026 11.236 0.706 15.492 1.732 4.254 5.032 7.634 9.904 10.144 5.608 2.888 11.3 3.53 17.076 1.93 5.774-1.606 10.106-5.208 12.994-10.818 1.294-2.51 3.088-6.63 5.384-12.354 2.294-5.73 4.168-9.996 5.612-12.798l13.222-25.126 16.948 7.888c2.952 1.52 7.358 4.022 13.222 7.51 5.862 3.482 10.268 5.988 13.22 7.51 24.21 12.47 39.89 11.764 47.034-2.108z" />
<glyph unicode="&#xe913;" glyph-name="assign" d="M872.478 724.49c-17.094 81.67-69.33 157.212-147.802 200.614-103.2 57.078-221.436 41.844-298.482-28.978l27.144-15.014c72.946 38.094 164.914 38.618 247.298-6.948 62.608-34.624 108.512-89.712 133.204-152.042l-159.892-9.796 193.194-197.28 157.61 218.772-152.274-9.328zM376.104 365.528c0 125.098 64.64 233.048 158.082 283.22-35.84 40.74-85.386 65.946-140.124 65.946-109.358 0-198-100.6-198-224.694 0-124.092 88.646-242.628 198-242.628 0.378 0 0.752 0.016 1.13 0.020-12.318 37.608-19.088 77.658-19.088 118.136zM850.058 361.998c0-124.092-88.634-242.626-197.996-242.626-109.354 0-198 118.536-198 242.626 0 124.096 88.642 224.696 198 224.696 109.354 0 197.996-100.598 197.996-224.696zM1017.488-64c-66.062 111.584-217.9 150.296-217.9 150.296-162.27-120.564-279.998 5.978-279.998 5.978s-175.004-16.066-250.824-156.274h748.722zM166.202-64c58.512 156.41 218.628 200.476 278.742 211.704-3.972 5.646-7.818 11.42-11.494 17.344-103.86-17.824-171.86 55.228-171.86 55.228s-248.856-24.956-261.59-284.276h166.202z" />
<glyph unicode="&#xe914;" glyph-name="attendance" d="M1003.718 893.736h-127.992v51.196c0 9.434-8.184 17.068-18.308 17.068h-128.004c-10.106 0-18.278-7.632-18.278-17.068v-51.196h-402.278v51.196c0 9.434-8.176 17.068-18.288 17.068h-128c-10.112 0-18.278-7.632-18.278-17.068v-51.196h-128c-10.124 0-18.292-7.632-18.292-17.068v-921.602c0-9.442 8.168-17.066 18.292-17.066h987.426c10.114 0 18.282 7.624 18.282 17.068v921.6c0 9.436-8.168 17.068-18.282 17.068zM751.718 921.866h83.418v-30.4h-83.418v30.4zM184.858 921.866h83.434v-30.4h-83.434v30.4zM961.414 813.864v-172.864h-902.846v172.864h902.846zM64.568-1.868h-6v582.868h902.846v-582.866l-896.846-0.002zM632.898 508.5l-186.598-288.056-93.2 116.304-62.126-69.846 155.326-197.57 282.728 439.168z" />
<glyph unicode="&#xe915;" glyph-name="audio" d="M901.582 282.35v509.040c0 30.158-24.442 54.606-54.606 54.606h-449.006c-30.158 0-54.606-24.448-54.606-54.606v-450.546c-23.084 6.954-48.37 9.33-74.39 6.044-90.658-11.438-155.792-86.928-145.484-168.612 10.308-81.68 92.152-138.62 182.81-127.178 87.404 11.030 146.278 81.132 146.278 159.844v525.84h339.794v-320.634c-23.136 6.988-48.468 9.386-74.558 6.092-90.656-11.438-155.79-86.926-145.48-168.61 10.308-81.68 92.148-138.62 182.808-127.182 85.932 10.848 146.44 78.958 146.44 155.902z" />
<glyph unicode="&#xe916;" glyph-name="axis" d="M249.274 792.698l-113.292 162.522c-5.44 6.374-14.338 6.374-19.78 0l-113.288-162.518c-5.438-6.374-3.038-11.586 5.34-11.586h47.394c8.376 0 15.23-6.854 15.23-15.234l0.076-49.76v-692.64l-0.020-0.282c0.002-8.38 7.072-15.2 15.446-15.2h79.964c8.378 0 15.232 6.856 15.232 15.23l-0.268 742.652c0 8.378 6.852 15.232 15.23 15.232h47.39c8.376 0 10.78 5.214 5.346 11.584zM854.698-61.090l162.524 113.292c6.376 5.438 6.376 14.336 0 19.778l-162.52 113.29c-6.376 5.438-11.586 3.040-11.586-5.34v-47.394c0-8.376-6.856-15.23-15.234-15.23l-49.758-0.076-692.926 0.022c-8.38-0.004-15.2-7.072-15.2-15.446v-79.964c0-8.378 6.856-15.234 15.23-15.234l742.654 0.27c8.376 0 15.23-6.852 15.23-15.23v-47.39c0.004-8.38 5.214-10.786 11.586-5.348z" />
<glyph unicode="&#xe917;" glyph-name="back" d="M906.85 856.436l-182.57 103.594-607.13-511.576 607.13-511.578 182.57 103.596-484.244 407.982z" />
<glyph unicode="&#xe918;" glyph-name="behaviour-o" d="M263.666 163.332h461.334v-30h-461.334v30zM263.666 93.5h461.334v-30h-461.334v30zM937.132 753v119.334c0 13.254-12.122 24-27.076 24h-82.316v39.666c0 13.256-10.746 24-24 24h-779.74c-13.254 0-24-10.744-24-24v-971.336c0-13.254 10.746-24 24-24h779.74c13.254 0 24 10.746 24 24v308.334h82.316c14.956 0 27.076 10.746 27.076 24.002v129.332c0 6.318-2.776 12.048-7.278 16.334 4.502 4.288 7.278 10.016 7.278 16.334v119.334c0 3.836-1.042 7.45-2.848 10.666 1.806 3.216 2.848 6.83 2.848 10.666v119.334c0 6.644-3.046 12.654-7.966 17 4.92 4.346 7.966 10.356 7.966 17zM140-4h-70.914c-11.72 0-21.224 9.628-21.224 21.508v870.378c0 11.876 9.504 21.504 21.224 21.504h70.914v-913.39zM779.878 17.508c0-11.878-9.504-21.508-21.224-21.508h-570.988v913.392h570.988c11.72 0 21.224-9.628 21.224-21.504v-870.38zM893 308h-65.26v116h65.26v-116zM893 466h-65.26v106h65.26v-106zM893 612h-65.26v106h65.26v-106zM893 760h-65.26v96h65.26v-96zM658.954 225.846h-357.204c-14.112 0-27.376 5.494-37.354 15.468-9.978 9.982-15.47 23.246-15.47 37.354v85.772c0 71.158 32.128 137.328 88.146 181.538 10.328 8.146 22.75 12.45 35.93 12.45 6.428 0 12.832-1.042 19.034-3.090 10.246-3.39 19.538-9.418 26.916-17.458 0.218-0.226 0.432-0.456 0.644-0.692 8.012-8.81 18.022-15.746 29.75-20.608l6.73-2.792c7.838-2.46 15.976-3.704 24.274-3.704 23.436 0 45.094 9.712 60.992 27.348 12.026 13.34 28.918 20.988 46.354 20.988 13.182 0 25.604-4.302 35.922-12.444 56.018-44.206 88.15-110.372 88.16-181.538v-85.778c-0.002-29.12-23.698-52.814-52.824-52.814zM383.262 490.958c-7.010 5.688-13.526 11.984-19.518 18.866-0.040 0.044-0.080 0.090-0.122 0.134-43.020-36.96-67.626-91.278-67.626-149.588v-87.15h368.708v87.146c-0.008 58.308-24.61 112.624-67.628 149.584-29.998-34.552-72.49-54.35-116.728-54.35-20.8 0-41.078 4.246-60.266 12.62zM480.348 560.408c-80.31 0-145.648 65.338-145.648 145.648s65.338 145.648 145.648 145.648l0.694-0.002c79.994-0.396 144.954-65.612 144.954-145.646 0-77.898-60.914-141.796-138.676-145.476-0.392-0.020-0.9-0.034-1.414-0.044-1.93-0.072-3.736-0.128-5.558-0.128zM479.796 801.458c-52.356-0.294-94.852-42.98-94.852-95.404 0-52.606 42.798-95.406 95.404-95.406 1.302 0 2.596 0.058 3.886 0.106 0.252 0.012 0.632 0.022 1.034 0.026 50.842 2.64 90.484 44.398 90.484 95.272 0 52.548-42.756 95.348-95.306 95.402l-0.65 0.004z" />
<glyph unicode="&#xe919;" glyph-name="bg-color" d="M810.666 471.334c0 0-85.334-92.374-85.334-149.334 0-47.144 38.186-85.334 85.334-85.334s85.334 38.19 85.334 85.334c0 56.96-85.334 149.334-85.334 149.334zM325.12 962l-60.374-60.374 101.546-101.546-219.518-219.52c-24.96-24.96-24.96-65.494 0-90.454l234.666-234.666c12.374-12.584 28.8-18.774 45.226-18.774s32.854 6.186 45.226 18.774l234.668 234.666c24.958 24.96 24.958 65.494 0 90.454l-381.44 381.44zM222.080 535.334l204.586 204.374 204.586-204.374h-409.172zM0 106.666h1024v-170.666h-1024v170.666z" />
<glyph unicode="&#xe91a;" glyph-name="border-color" d="M757.334 661.334l-160 160-426.668-426.666v-160h160l426.668 426.666zM883.416 787.416c16.624 16.636 16.624 43.73 0 60.376l-99.624 99.624c-16.644 16.636-43.75 16.636-60.376 0l-83.416-83.416 160-160 83.416 83.416zM0 106.668h1024v-170.668h-1024v170.668z" />
<glyph unicode="&#xe91b;" glyph-name="border-radius" d="M888.266 810.24v-189.74h134.61v317.998c0 13.254-10.75 24.002-24 24.002h-316.876v-132.598h186.608c10.856 0 19.658-8.804 19.658-19.662zM888.268 280.5v-189.746c0-10.856-8.8-19.656-19.658-19.656h-186.61v-132.598h316.876c13.246 0 24 10.746 24 23.998v318.002h-134.608zM129.468 620.5v189.74c0 10.858 8.8 19.662 19.658 19.662h192.874v132.598h-319.124c-13.252 0-24-10.748-24-24.002v-317.998h130.592zM129.468 90.754v189.746h-130.592v-318.002c0-13.252 10.746-23.998 24-23.998h319.124v132.598h-192.874c-10.858 0-19.658 8.8-19.658 19.656z" />
<glyph unicode="&#xe91c;" glyph-name="border-width" d="M0 290h1023.996v-120h-1023.996v120zM0 16h1026v-80h-1026v80zM0 960h1023.996v-200h-1023.996v200zM0 604h1023.996v-160h-1023.996v160z" />
<glyph unicode="&#xe91d;" glyph-name="bubble" d="M432.52 953.294c-199.274-33.022-357.924-196.38-386.326-396.366-25.596-180.282 51.14-343.946 180.098-443.020-36.184-66.148-76.866-116.208-105.392-147.238-11.2-12.178-0.226-31.602 15.994-28.324 57.232 11.564 151.646 38.56 234.89 99.32 62.626-19.666 130.834-26.716 201.732-17.868 204.73 25.554 373.254 187.11 405.596 390.876 51.14 322.172-224.074 596.066-546.592 542.62zM513.286 101.84c-213.278 0-386.17 172.894-386.17 386.174 0 213.276 172.894 386.17 386.17 386.17s386.168-172.894 386.168-386.17c0-213.28-172.896-386.174-386.168-386.174z" />
<glyph unicode="&#xe91e;" glyph-name="check" d="M796.876 960l-435.092-671.656-217.314 271.186-144.856-162.858 362.17-460.672 659.232 1024z" />
<glyph unicode="&#xe91f;" glyph-name="class" d="M988.732 924.292h-316.396v-1.044c0 31.354-23.552 36.752-52.65 36.752h-215.476c-29.124 0-52.7-5.398-52.7-36.754v1.044h-316.44c-19.508 0.002-35.142-17.362-35.142-38.37v-724.69c0-21.030 15.634-38.93 35.142-38.93h230.476l-64.298-189.3h72.724l64.298 189.3h149.572v-113.61h68.15v113.61h129.57l64.294-189.3h72.744l-64.296 189.3h230.556c19.462 0 35.14 17.9 35.14 38.93v724.654c-0.060 21.044-15.744 38.408-35.268 38.408zM969.592 177.992h-915.366v684.554h915.366v-684.554zM547.178 744c30.394 0 45.598-20.734 45.598-44.442 0-29.61-26.398-56.998-60.794-56.998-28.8 0-45.608 17.034-44.808 45.158-0.002 23.704 19.996 56.282 60.004 56.282zM493.566 290c-24.002 0-41.604 14.808-24.8 79.972l27.558 115.574c4.8 18.504 5.584 25.912 0 25.912-7.208 0-38.366-12.786-56.792-25.376l-11.986 19.996c58.398 49.606 85.588 78.696 114.378 78.696 23.992 0 28-28.876 16.004-73.31l-31.548-121.496c-5.604-21.464-3.194-28.868 2.394-28.868 7.2 0 30.81 8.912 54.004 27.426l13.608-18.52c-56.806-57.758-78.814-80.006-102.82-80.006z" />
<glyph unicode="&#xe920;" glyph-name="clear" d="M822.722 632.718c-14.352 14.35-37.454 14.35-51.806 0l-132.914-132.918-132.918 132.918c-14.35 14.35-37.452 14.35-51.802 0-14.35-14.348-14.35-37.452 0-51.8l132.918-132.92-132.918-132.914c-14.35-14.352-14.35-37.454 0-51.804 14.35-14.348 37.452-14.348 51.802 0l132.918 132.918 132.914-132.918c14.354-14.348 37.456-14.348 51.806 0 14.246 14.352 14.246 37.554 0 51.804l-132.92 132.914 132.92 132.92c14.346 14.348 14.346 37.452 0 51.8zM896.524 830.43h-552.402l-339.94-382.43 339.94-382.434h552.402c70.398 0 127.476 57.078 127.476 127.476v509.912c0 70.398-57.078 127.476-127.476 127.476zM939.016 193.042c0-23.434-19.056-42.492-42.492-42.492h-514.234l-264.396 297.45 264.396 297.446h514.234c23.436 0 42.492-19.056 42.492-42.492v-509.912z" />
<glyph unicode="&#xe921;" glyph-name="close-round" d="M997.128 100.458l-347.892 347.892 347.892 347.894c37.56 37.56 37.56 98.028 0 135.586-37.556 37.56-98.028 37.56-135.588 0l-347.892-347.892-347.892 347.892c-37.56 37.56-98.026 37.56-135.586 0s-37.56-98.026 0-135.586l347.892-347.892-347.892-347.894c-37.56-37.56-37.56-98.032 0-135.588 37.56-37.56 98.026-37.56 135.586 0l347.892 347.892 347.892-347.892c37.56-37.56 98.032-37.56 135.588 0 37.296 37.558 37.296 98.294 0 135.588z" />
<glyph unicode="&#xe922;" glyph-name="close" d="M904.876-52.32c-11.914-12.064-29.93-13.5-40.23-3.222l-856.472 854.628c-10.304 10.278-8.994 28.388 2.924 40.45l109.676 110.994c11.916 12.058 29.926 13.502 40.23 3.222l856.474-854.63c10.3-10.28 8.99-28.382-2.92-40.446l-109.682-110.996zM1014.344 838.896c11.916-12.064 13.208-30.174 2.912-40.452l-856.778-854.346c-10.304-10.278-28.314-8.826-40.226 3.234l-109.638 111.026c-11.91 12.066-13.212 30.172-2.908 40.454l856.772 854.348c10.304 10.272 28.314 8.824 40.226-3.234l109.64-111.030z" />
<glyph unicode="&#xe923;" glyph-name="comment" d="M1023.502 857.602c0 56.326-45.6 102.402-101.898 102.402h-819.204c-56.326 0-102.402-46.076-102.402-102.402v-614.4c0-56.298 46.076-102.402 102.402-102.402h716.802l204.798-204.8-0.498 921.602zM819.202 345.6h-614.402v102.4h614.402v-102.4zM819.202 499.202h-614.402v102.398h614.402v-102.398zM819.202 652.802h-614.402v102.398h614.402v-102.398z" />
<glyph unicode="&#xe924;" glyph-name="compile" d="M7.954 678.2l503.374 172.55 503.376-172.55-503.376-165.298zM3.666 523.62l138.546 56.178 368.62-121.176 370.648 119.362 136.52-54.364-507.168-165.296zM3.666 364.51l138.546 56.18 368.62-121.178 370.648 119.362 136.52-54.364-507.168-165.296zM3.666 211.044l138.546 56.178 368.62-121.176 370.648 119.362 136.52-54.364-507.168-165.294z" />
<glyph unicode="&#xe925;" glyph-name="cross" d="M242-64l782 1024h-224.14l-799.86-1024zM244-64l782 1024h-224.14l-799.86-1024zM2.9 960.9l798.058-1025.402 224.142-0.394-780.2 1025.37z" />
<glyph unicode="&#xe926;" glyph-name="customize" d="M939.036 831.072v96.794c0 17.74-13.972 32.134-31.196 32.134h-831.928c-17.212 0-31.198-14.394-31.198-32.134v-96.408h-13.848c-17.238 0-31.2-14.392-31.2-32.134 0-17.74 13.962-32.138 31.2-32.138h13.848v-96.408c0-17.74 13.986-32.136 31.198-32.136h831.928c17.224 0 31.196 14.392 31.196 32.136v95.674c13.59-1.84 24.252-13.37 24.252-27.87v-149.882c0-15.768-12.432-28.602-27.748-28.602h-131.168l-218.942 3.558h-45.008c-49.726 0-90.166-41.646-90.166-92.872v-64.234h-25.998c-17.234 0-31.196-14.39-31.196-32.132v-407.058c0-17.742 13.962-32.134 31.196-32.134h114.39c17.244 0 31.204 14.392 31.204 32.134v407.056c0 17.748-13.958 32.138-31.204 32.138h-26v64.232c0 15.762 12.45 28.598 27.766 28.598l263.45-3.558h131.674c49.72 0 90.136 41.644 90.136 92.872v149.884c0.010 49.964-38.584 90.562-86.638 92.49z" />
<glyph unicode="&#xe927;" glyph-name="dashboard_icon" d="M845.628 662.408c-89.696 76.926-206.1 123.714-333.702 123.714-283.396 0-513.146-229.75-513.146-513.29 0-7.598 0.744-78.552 1.086-86.124v-76.842h1023.266v71.242l0.97 5.6c0.312 7.6 1.116 78.528 1.116 86.124 0.028 251.606-179.59 389.576-179.59 389.576zM123.612 186.708c-0.428 4.686 0.172 72.814-0.142 77.498h105.264v33.994h-97.868c0 0.398-7.398-0.060-7.398-0.060 4.142 88.126 37.706 176.050 101.092 245.378l2.658 2.856 4.742-4.114 70.040-70.098 21.996 22.052-74.412 74.356c67.356 61.586 152.826 96.922 244.004 100.978l5.284 0.028c0 0 2.2 0.088 2.056-1.312v-103.806h28.022v105.092c13.826-0.572 27.652-2.2 41.28-4.342 78.294-10.34 151.078-44.132 210.012-97.98l-74.27-74.326 20.652-20.738 71.326 71.358 3.942 3.17 3.372-4.458c61.67-67.414 96.952-152.824 101.092-244.032h-105.146v-33.994l105.632 0.14c0 0 0.088-73.154-0.288-77.384l-782.942-0.256zM650.070 431.972c0 0-166.936-51.19-198.9-83.098-32.024-32.048-32.024-83.84 0.056-115.888 31.908-32.024 83.752-32.024 115.804 0 31.936 32.050 83.040 198.986 83.040 198.986z" />
<glyph unicode="&#xe928;" glyph-name="data_collection_icon" d="M93.695 914.193h837.348v-46.52h-837.348v46.52zM47.176 821.154h930.387v-46.52h-930.387v46.52zM1017.539 728.115h-1010.342c-3.633 0-6.541-2.725-6.541-5.996v-732.318c0-3.27 2.908-5.996 6.541-5.996h1010.342c3.637 0 6.543 2.727 6.543 5.996v732.318c0 3.272-2.906 5.996-6.543 5.996zM977.563 30.324h-930.387v651.272h930.387v-651.272zM317.023 521.596l195.346-195.346 195.346 195.346 60.283-60.33-255.629-255.586-255.629 255.586 60.283 60.33z" />
<glyph unicode="&#xe929;" glyph-name="data_management_icon" d="M210.563-62.004v0c-28.263 0-55.754 5.535-81.703 16.535-7.123 3.018-12.248 9.369-13.746 16.943-1.475 7.578 0.908 15.379 6.374 20.848l82.111 82.088v65.711h-65.688l-82.111-82.088c-5.455-5.445-13.236-7.895-20.857-6.352-7.564 1.451-13.938 6.623-16.932 13.746-33.378 78.867-15.867 168.871 44.594 229.32 39.422 39.469 91.864 61.176 147.664 61.176 22.932 0 45.342-3.652 66.801-10.91l339.174 339.196c-25.359 75.103-6.441 157.78 50.242 214.464 39.445 39.424 91.887 61.153 147.686 61.153 28.264 0 55.754-5.558 81.682-16.559 7.145-2.994 12.27-9.345 13.768-16.921 1.475-7.576-0.908-15.379-6.373-20.868l-82.113-82.111v-65.712h65.713l82.064 82.089c5.49 5.489 13.203 7.916 20.869 6.396 7.576-1.475 13.928-6.624 16.922-13.769 33.389-78.867 15.877-168.895-44.596-229.344-39.398-39.4-91.863-61.131-147.641-61.131-22.932 0-45.342 3.63-66.801 10.889l-339.173-339.174c25.358-75.104 6.419-157.803-50.265-214.486-39.423-39.4-91.865-61.131-147.664-61.131zM181.846-13.055c9.391-1.656 18.986-2.494 28.717-2.494 43.392 0 84.152 16.875 114.819 47.52 47.044 47.021 60.653 117.064 34.659 178.398-3.675 8.711-1.701 18.805 4.99 25.496l360.383 360.381c6.713 6.691 16.807 8.688 25.473 4.99 20.188-8.528 41.6-12.883 63.578-12.883 43.393 0 84.152 16.875 114.797 47.543 38.334 38.287 54.461 91.887 45.094 143.604l-61.516-61.471c-4.355-4.355-10.252-6.805-16.398-6.805h-98.535c-12.814 0-23.227 10.389-23.227 23.228v98.533c0 6.17 2.428 12.067 6.805 16.423l61.447 61.424c-9.412 1.679-19.008 2.518-28.738 2.518-43.393 0-84.176-16.898-114.842-47.52-47-47.044-60.609-117.088-34.66-178.398 3.697-8.711 1.725-18.805-4.967-25.496l-360.405-360.383c-6.691-6.713-16.808-8.664-25.473-4.988-20.188 8.527-41.601 12.883-63.579 12.883-43.393 0-84.176-16.875-114.82-47.543-38.299-38.311-54.438-91.91-45.059-143.627l61.481 61.494c4.378 4.377 10.274 6.805 16.422 6.805h98.556c12.816 0 23.228-10.391 23.228-23.229v-98.557c0-6.168-2.45-12.066-6.805-16.422l-61.425-61.424zM930.531-62.004c-24.814 0-48.131 9.662-65.711 27.219l-213.512 213.535c-9.072 9.072-9.072 23.771 0 32.844l98.533 98.533c9.074 9.074 23.771 9.074 32.846 0l213.533-213.533c17.557-17.557 27.221-40.875 27.221-65.689s-9.688-48.178-27.221-65.711c-17.557-17.535-40.873-27.197-65.689-27.197zM700.621 195.172l197.066-197.111c17.535-17.535 48.133-17.557 65.689 0 8.777 8.777 13.609 20.438 13.609 32.844s-4.832 24.090-13.588 32.844l-197.088 197.113-65.689-65.689zM205.346 788.959l265.023-265.024-32.844-32.845-265.025 265.002zM618.465 122.656c-5.943 0-11.887 2.268-16.422 6.805-9.098 9.072-9.098 23.748 0 32.822l197.066 197.111c9.072 9.072 23.771 9.072 32.844 0 9.074-9.096 9.074-23.771 0-32.846l-197.066-197.088c-4.537-4.537-10.48-6.805-16.422-6.805zM156.078 716.441c-5.942 0-11.885 2.27-16.422 6.806l-131.4 131.4c-4.367 4.333-6.805 10.23-6.805 16.423 0 6.191 2.438 12.090 6.805 16.422l65.688 65.689c9.085 9.096 23.749 9.096 32.845 0l131.4-131.401c4.355-4.355 6.805-10.253 6.805-16.423 0-6.169-2.449-12.066-6.805-16.422l-65.689-65.688c-4.535-4.536-10.479-6.806-16.422-6.806zM57.522 871.070l98.556-98.557 32.845 32.844-98.556 98.557-32.845-32.844zM706.61 222.027l-170.503 170.506 32.844 32.843 170.503-170.506-32.844-32.843z" />
<glyph unicode="&#xe92a;" glyph-name="dimensions" d="M995.030 169.27c-16.564 0-29.97-13.43-29.97-30.030v-47.624l-121.88 120.118v273.4l-299.71-240.228c0-125.044 0-199.74 0-309.866l267.526 224.008 111.684-109.896h-47.534c-16.564 0-29.97-13.432-29.97-30.030s13.406-30.030 29.97-30.030h119.882c16.598 0 29.97 13.682 29.97 30.030v120.118c0.002 16.6-13.402 30.030-29.968 30.030zM183.822 485.142v-273.41l-121.882-120.116v47.624c0 16.6-13.406 30.030-29.97 30.030s-29.97-13.43-29.97-30.030v-120.118c0-16.63 13.656-30.030 29.97-30.030h119.882c16.566 0 29.97 13.432 29.97 30.030s-13.406 30.030-29.97 30.030h-47.53l111.68 109.896 267.528-224.008c0 108.008 0 186.482 0 309.866l-299.708 240.236zM543.47 754.278v103.242l33.6-33.666c11.708-11.732 30.67-11.732 42.38 0 11.706 11.73 11.706 30.734 0 42.464l-84.724 84.89c-11.692 11.746-30.808 11.698-42.454 0l-84.726-84.89c-11.708-11.73-11.708-30.734 0-42.464 11.706-11.728 30.674-11.728 42.38 0l33.602 33.668v-103.242l-269.746-216.22 299.718-240.258 299.716 240.252-269.746 216.224z" />
<glyph unicode="&#xe92b;" glyph-name="disable-text" d="M610.894 120.042h-133.542l-53.082 138.106h-243.030l-50.184-138.106h-130.226l236.81 607.992h129.808l243.446-607.992zM384.868 360.582l-83.774 225.616-82.116-225.616h165.89zM728.298 426.112l-105.756 19.076c11.882 42.574 32.348 74.092 61.378 94.558 29.028 20.456 72.162 30.688 129.392 30.688 51.976 0 90.684-6.156 116.128-18.456 25.43-12.304 43.338-27.93 53.706-46.864 10.368-18.944 15.554-53.708 15.554-104.304l-1.246-136.034c0-38.71 1.868-67.256 5.602-85.64 3.73-18.39 10.71-38.092 20.942-59.098h-115.292c-3.042 7.738-6.782 19.214-11.196 34.424-1.938 6.906-3.318 11.466-4.15 13.682-19.91-19.35-41.2-33.87-63.868-43.544-22.674-9.674-46.868-14.518-72.582-14.518-45.346 0-81.074 12.302-107.204 36.912-26.126 24.608-39.19 55.71-39.19 93.314 0 24.878 5.94 47.070 17.83 66.56 11.882 19.494 28.542 34.424 49.974 44.792 21.422 10.368 52.324 19.42 92.694 27.164 54.466 10.224 92.208 19.768 113.222 28.616v11.614c0 22.396-5.536 38.362-16.59 47.902-11.060 9.538-31.934 14.308-62.624 14.308-20.738 0-36.916-4.082-48.528-12.236-11.61-8.152-21.014-22.458-28.196-42.916zM884.238 331.554c-14.932-4.978-38.572-10.928-70.92-17.836-32.348-6.912-53.5-13.688-63.452-20.318-15.21-10.786-22.81-24.472-22.81-41.060 0-16.318 6.078-30.416 18.248-42.302 12.164-11.89 27.644-17.83 46.45-17.83 21.006 0 41.056 6.904 60.138 20.73 14.094 10.506 23.358 23.362 27.784 38.57 3.040 9.954 4.562 28.886 4.562 56.818v23.228zM61.435-55.274l-61.431 61.431 954.412 954.412 61.431-61.431-954.412-954.412z" />
<glyph unicode="&#xe92c;" glyph-name="download-fail" d="M997.544 388.576c16.87-39.638 25.42-82.134 25.42-126.838 0-58.624-14.66-113.476-43.58-163.042-28.892-49.496-68.63-89.234-118.118-118.118-49.562-28.92-104.416-43.58-163.042-43.58-58.622 0-113.474 14.66-163.038 43.578-49.486 28.886-89.228 68.624-118.124 118.114-6.702 11.49-12.604 23.276-17.77 35.312h-220.092v254.574h-179.2v-452.576h1024v452.576h-26.456zM417.070 424.772c28.886 49.498 68.63 89.236 118.124 118.122 49.56 28.92 104.418 43.584 163.036 43.584 18.376 0 36.384-1.444 53.974-4.314l60.346 66.688h-187.674v311.148h-230.404v-311.148h-184.548l205.482-227.042c0.56 0.984 1.092 1.982 1.664 2.962zM944.228 404.344c-25.402 43.528-59.864 77.99-103.386 103.394-43.54 25.4-91.062 38.102-142.614 38.102-51.542 0-99.078-12.702-142.608-38.102-43.532-25.4-77.992-59.864-103.396-103.394-25.408-43.536-38.106-91.066-38.106-142.606 0-51.542 12.704-99.080 38.102-142.61 25.404-43.518 59.87-77.988 103.398-103.394 43.53-25.396 91.064-38.096 142.61-38.096 51.542 0 99.080 12.7 142.608 38.096 43.528 25.4 77.988 59.864 103.394 103.394 25.398 43.53 38.098 91.074 38.098 142.61-0.002 51.54-12.702 99.080-38.1 142.606zM758.946 36.344c0-4.434-1.428-8.14-4.272-11.142-2.838-3.010-6.328-4.504-10.444-4.504h-91.082c-4.108 0-7.748 1.578-10.902 4.738-3.172 3.166-4.748 6.802-4.748 10.908v90.13c0 4.114 1.576 7.754 4.748 10.912 3.154 3.164 6.794 4.748 10.902 4.748h91.082c4.116 0 7.614-1.508 10.444-4.508 2.844-3.016 4.272-6.728 4.272-11.152v-90.13zM747.994 239.536c-0.322-3.162-1.976-5.938-4.97-8.304-3.016-2.37-6.724-3.554-11.146-3.554h-67.764c-4.438 0-8.23 1.186-11.394 3.554-3.16 2.368-4.744 5.142-4.744 8.304l-18.064 254.598c0 3.8 1.582 6.646 4.742 8.542 3.166 2.528 6.964 3.798 11.38 3.798h104.386c4.432 0 8.218-1.262 11.38-3.798 3.162-1.896 4.732-4.746 4.732-8.542l-18.538-254.598z" />
<glyph unicode="&#xe92d;" glyph-name="download-success" d="M997.544 388.576c16.87-39.638 25.42-82.134 25.42-126.838 0-58.624-14.66-113.476-43.58-163.042-28.892-49.496-68.63-89.234-118.118-118.118-49.562-28.92-104.416-43.58-163.042-43.58-58.622 0-113.474 14.66-163.038 43.578-49.486 28.886-89.228 68.624-118.124 118.114-6.702 11.49-12.604 23.276-17.77 35.312h-220.092v254.574h-179.2v-452.576h1024v452.576h-26.456zM417.070 424.772c28.886 49.498 68.63 89.236 118.124 118.122 49.56 28.92 104.418 43.584 163.036 43.584 18.376 0 36.384-1.444 53.974-4.314l60.346 66.688h-187.674v311.148h-230.404v-311.148h-184.548l205.482-227.042c0.56 0.984 1.092 1.982 1.664 2.962zM944.228 404.344c-25.402 43.528-59.864 77.99-103.386 103.394-43.54 25.4-91.062 38.102-142.614 38.102-51.542 0-99.078-12.702-142.608-38.102-43.532-25.4-77.992-59.864-103.396-103.394-25.408-43.536-38.106-91.066-38.106-142.606 0-51.542 12.704-99.080 38.102-142.61 25.404-43.518 59.87-77.988 103.398-103.394 43.53-25.396 91.064-38.096 142.61-38.096 51.542 0 99.080 12.7 142.608 38.096 43.528 25.4 77.988 59.864 103.394 103.394 25.398 43.53 38.098 91.074 38.098 142.61-0.002 51.54-12.702 99.080-38.1 142.606zM904.81 322.214l-246.444-246.44c-4.848-4.848-10.602-7.274-17.262-7.274-6.658 0-12.408 2.426-17.258 7.274l-130.184 130.184c-4.84 4.84-7.264 10.596-7.264 17.252 0 6.66 2.424 12.418 7.264 17.262l33.306 33.302c4.844 4.85 10.596 7.266 17.254 7.266 6.66 0 12.418-2.416 17.258-7.266l79.62-79.624 195.886 195.884c4.842 4.844 10.606 7.266 17.26 7.266 6.664 0 12.418-2.422 17.26-7.266l33.306-33.306c4.84-4.844 7.266-10.6 7.266-17.254 0.002-6.662-2.428-12.42-7.268-17.26z" />
<glyph unicode="&#xe92e;" glyph-name="download" d="M844.798 388.576v-254.572h-665.598v254.572h-179.2v-452.576h1024v452.576zM636.874 960h-230.402v-311.148h-184.548l301.338-332.956 301.286 332.956h-187.674z" />
<glyph unicode="&#xe92f;" glyph-name="draggable-line" d="M396 780.75h40v-665h-40v665zM588 780.75h40v-665h-40v665z" />
<glyph unicode="&#xe930;" glyph-name="draggable" d="M324.198 957.984c54.816 0.908 98.462-40.446 100.874-95.58 2.514-57.79-40.802-104.826-97.428-105.8-54.084-0.936-98.662 41.444-100.884 95.908-2.4 58.358 40.252 104.526 97.438 105.472zM324.198 548.69c54.816 0.908 98.462-40.446 100.874-95.58 2.514-57.79-40.802-104.826-97.428-105.798-54.084-0.938-98.662 41.448-100.884 95.912-2.4 58.352 40.252 104.516 97.438 105.466zM324.198 139.394c54.816 0.908 98.462-40.448 100.874-95.578 2.514-57.792-40.802-104.828-97.428-105.8-54.084-0.936-98.662 41.446-100.884 95.912-2.4 58.352 40.252 104.52 97.438 105.466zM684.358 957.984c54.82 0.908 98.464-40.446 100.876-95.58 2.516-57.79-40.8-104.826-97.428-105.8-54.084-0.936-98.66 41.444-100.884 95.908-2.398 58.358 40.254 104.526 97.436 105.472zM684.358 548.69c54.82 0.908 98.464-40.446 100.876-95.58 2.516-57.79-40.8-104.826-97.428-105.798-54.084-0.938-98.66 41.448-100.884 95.912-2.398 58.352 40.254 104.516 97.436 105.466zM684.358 139.394c54.82 0.908 98.464-40.448 100.876-95.578 2.516-57.792-40.8-104.828-97.428-105.8-54.084-0.936-98.66 41.446-100.884 95.912-2.398 58.352 40.254 104.52 97.436 105.466z" />
<glyph unicode="&#xe931;" glyph-name="dropout" d="M625.19 735.306c0-124.094-88.634-242.628-197.996-242.628-109.354 0-198 118.534-198 242.628s88.642 224.694 198 224.694c109.352 0 197.996-100.598 197.996-224.694zM486.492 137.808l51.928 51.948-51.938 51.958c-62.726 62.768-63.79 164.178-3.276 228.316-117.346-34.966-196.014 49.554-196.014 49.554s-293.77-26.906-285-315.87c4.132-123.27 22.324-181.78 49.386-217.664 31.712-42.050 72.614-50.050 72.614-50.050h338.668c-38.86 63.144-31.012 147.132 23.632 201.808zM888.954 189.756l108.46 108.506c32.782 32.782 32.782 85.884 0 118.666-16.37 16.38-37.85 24.57-59.332 24.57s-42.964-8.19-59.334-24.57l-108.504-108.504-108.506 108.504c-16.37 16.38-37.85 24.57-59.332 24.57s-42.964-8.19-59.336-24.57c-32.758-32.782-32.758-85.884 0-118.666l108.466-108.506-108.466-108.506c-32.758-32.778-32.758-85.882 0-118.664 16.372-16.392 37.844-24.586 59.336-24.586s42.964 8.194 59.332 24.586l108.506 108.506 108.504-108.506c16.39-16.392 37.862-24.586 59.334-24.586 21.47 0 42.944 8.194 59.332 24.586 32.782 32.782 32.782 85.886 0 118.664l-108.46 108.506z" />
<glyph unicode="&#xe932;" glyph-name="edit" d="M83.666 259.76l239.464-239.718 547.316 547.894-239.442 239.696-547.338-547.872zM768.868 945.628l-101.008-101.132 239.438-239.65 101.014 101.134c34.298 34.308 0 68.642 0 68.642l-170.84 171.006c0 0-34.302 34.334-68.604 0zM50.004 227.176l-50.292-291.176 290.276 50.986-239.984 240.19z" />
<glyph unicode="&#xe933;" glyph-name="ellipsis" d="M512.371 331.051c-65.281 0.014-113.982 47.037-115.736 111.744-1.809 66.148 51.516 122.653 115.736 122.653s117.545-56.52 115.732-122.667c-1.75-64.707-50.482-111.746-115.732-111.73zM510.369 959.983c63.895 1.060 114.762-47.143 117.574-111.406 2.93-67.355-47.555-122.182-113.555-123.315-63.043-1.090-115 48.305-117.59 111.788-2.797 68.018 46.92 121.83 113.57 122.934zM513.578-64c-65.604-0.574-114.35 45.434-116.691 110.168-2.488 68.387 46.199 119.637 114.275 120.256 68.033 0.617 118.164-49.896 116.941-117.84-1.176-64.822-49.158-111.996-114.525-112.584z" />
<glyph unicode="&#xe934;" glyph-name="enable-text" d="M610.894 120.042h-133.542l-53.082 138.106h-243.030l-50.184-138.106h-130.226l236.81 607.992h129.808l243.446-607.992zM384.868 360.582l-83.774 225.616-82.116-225.616h165.89zM728.298 426.112l-105.756 19.076c11.882 42.574 32.348 74.092 61.378 94.558 29.028 20.456 72.162 30.688 129.392 30.688 51.976 0 90.684-6.156 116.128-18.456 25.43-12.304 43.338-27.93 53.706-46.864 10.368-18.944 15.554-53.708 15.554-104.304l-1.246-136.034c0-38.71 1.868-67.256 5.602-85.64 3.73-18.39 10.71-38.092 20.942-59.098h-115.292c-3.042 7.738-6.782 19.214-11.196 34.424-1.938 6.906-3.318 11.466-4.15 13.682-19.91-19.35-41.2-33.87-63.868-43.544-22.674-9.674-46.868-14.518-72.582-14.518-45.346 0-81.074 12.302-107.204 36.912-26.126 24.608-39.19 55.71-39.19 93.314 0 24.878 5.94 47.070 17.83 66.56 11.882 19.494 28.542 34.424 49.974 44.792 21.422 10.368 52.324 19.42 92.694 27.164 54.466 10.224 92.208 19.768 113.222 28.616v11.614c0 22.396-5.536 38.362-16.59 47.902-11.060 9.538-31.934 14.308-62.624 14.308-20.738 0-36.916-4.082-48.528-12.236-11.61-8.152-21.014-22.458-28.196-42.916zM884.238 331.554c-14.932-4.978-38.572-10.928-70.92-17.836-32.348-6.912-53.5-13.688-63.452-20.318-15.21-10.786-22.81-24.472-22.81-41.060 0-16.318 6.078-30.416 18.248-42.302 12.164-11.89 27.644-17.83 46.45-17.83 21.006 0 41.056 6.904 60.138 20.73 14.094 10.506 23.358 23.362 27.784 38.57 3.040 9.954 4.562 28.886 4.562 56.818v23.228z" />
<glyph unicode="&#xe935;" glyph-name="export" d="M452.576 115.202h-254.572v665.598h254.572v179.2h-452.576v-1024h452.576zM379.896 572.872v-230.402h211.146v-184.548l432.958 301.338-432.958 301.286v-187.674z" />
<glyph unicode="&#xe936;" glyph-name="font-color" d="M2 104.666h1024v-170.666h-1024v170.666zM563.724 960h-99.444l-273.458-696.078h111.87l55.934 149.16h310.75l55.934-149.16h111.872l-273.458 696.078zM395.916 512.522l118.086 314.976 118.086-314.976h-236.172z" />
<glyph unicode="&#xe937;" glyph-name="frame" d="M22.876-63h976c13.252 0 24 10.748 24 24.002v976c0 13.252-10.746 23.998-24 23.998h-976c-13.246 0-24-10.746-24-23.998v-976c0-13.254 10.75-24.002 24-24.002zM93.484 848.746c0 10.856 8.8 19.656 19.658 19.656h799.484c10.86 0 19.658-8.8 19.658-19.656v-799.486c0-10.858-8.8-19.662-19.658-19.662h-799.482c-10.858 0-19.658 8.804-19.658 19.662l-0.002 799.486zM186.75 769h640v-146h-640v146z" />
<glyph unicode="&#xe938;" glyph-name="graduate" d="M425.194 492.678c109.36 0 197.998 118.534 197.998 242.628 0 124.096-88.646 224.694-197.998 224.694-109.358 0-198-100.6-198-224.694s88.646-242.628 198-242.628zM592.824 144.522v0h0.002zM592.824 144.522c-12.206-2.964-24.844-4.492-37.72-4.492-42.324 0-82.12 16.486-112.078 46.446-61.736 61.78-61.736 162.298 0.020 224.096l73.050 73.048c-136.382-65.59-230.904 35.964-230.904 35.964s-293.77-26.906-285-315.87c4.132-123.272 22.324-181.782 49.386-217.664 31.712-42.050 72.614-50.050 72.614-50.050h495.502c-15.716 24.598-24.872 53.774-24.872 85.064v123.458zM1003 354l-251.696 251.692-251.69-251.692c-30.636-30.656-30.636-80.32 0-110.978 15.332-15.328 35.41-22.992 55.49-22.992s40.162 7.664 55.49 22.992l62.232 62.234v-284.192c0-43.302 35.124-78.48 78.478-78.48 43.302 0 78.482 35.178 78.482 78.48v284.192l62.234-62.234c15.328-15.328 35.41-22.992 55.49-22.992s40.16 7.664 55.488 22.992c30.658 30.658 30.658 80.322 0.002 110.978z" />
<glyph unicode="&#xe939;" glyph-name="grid-line" d="M0 960v-1024h1024v1024h-1024zM958.016 317.984h-254.016v258.016h254.016v-258.016zM640 317.984h-256v258.016h256v-258.016zM640 256v-256h-256v256h256zM64 576h256v-257.984h-256v257.984zM384 640v253.984h256v-253.984h-256zM320 893.984v-253.984h-256v253.984h256zM64 256h256v-256h-256v256zM704 0v256h254.016v-256h-254.016zM958.016 640h-254.016v253.984h254.016v-253.984z" />
<glyph unicode="&#xe93a;" glyph-name="grid" d="M0 960h263.314v-270.222h-263.314v270.222zM380.342 960h263.314v-270.222h-263.314v270.222zM760.684 960h263.316v-270.222h-263.316v270.222zM0 576h263.314v-270.222h-263.314v270.222zM380.342 576h263.314v-270.222h-263.314v270.222zM760.684 576h263.316v-270.222h-263.316v270.222zM0 206.222h263.314v-270.222h-263.314v270.222zM380.342 206.222h263.314v-270.222h-263.314v270.222zM760.684 206.222h263.316v-270.222h-263.316v270.222z" />
<glyph unicode="&#xe93b;" glyph-name="guardian" d="M579.278 656.986c0-155.922-111.054-282.262-247.95-282.262-136.888 0-247.97 126.338-247.97 282.262 0 156.012 111.082 282.462 247.97 282.462 136.894 0 247.95-126.448 247.95-282.462zM981.996 423.916c0-110.908-78.998-200.776-176.372-200.776-97.368 0-176.38 89.868-176.38 200.776 0 110.972 79.014 200.918 176.38 200.918 97.374-0.002 176.372-89.946 176.372-200.918zM550.4-64v50.29c0 67.93 18.45 131.174 51.952 178.084 9.656 13.516 20.284 25.296 31.574 35.198-38.57 98.958-109.056 159.242-177.13 159.242 0 0-25.13-33.018-129.424-29.206-104.338 3.824-115.268 29.206-115.268 29.206-100.742 0-210.978-132.028-210.978-326.102v-92.632c0-1.38 0.17-2.738 0.47-4.078h548.804zM1021.626-64v50.29c0 59.824-15.284 114.74-43.034 154.63-22.106 31.774-49.906 50.998-77.192 53.672-12.040-7.758-36.954-17.718-85.434-17.718-4.494 0-9.174 0.088-13.902 0.262-42.846 1.568-72.354 7.41-88.138 17.412-27.25-2.882-56.108-22.544-78.454-53.83-28.614-40.066-44.372-94.91-44.372-154.428v-50.29h430.526z" />
<glyph unicode="&#xe93c;" glyph-name="header-col" d="M983.908 960h-941.65c-10.958 0-21.266-4.274-29.022-12.034-7.784-7.786-12.070-18.146-12.068-29.168v-942.096c0-22.718 18.432-41.204 41.090-41.204l941.65 0.004c22.658 0 41.092 18.482 41.092 41.202v942.092c0 22.72-18.434 41.204-41.092 41.204zM994.858 928.038v-301.038h-301.918v301.038h301.918zM692.94 595h301.918v-298.5h-301.918v298.5zM664.042 296.5h-301.918v298.5h301.918v-298.5zM664.042 928.038v-301.038h-301.918v301.038h301.918zM362.124-34.542v299.042h301.918v-299.042h-301.918zM692.94-34.542v299.042h301.918v-299.042h-301.918z" />
<glyph unicode="&#xe93d;" glyph-name="header-row-col" d="M1023.336-23.074v941.648c0 10.958-4.274 21.266-12.036 29.022-7.792 7.784-18.144 12.070-29.168 12.068h-942.096c-22.72 0-41.204-18.432-41.204-41.090l0.004-941.648c0-22.66 18.482-41.094 41.202-41.094h942.092c22.722 0 41.206 18.434 41.206 41.094zM991.372-34.024h-301.038v301.914h301.038v-301.914zM658.334 267.89v-301.914h-298.5v301.918l298.5-0.004zM359.834 296.79v301.92h298.5l-0.002-301.92h-298.498zM991.372 296.79h-301.038l0.002 301.92h301.036v-301.92z" />
<glyph unicode="&#xe93e;" glyph-name="header-row" d="M1023.336-23.074v941.648c0 10.958-4.274 21.266-12.036 29.022-7.788 7.784-18.144 12.070-29.168 12.068h-942.096c-22.72 0-41.204-18.432-41.204-41.090l0.004-941.648c0-22.66 18.482-41.094 41.202-41.094h942.092c22.722 0 41.206 18.434 41.206 41.094zM991.372-34.024h-301.038v301.914h301.038v-301.914zM658.334 267.89v-301.914h-298.5v301.918l298.5-0.004zM359.834 296.79v301.92h298.5l-0.002-301.92h-298.498zM991.372 296.79h-301.038l0.002 301.92h301.036v-301.92zM28.794 598.708h299.042v-301.918h-299.042v301.918zM28.794 267.894h299.042v-301.918h-299.042v301.918z" />
<glyph unicode="&#xe93f;" glyph-name="hover" d="M407.482 342.028c-125.714 27.888-220.016 140.254-220.016 274.242 0 154.886 126.010 280.898 280.9 280.898s280.9-126.012 280.9-280.898c0-51.446-13.92-99.692-38.168-141.204l46.908-46.908c35.304 54.164 55.86 118.774 55.86 188.112 0 190.508-154.99 345.498-345.5 345.498-190.508 0-345.5-154.99-345.5-345.498 0-169.74 123.044-311.25 284.616-340.098v65.856zM872.246 190.448c7.048-6.816 8.638-14.664 4.778-23.53-3.866-9.094-10.578-13.638-20.122-13.638h-130.264l68.542-162.322c2.274-5.686 2.274-11.256 0-16.71-2.278-5.458-6.138-9.436-11.596-11.934l-60.358-25.574c-5.682-2.272-11.25-2.272-16.71 0-5.456 2.274-9.432 6.138-11.934 11.596l-65.132 154.132-106.394-106.392c-4.32-4.32-9.432-6.484-15.348-6.484-2.724 0-5.456 0.572-8.184 1.708-9.090 3.866-13.638 10.568-13.638 20.12v512.874c0 9.544 4.548 16.254 13.638 20.118 2.728 1.138 5.46 1.704 8.184 1.704 6.144 0 11.258-2.156 15.348-6.476l349.19-349.192zM407.482 475.846c-54.204 23.584-92.204 77.638-92.204 140.424 0 84.412 68.674 153.086 153.086 153.086s153.090-68.674 153.090-153.086c0-15.6-2.352-30.66-6.712-44.848l49.684-49.684c13.852 28.606 21.628 60.676 21.628 94.532 0 120.032-97.656 217.686-217.69 217.686s-217.686-97.654-217.686-217.686c0-98.908 66.31-182.596 156.804-208.996v68.572z" />
<glyph unicode="&#xe940;" glyph-name="html" d="M961.418 960h-898.77c-34.664 0-62.648-28.050-62.648-62.648v-898.636c0-34.732 28.050-62.716 62.648-62.716h898.704c34.664 0 62.648 28.052 62.648 62.714v898.638c0.066 34.598-27.984 62.648-62.582 62.648zM298.076 330.386h-53.030v98.31h-87.628v-98.31h-53.362v235.162h53.364v-90.434h87.628v90.434h53.030v-235.162zM507.592 520.934h-64.184v-190.546h-53.43v190.546h-63.182v44.616h180.796v-44.616zM736.942 330.386l-3.47 89.964c-1.066 28.316-2.070 62.512-2.070 96.642h-1c-7.346-29.99-17.166-63.516-26.252-91.034l-28.652-91.834h-41.472l-25.182 91.102c-7.678 27.582-15.694 61.11-21.238 91.766h-0.734c-1.402-31.724-2.4-68.058-4.208-97.31l-4.208-89.296h-49.222l15.026 235.162h70.93l23.042-78.544c7.282-27.182 14.696-56.504 19.904-84.088h1.070c6.676 27.25 14.694 58.308 22.304 84.488l25.18 78.144h69.458l12.892-235.162h-52.098zM976.848 330.386h-146.936v235.162h53.432v-190.618h93.504v-44.544z" />
<glyph unicode="&#xe941;" glyph-name="iframe" d="M364.546 283.726l-232.602 128.65v71.256l232.602 127.922v-83.692l-162.080-78.966 162.082-81.944-0.002-83.226zM404.28 238.706l154.252 417.904h48.734l-154.612-417.904h-48.374zM659.452 283.726v83.228l162.050 81.28-162.050 80.654v82.7l232.604-128.088v-70.828l-232.604-128.946zM1000 846.616h-976c-13.254 0-24-8.37-24-18.702v-760.518c0-10.326 10.746-18.698 24-18.698h976c13.25 0 24 8.372 24 18.698v760.518c0 10.332-10.75 18.702-24 18.702zM983.79 103.576c0-9.344-9.906-16.918-22.116-16.918h-899.348c-12.214 0-22.116 7.574-22.116 16.918v688.158c0 9.35 9.902 16.924 22.116 16.924h899.348c12.208 0 22.116-7.574 22.116-16.924v-688.158z" />
<glyph unicode="&#xe942;" glyph-name="image" d="M958.86 846.498h-893.618c-35.892 0-64.992-29.098-64.992-64.988v-666.156c0-35.89 29.1-64.986 64.992-64.986h893.618c35.89 0 64.992 29.096 64.992 64.988v666.154c0 35.89-29.102 64.988-64.992 64.988zM958.86 781.51v-472.66l-128.082 116.448c-19.25 17.498-48.856 16.798-67.25-1.612l-129.622-129.604-255.59 305.292c-19.32 23.072-54.708 23.298-74.316 0.504l-238.758-277.478v459.11h893.618zM682.652 610.908c0 49.362 39.996 89.364 89.36 89.364 49.36 0 89.36-40.002 89.36-89.364s-39.996-89.36-89.36-89.36c-49.364-0.002-89.36 39.998-89.36 89.36z" />
<glyph unicode="&#xe943;" glyph-name="import" d="M571.424 780.798h254.572v-665.598h-254.572v-179.2h452.576v1024h-452.576zM0.002 572.872v-230.404h211.148v-184.546l432.956 301.338-432.956 301.286v-187.674z" />
<glyph unicode="&#xe944;" glyph-name="institutions" d="M118.454 509.48h113.836v-398.432h-113.836v398.432zM346.124 509.48h113.836v-398.432h-113.836v398.432zM573.798 509.48h113.836v-398.432h-113.836v398.432zM801.47 509.48h113.836v-398.432h-113.836v398.432zM972.226 533.48c0-13.254-10.746-24-24-24h-868.226c-13.254 0-24 10.746-24 24v8.916c0 13.254 10.746 24 24 24h868.226c13.254 0 24-10.746 24-24v-8.916zM972.992 122.050c0-13.254-10.746-24-24-24h-868.226c-13.254 0-24 10.746-24 24v8.916c0 13.256 10.746 24 24 24h868.226c13.254 0 24-10.744 24-24v-8.916zM1020.98 28.050c0-13.254-11.928-24-26.64-24h-963.7c-14.712 0-26.64 10.746-26.64 24v8.916c0 13.256 11.928 24 26.64 24h963.7c14.712 0 26.64-10.744 26.64-24v-8.916zM18.666 602.076c-14.108 14.11-14.238 42.852-0.292 56.796l467.866 244.088c13.946 13.946 36.688 13.814 50.796-0.292l473.28-249.502c14.106-14.11 14.236-36.852 0.292-50.796z" />
<glyph unicode="&#xe945;" glyph-name="items" d="M894.84 959.605h-765.682c-22.914 0-41.479-18.564-41.479-41.482v-940.246c0-22.918 18.565-41.482 41.479-41.482h765.682c22.912 0 41.482 18.564 41.482 41.482v940.246c0 22.918-18.57 41.482-41.482 41.482zM741.014 264.791h-456.299c-11.451 0-20.741 9.289-20.741 20.738 0 11.453 9.29 20.744 20.741 20.744h456.299c11.449 0 20.738-9.291 20.738-20.744 0-11.449-9.289-20.738-20.738-20.738zM741.014 489.482h-456.299c-11.451 0-20.741 9.29-20.741 20.739 0 11.453 9.29 20.743 20.741 20.743h456.299c11.449 0 20.738-9.29 20.738-20.743 0-11.449-9.289-20.739-20.738-20.739zM741.014 714.175h-456.299c-11.451 0-20.741 9.29-20.741 20.738s9.29 20.739 20.741 20.739h456.299c11.449 0 20.738-9.29 20.738-20.739s-9.289-20.738-20.738-20.738z" />
<glyph unicode="&#xe946;" glyph-name="key" d="M942.924 881.574c-104.504 104.506-287.082 104.6-391.752 0.096-52.282-52.286-81.132-121.91-81.132-195.922 0-41.878 10.206-81.942 27.73-118.684l-468.818-468.814c-36.062-36.070-36.062-94.508 0-130.558 18.042-18.036 41.664-27.054 65.284-27.054s47.25 9.020 65.276 27.054l65.284 65.274 65.276-65.274c18.036-18.036 41.664-27.054 65.284-27.054s47.25 9.020 65.276 27.054c36.070 36.062 36.070 94.496 0 130.558l-65.276 65.278 272.974 272.98c36.754-17.54 76.808-27.73 118.688-27.73 74.030 0 143.544 28.852 195.842 81.138 0 0 0 0 0.092 0 52.286 52.376 81.048 121.91 81.048 195.838-0.018 74.004-28.876 143.612-81.076 195.82zM812.276 620.466c0 0 0 0-0.092 0-34.716-34.894-95.396-34.894-130.468 0-17.408 17.496-27.052 40.654-27.052 65.28 0 24.708 9.554 47.79 27.052 65.276 17.498 17.404 40.648 27.052 65.276 27.052 24.718 0 47.792-9.554 65.286-27.144 17.498-17.404 27.050-40.484 27.050-65.184-0.002-24.626-9.654-47.792-27.052-65.28z" />
<glyph unicode="&#xe947;" glyph-name="label" d="M705.732 523.794l-30.126 29.168c-0.852-6.372-3.586-13.16-8.196-20.378-4.616-7.224-9.74-14.5-15.386-21.842-5.638-7.35-11.224-14.868-16.748-22.548-5.526-7.69-9.734-15.296-12.632-22.824-2.902-7.534-3.858-15.036-2.862-22.51 0.988-7.478 5.178-14.792 12.562-21.94 4.85-4.694 9.906-7.682 15.182-8.964 5.27-1.29 10.472-1.376 15.608-0.28 5.132 1.098 10.198 3.274 15.196 6.524 4.996 3.252 9.75 7.18 14.282 11.792 9.504 9.672 16.326 19.25 20.462 28.726s6.33 18.362 6.592 26.65c0.256 8.284-0.96 15.76-3.654 22.412-2.696 6.652-6.126 11.994-10.28 16.014zM1009.28 946.556c-6.084 5.912-14.458 8.904-22.936 8.178l-383.946-32.68c-6.958-0.59-13.488-3.636-18.374-8.594l-568.036-575.488c-11.296-11.446-11.108-29.8 0.42-41.010l359.672-348.202c11.53-11.2 30.026-11.016 41.324 0.424l567.244 574.692c4.894 4.956 7.838 11.484 8.284 18.414l25.052 381.672c0.55 8.424-2.618 16.678-8.704 22.594zM605.228 296.846l-101.298 45.486-102.524-104.33 47.66-100.068-32.93-33.51-154.090 336.578 35.646 36.276 343.182-144.158-35.646-36.274zM798.486 485.908c-7.468-7.6-15.558-11.566-24.26-11.904-8.706-0.338-17.93 4.212-27.676 13.646 1.822-17.498-0.378-33.674-6.612-48.538-6.236-14.864-15.458-28.516-27.682-40.954-7.924-8.064-16.376-14.816-25.358-20.278-8.986-5.458-18.052-8.93-27.204-10.404-9.15-1.484-18.438-0.69-27.876 2.38-9.434 3.064-18.678 8.98-27.724 17.74-10.206 9.878-16.86 19.694-19.962 29.438-3.098 9.74-3.91 19.396-2.424 28.974 1.488 9.568 4.748 18.998 9.79 28.274s10.602 18.388 16.676 27.334c6.298 9.628 12.61 18.468 18.922 26.512 6.32 8.040 11.444 15.55 15.364 22.542 3.926 6.986 6.020 13.488 6.29 19.526 0.266 6.030-2.382 11.744-7.952 17.134-6.49 6.284-12.898 10.128-19.222 11.532-6.318 1.398-12.392 1.21-18.214-0.568s-11.404-4.696-16.736-8.74c-5.336-4.048-10.27-8.376-14.792-12.98-12.222-12.436-20.024-25.106-23.42-37.998-3.388-12.896 1.186-26.088 13.728-39.582l-28.856-29.364c-10.684 11.24-17.814 22.64-21.4 34.198-3.582 11.558-4.354 23.090-2.318 34.606 2.036 11.51 6.36 22.712 12.988 33.604 6.622 10.884 14.914 21.396 24.876 31.534 7.918 8.058 16.368 15.5 25.332 22.326 8.966 6.822 18.408 11.724 28.336 14.7 9.922 2.97 20.048 3.278 30.382 0.92 10.326-2.36 20.702-8.582 31.114-18.662l92.372-89.424c6.95-6.728 12.43-11.254 16.464-13.584 4.032-2.332 8.308-1.198 12.84 3.412 2.486 2.532 4.97 5.976 7.434 10.33l22.968-22.234c-1.97-7.98-7.362-16.466-16.188-25.448zM866.83 725.672c-20.952-21.216-55.266-21.57-76.64-0.784-21.374 20.788-21.716 54.842-0.772 76.064 20.94 21.222 55.258 21.574 76.634 0.788 21.374-20.786 21.72-54.84 0.778-76.068zM465.908 358.918l-156.28 71.076-0.678-0.692 74.802-153.986z" />
<glyph unicode="&#xe948;" glyph-name="legend" d="M470.732 766.414h487.816c36.512 0 66.086 29.574 66.086 66.086s-29.574 66.086-66.086 66.086h-487.816c-36.512 0-66.086-29.574-66.086-66.086s29.574-66.086 66.086-66.086zM166.392 960l-166.392-294.848h333zM958.55 515.084h-487.818c-36.512 0-66.086-29.57-66.086-66.084 0-36.512 29.574-66.086 66.086-66.086h487.816c36.512 0 66.086 29.574 66.086 66.086 0.002 36.514-29.572 66.084-66.084 66.084zM0.304 553.054h326.8v-208.11h-326.8v208.11zM84.776-64l-84.776 144.498 84.776 144.502h169.554l84.774-144.502-84.774-144.498h-169.554zM958.55 131.584h-487.818c-36.512 0-66.086-29.574-66.086-66.084 0-36.516 29.574-66.084 66.086-66.084h487.816c36.512 0 66.086 29.568 66.086 66.084 0 36.51-29.572 66.084-66.084 66.084z" />
<glyph unicode="&#xe949;" glyph-name="lists" d="M1024-29.736c0-19.066-9.004-34.264-20.3-34.264h-728.046c-11.040 0-19.986 15.198-19.986 34.264v136.338c0 18.996 8.946 34.2 19.986 34.2h728.046c11.296 0 20.3-15.204 20.3-34.2v-136.338zM183.666-29.734c0-19.068-13.662-34.266-30.73-34.266h-122.086c-17.188 0-30.85 15.198-30.85 34.266v136.336c0 18.998 13.662 34.2 30.85 34.2h122.086c17.068 0 30.73-15.202 30.73-34.2v-136.336zM1024 379.8c0-19.002-9.004-34.198-20.3-34.198h-728.046c-11.040 0-19.986 15.196-19.986 34.198v136.534c0 18.63 8.946 34 19.986 34h728.046c11.296 0 20.3-15.37 20.3-34v-136.534zM183.666 379.798c0-18.998-13.662-34.198-30.73-34.198h-122.086c-17.188 0.002-30.85 15.2-30.85 34.198v136.536c0 18.698 13.662 34.066 30.85 34.066h122.086c17.068 0 30.73-15.368 30.73-34v-136.602zM1024 789.268c0-18.634-9.004-34.066-20.3-34.066h-728.046c-11.040 0-19.986 15.432-19.986 34.066v136.73c0 18.636 8.946 34.002 19.986 34.002h728.046c11.296 0 20.3-15.366 20.3-34.002v-136.73zM183.666 789.266c0-18.632-13.662-34.066-30.73-34.066h-122.086c-17.188 0-30.85 15.434-30.85 34.066v136.732c0 18.634 13.662 34.002 30.85 34.002h122.086c17.068 0 30.73-15.368 30.73-34.002v-136.732z" />
<glyph unicode="&#xe94a;" glyph-name="marker-fill-color" d="M1024.010 819.498l-135.376 135.606-193.348-193.020c-55.35 33.358-120.196 52.558-189.532 52.558-203.092 0-367.734-164.638-367.734-367.734 0-69.112 19.082-133.76 52.238-188.994l-182.62-182.312 135.376-135.608 185.162 184.848c52.648-29.090 113.174-45.666 177.58-45.666 203.094 0 367.732 164.638 367.732 367.732 0 64.184-16.458 124.516-45.364 177.036l195.886 195.554zM507 207c-132.852 0-240.55 107.698-240.55 240.55s107.698 240.55 240.55 240.55c132.854 0 240.55-107.698 240.55-240.55s-107.696-240.55-240.55-240.55z" />
<glyph unicode="&#xe94b;" glyph-name="marker-line" d="M888.634 955.104l135.377-135.607-880.996-879.502-135.377 135.607 880.996 879.502z" />
<glyph unicode="&#xe94e;" glyph-name="mobile_icon" d="M736.771 961.763h-449.542c-52.994 0-96.331-43.352-96.331-96.33v-834.864c0-52.994 43.337-96.33 96.331-96.33h449.542c52.994 0 96.33 43.336 96.33 96.33v834.864c0 52.979-43.336 96.33-96.33 96.33zM383.56 913.598h256.882v-32.11h-256.882v32.11zM512-1.543c-35.496 0-64.22 28.725-64.22 64.223 0 35.496 28.724 64.219 64.22 64.219s64.221-28.723 64.221-64.219c0-35.498-28.725-64.223-64.221-64.223zM768.883 191.119h-513.764v642.203h513.764v-642.203z" />
<glyph unicode="&#xe94f;" glyph-name="null" d="M1020.010 822.394l-135.376 135.606-193.348-193.020c-55.35 33.358-120.196 52.558-189.532 52.558-203.092 0-367.734-164.638-367.734-367.734 0-69.112 19.082-133.76 52.238-188.992l-182.62-182.314 135.376-135.608 185.162 184.848c52.648-29.090 113.174-45.666 177.58-45.666 203.094 0 367.732 164.638 367.732 367.732 0 64.184-16.458 124.516-45.364 177.036l195.886 195.554zM265.2 449.804c0 131.684 106.75 238.434 238.434 238.434 32.704 0 63.868-6.59 92.244-18.506l-312.326-311.794c-11.816 28.274-18.352 59.306-18.352 91.866zM742.064 449.804c0-131.682-106.748-238.432-238.43-238.432-28.586 0-55.996 5.038-81.396 14.262l305.7 305.182c9.136-25.292 14.126-52.568 14.126-81.012z" />
<glyph unicode="&#xe950;" glyph-name="numeric" d="M2 533.132v60.67c27.33 1.252 46.464 3.128 57.394 5.628 17.41 3.958 31.584 11.884 42.52 23.768 7.486 8.132 13.156 18.966 17 32.524 2.226 8.134 3.342 14.174 3.342 18.138h72.458v-453.452h-88.896v312.724h-103.818zM326.778 309.524c13.088 30.222 43.99 62.222 92.706 95.996 42.276 29.386 69.636 50.44 82.084 63.162 19.096 19.8 28.646 41.48 28.646 65.040 0 19.174-5.468 35.124-16.414 47.84-10.946 12.714-26.614 19.076-47 19.076-27.896 0-46.888-10.112-56.974-30.33-5.794-11.676-9.23-30.23-10.302-55.658h-89.164c1.5 38.562 8.698 69.728 21.586 93.494 24.49 45.232 67.992 67.852 130.506 67.852 49.404 0 88.718-13.29 117.936-39.868 29.208-26.58 43.822-61.756 43.822-105.532 0-33.564-10.318-63.374-30.964-89.428-13.542-17.304-35.792-36.586-66.754-57.848l-36.766-25.328c-23.004-15.844-38.748-27.308-47.222-34.398-8.48-7.082-15.614-15.316-21.41-24.696h203.758v-78.484h-319.64c0.852 32.512 8.042 62.214 21.566 89.11zM805.906 367.89c0-17.66 2.836-32.27 8.508-43.84 10.526-21.312 29.658-31.964 57.402-31.964 17.008 0 31.84 5.828 44.492 17.504 12.656 11.672 18.986 28.468 18.986 50.386 0 29.020-11.736 48.402-35.208 58.148-13.356 5.484-34.392 8.218-63.126 8.218v62.108c28.118 0.404 47.73 3.144 58.862 8.218 19.21 8.524 28.822 25.772 28.822 51.758 0 16.842-4.912 30.544-14.732 41.1-9.816 10.552-23.638 15.832-41.446 15.832-20.446 0-35.478-6.5-45.088-19.486-9.622-12.99-14.222-30.344-13.814-52.058h-80.982c0.806 21.918 4.562 42.722 11.248 62.412 7.096 17.25 18.248 33.184 33.456 47.798 11.354 10.352 24.836 18.266 40.442 23.748 15.616 5.48 34.776 8.22 57.482 8.22 42.174 0 76.188-10.914 102.036-32.728 25.846-21.818 38.776-51.098 38.776-87.832 0-25.984-7.714-47.906-23.138-65.76-9.736-11.164-19.892-18.774-30.446-22.832 7.914 0 19.284-6.802 34.098-20.4 22.122-20.504 33.186-48.512 33.186-84.028 0-37.348-12.93-70.168-38.782-98.488-25.856-28.312-64.124-42.468-114.814-42.468-62.448 0-105.838 20.398-130.17 61.192-12.776 21.714-19.876 50.128-21.292 85.246l85.246-0.004z" />
<glyph unicode="&#xe951;" glyph-name="openemis" d="M570.875 554.015c0 0 34.457-23.184 41.823-229.14 7.365-205.965-43.245-326.863-43.245-326.863s140.95 22.585 192.235 121.318c51.282 98.762 41.543 302.56 34.25 385-4.318 48.825-6.787 90.49-6.787 90.49s-19.050-53.265-97.928-67.811c-78.917-14.528-120.347 27.006-120.347 27.006zM331.872 290.475c0 0 31.251-94.63 35.476-175.875 5.217-99.958-2.411-159.88-2.411-159.88s80.58-19.602 116.074 18.36c16.136 17.267 33.066 43.61 36.009 181.090 2.347 109.56-17.434 175.735-17.434 175.735s-8.208-24.895-70.438-43.758c-62.23-18.885-97.276 4.328-97.276 4.328zM173.975 129.735c0 0 30.989-16.537 59.903-10.61 28.905 5.918 47.030 39.225 47.030 39.225 0.027-3.225 8.769-38.413 8.798-71.82 0.055-66.68-14.976-107.878-14.976-107.878s-17.275-0.253-54.882 18.592c-39.346 19.695-49.834 40.15-49.834 40.15s8.141 19.48 8.806 55.51c0.195 10.3-4.844 36.83-4.844 36.83zM911.668 831.315l-271.485 98.8-250.94-143.137 155.758-54.592c-6.18-16.555-8.91-34.7-7.32-53.48 5.768-67.885 65.482-118.244 133.35-112.485 67.895 5.768 118.253 65.464 112.493 133.341-1.587 18.78-7.31 36.204-16.198 51.489l85.74 47.562 7.86-92.47 27.297 2.318-8.88 104.726 32.325 17.929zM562.2 480.923l-175.911 64.025-162.629-92.76 100.941-35.365c-4.011-10.74-5.769-22.5-4.74-34.663 3.72-44.002 42.421-76.635 86.414-72.905 43.991 3.74 76.635 42.43 72.914 86.423-1.046 12.16-4.768 23.445-10.516 33.355l55.575 30.829 5.085-59.931 17.705 1.488-5.758 67.895 20.92 11.61zM326.349 255.373l-116.253 42.32-107.475-61.305 66.699-23.39c-2.636-7.105-3.814-14.853-3.122-22.893 2.459-29.082 28.025-50.657 57.099-48.19 29.091 2.46 50.656 28.035 48.189 57.118-0.682 8.050-3.141 15.507-6.946 22.060l36.729 20.36 3.356-39.608 11.704 1.002-3.814 44.85 13.835 7.675z" />
<glyph unicode="&#xe952;" glyph-name="packages" d="M888.486 750.932c-22.52 7.166-37.879-5.119-37.879-5.119l-253.895-193.492c0 0-98.282-66.544-146.397-37.879-48.121 28.664 26.676 84.971 26.676 84.971l161.694 111.594c0 0 15.357-26.619 41.975-22.523 26.621 4.094 34.807 28.664 34.807 28.664l-1.025 71.665c0 0-6.141 20.475-16.379 26.619-10.236 6.141-15.359 18.426-57.33-7.167-41.975-25.595-220.109-154.591-220.109-154.591s-63.475-31.737-63.475-117.734c0-85.996 0-498.575 0-498.575s40.056-89.070 119.843-101.352c79.79-12.287 140.196 21.498 140.196 21.498l281.535 207.824c0 0 15.357 8.189 15.357 35.83 0 27.645 0 511.888 0 511.888s-3.070 30.716-25.594 37.88zM856.238 475.539l-245.703-165.791v110.061l245.703 165.784v-110.054zM329.509 565.886c0 90.251 66.605 123.557 66.605 123.557s186.967 135.394 231.059 162.299c17.656 10.782 28.984 15.005 37.043 15.933-3.711 8.189-9.789 16.861-20.408 20.254-22.525 7.164-37.883-5.122-37.883-5.122l-253.896-193.492c0 0-98.282-66.545-146.396-37.879-48.122 28.664 26.681 84.974 26.681 84.974l161.689 111.59c0 0 15.358-26.618 41.98-22.522 26.615 4.097 34.807 28.666 34.807 28.666l-1.025 71.663c0 0-6.146 20.475-16.377 26.618-10.243 6.145-15.359 18.427-57.333-7.166-41.98-25.593-220.113-154.59-220.113-154.59s-63.474-31.736-63.474-117.732c0-85.998 0-498.577 0-498.577s40.054-89.070 119.847-101.354c38.52-5.951 72.337-1.090 97.195 5.5 0 105.197 0 412.838 0 487.382z" />
<glyph unicode="&#xe953;" glyph-name="play" d="M995.814 711.499h-16.609v-496.687c0-15.512-12.584-28.1-28.096-28.1l-439.107-51.525-439.102 51.525c-15.52 0-28.104 12.588-28.104 28.1v496.687h-16.607c-14.674 0-26.57-11.899-26.57-26.576v-551.341c0-14.674 11.896-26.576 26.57-26.576h967.625c14.668 0 26.566 11.902 26.566 26.576v551.341c0 14.677-11.898 26.576-26.566 26.576zM927.172 788.991l-415.17-48.712-415.171 48.712c-14.674 0-26.57-11.894-26.57-26.565v-533.635c0-14.668 11.896-26.57 26.57-26.57l415.171-48.713 415.17 48.713c14.666 0 26.574 11.902 26.574 26.57v533.635c0 14.672-11.908 26.565-26.574 26.565zM471.031 361.734l-0.337-2.848c-0.981-8.486-7.832-14.662-15.296-13.797l-313.686 36.34c-7.464 0.867-12.724 8.447-11.737 16.928l0.337 2.85c0.981 8.484 7.827 14.66 15.297 13.795l313.685-36.34c7.459-0.865 12.724-8.441 11.737-16.928zM472.753 487.588l-0.337-2.85c-0.982-8.485-7.827-14.661-15.291-13.796l-313.686 36.341c-7.469 0.865-12.724 8.445-11.737 16.927l0.337 2.849c0.981 8.486 7.822 14.662 15.291 13.797l313.686-36.336c7.464-0.865 12.724-8.445 11.737-16.932zM474.48 613.44l-0.332-2.85c-0.981-8.485-7.832-14.661-15.302-13.801l-313.685 36.34c-7.465 0.871-12.725 8.451-11.737 16.933l0.337 2.849c0.981 8.486 7.827 14.662 15.296 13.791l313.686-36.335c7.464-0.861 12.724-8.441 11.737-16.927zM544.857 613.44c-0.986 8.485 4.273 16.065 11.738 16.927l313.684 36.335c7.471 0.871 14.314-5.305 15.297-13.791l0.338-2.849c0.986-8.481-4.273-16.062-11.738-16.933l-313.686-36.34c-7.469-0.86-14.318 5.315-15.301 13.801l-0.332 2.85zM546.584 487.588c-0.986 8.486 4.273 16.066 11.736 16.932l313.686 36.336c7.471 0.865 14.311-5.311 15.291-13.797l0.338-2.849c0.986-8.481-4.268-16.062-11.738-16.927l-313.684-36.341c-7.465-0.865-14.311 5.311-15.291 13.796l-0.338 2.85zM877.623 381.43l-313.686-36.34c-7.463-0.865-14.314 5.311-15.295 13.797l-0.338 2.848c-0.986 8.486 4.279 16.063 11.738 16.928l313.684 36.34c7.471 0.865 14.316-5.311 15.297-13.795l0.338-2.85c0.986-8.48-4.273-16.061-11.738-16.928z" />
<glyph unicode="&#xe954;" glyph-name="plot" d="M932.338 723.818c-51.28 0-93.23-41.954-93.23-93.232 0-8.39 0.93-16.316 3.262-23.774l-165.49-165.956c-7.46 2.33-15.852 3.262-24.242 3.262s-16.782-0.932-24.24-3.262l-118.87 118.872c2.33 7.458 3.26 15.85 3.26 24.24 0 51.278-41.956 93.234-93.232 93.234-51.278 0-93.234-41.956-93.234-93.234 0-8.39 0.932-16.782 3.264-24.24l-212.576-212.108c-7.46 2.332-15.384 3.264-23.774 3.264-51.282 0-93.236-41.956-93.236-93.236s41.954-93.23 93.234-93.23c51.278 0 93.232 41.952 93.232 93.23 0 8.39-0.932 16.318-3.262 23.776l212.108 212.574c7.458-2.332 15.85-3.264 24.24-3.264s16.782 0.932 24.242 3.264l118.872-118.876c-2.332-7.458-3.264-15.848-3.264-24.238 0-51.28 41.956-93.234 93.232-93.234 51.28 0 93.234 41.956 93.234 93.234 0 8.39-0.932 16.782-3.264 24.238l165.956 165.492c7.46-2.332 15.384-3.262 23.774-3.262 51.282 0 93.236 41.954 93.236 93.232 0 51.28-41.954 93.234-93.232 93.234z" />
<glyph unicode="&#xe955;" glyph-name="preview" d="M968.942 960h-914.22c-30.356 0-55.056-26.044-55.056-58.056v-907.888c0-32.012 24.7-58.056 55.056-58.056h914.218c30.362 0 55.060 26.044 55.060 58.056v907.888c0 32.014-24.702 58.056-55.058 58.056zM860.008 870.982c25.148 0 45.624-21.582 45.624-48.104 0-26.524-20.472-48.104-45.624-48.104-25.156 0-45.618 21.582-45.618 48.104s20.462 48.104 45.618 48.104zM705.308 870.982c25.156 0 45.622-21.582 45.622-48.104 0-26.524-20.46-48.104-45.622-48.104-25.154 0-45.622 21.582-45.622 48.104 0.006 26.522 20.468 48.104 45.622 48.104zM139.348 847.758h184.044c13.034 0 23.596-11.134 23.596-24.878s-10.562-24.882-23.596-24.882h-184.044c-13.034 0-23.596 11.138-23.596 24.882s10.566 24.878 23.596 24.878zM936.55 36.594c0-4.172-3.22-7.572-7.186-7.572h-835.066c-3.96 0-7.182 3.4-7.182 7.572v625.252h849.436l-0.002-625.252z" />
<glyph unicode="&#xe956;" glyph-name="process-error" d="M557.716 260.011c0-4.718-1.123-8.662-3.358-11.856-2.234-3.205-4.98-4.794-8.217-4.794h-71.655c-3.233 0-6.095 1.68-8.577 5.042-2.496 3.368-3.734 7.238-3.734 11.607v74.644c0 4.379 1.238 8.253 3.734 11.611 2.482 3.368 5.344 5.056 8.577 5.056h71.655c3.237 0 5.99-1.61 8.217-4.801 2.238-3.209 3.358-7.159 3.358-11.865v-74.644zM549.101 418.799c-0.254-3.362-1.555-6.318-3.91-8.835-2.372-2.522-5.287-3.783-8.767-3.783h-53.312c-3.491 0-6.476 1.261-8.966 3.783-2.484 2.52-3.73 5.473-3.73 8.835l-14.211 228.401c0 4.045 1.244 7.073 3.73 9.091 2.49 2.691 5.478 4.043 8.954 4.043h82.119c3.487 0 6.464-1.343 8.954-4.043 2.488-2.016 3.722-5.052 3.722-9.091l-14.584-228.401zM574.769 803.977l-232.226 156.023v-97.1h-247.061v-306.891h117.851v189.046h129.21v-97.1zM867.977 384.063l156.023 232.226h-97.102v247.063h-306.889v-117.853h189.044v-129.21h-97.1zM447.628 92.023l232.228-156.023v97.102h247.063v306.889h-117.855v-189.044h-129.208v97.1zM156.023 512.48l-156.023-232.228h97.102v-247.063h306.889v117.851h-189.044v129.212h97.098z" />
<glyph unicode="&#xe957;" glyph-name="process" d="M574.769 803.977l-232.226 156.023v-97.1h-247.061v-306.891h117.851v189.046h129.21v-97.1zM867.977 384.063l156.023 232.226h-97.102v247.063h-306.889v-117.853h189.044v-129.21h-97.1zM447.628 92.023l232.228-156.023v97.102h247.063v306.889h-117.855v-189.044h-129.208v97.1zM156.023 512.48l-156.023-232.228h97.102v-247.063h306.889v117.851h-189.044v129.212h97.098z" />
<glyph unicode="&#xe958;" glyph-name="user-profile-shadow" d="M437.496-22.35v155.112c0 84.222 29.066 161.454 77.368 222.866-28.574 11.844-54.146 29.41-74.586 52.1-18.738 20.79-49.74 26.246-71.712 8.912-83.922-66.234-137.878-168.67-137.878-283.876v-155.112c0-21.504 17.43-38.928 38.942-38.928h206.802c-21.5-0.002-38.936 17.422-38.936 38.926zM540.91 804.886c0 61.124 27.020 115.488 69.192 153.352-5.87 0.498-11.498 1.762-17.49 1.762-114.224 0-206.814-92.592-206.814-206.808 0-114.214 92.596-206.804 206.814-206.804 53.094 0 100.998 20.584 137.612 53.46-105.892 9.012-189.314 96.81-189.314 205.038z" />
<glyph unicode="&#xe959;" glyph-name="user-profile" d="M783.978-62.134h-312.304c-21.58 0-39.040 17.46-39.040 39.040s17.46 39.042 39.040 39.042h312.304c21.578 0 39.038-17.462 39.038-39.042s-17.46-39.040-39.038-39.040zM315.528-62.134h-78.076c-21.58 0-39.038 17.46-39.038 39.040s17.458 39.042 39.038 39.042h78.076c21.578 0 39.040-17.462 39.040-39.042s-17.466-39.040-39.040-39.040zM679.872 546.152c-16.59 13.092-39.996 8.968-54.146-6.73-28.394-31.502-69.214-51.456-115.012-51.456-20.944 0-40.826 4.214-58.976 11.756 0.094 0.122 0.182 0.246 0.276 0.368-21.394 8.872-40.546 21.998-55.914 38.918-0.13 0.144-0.27 0.278-0.4 0.42-5.304 5.886-11.914 10.144-18.976 12.478-11.77 3.89-24.802 2.432-35.174-5.75-63.366-50.008-104.104-127.354-104.104-214.342v-117.116c0-8.118 3.292-15.466 8.612-20.788 5.322-5.318 12.672-8.612 20.794-8.612h487.736c16.234 0 29.398 13.16 29.398 29.398v117.116c-0.008 86.986-40.748 164.34-104.114 214.34zM666.86 800.27c0 86.184-69.818 156.054-155.98 156.146-0.056 0-0.11 0.006-0.166 0.006-86.242 0-156.15-69.912-156.15-156.15v0-0.002c0-86.24 69.91-156.152 156.15-156.152 2.088 0 4.156 0.078 6.224 0.158 0.422 0.018 0.852 0.012 1.278 0.034 82.748 3.912 148.644 72.234 148.644 155.96z" />
<glyph unicode="&#xe95a;" glyph-name="publish" d="M504.574 39.070c-82.316 0-159.026 23.628-224.468 63.862 58.894-0.6-43.818 89.618 26.938 103.46 74.232 14.578 105.492 99.484 81.72 98.202-23.716-1.248-68.866 12.248-100.622 52.148-31.804 40.184-59.642 31.014-92.444 24.708-28.678-5.658-64.002-88.618-72.788-110.398-22.33 42.762-37.464 89.748-44.31 139.432 36.42 19.038 95.864 51.1 117.346 68.818 31.656 26.24-10.566 36.854-15.774 52.678-5.166 15.84 0 52.71 0 89.318 0 36.972 73.726 36.972 99.876 73.742 18.808 26.24-15.624 84.144-37.114 115.506 72.596 55.876 163.194 89.458 261.638 89.458 26.106 0 51.544-2.73 76.406-7.196 7.302-45.348 22.496-107.72 51.81-123.994 47.49-26.288 104.944-84.192 126.194-94.624 21.13-10.516 47.286-100.118 42.11-136.954-3.71-25.992-35.972-54.612-49.168-82.164l219.318-136.638c15.474 47.62 24.012 98.286 24.012 151.030 0 270.536-220.202 490.536-490.622 490.536-270.576 0-490.632-220-490.632-490.53 0-270.564 220.056-490.68 490.632-490.68 10.266 0 20.29 0.948 30.42 1.548l-11.476 59.734c-6.348-0.3-12.596-1.002-19.002-1.002zM929.764 405.958c-9.286 36.82-27.254 72.344-65.458 99.784-26.138 18.452-47.488 99.932-31.6 126.338 9.466 15.71 34.128 29.552 52.298 38.206 31.812-60.004 49.966-128.272 49.966-200.816 0-21.63-2.148-42.712-5.206-63.512zM802.776 190.65l204.892 40.85-513.26 319.782-12.106-8.42 114.266-593.688 111.546 176.488 108.17-157.588c20.532-29.668 58.236-39.252 84.39-21.35 26.008 17.97 30.666 56.674 10.284 86.39l-108.182 157.536z" />
<glyph unicode="&#xe95b;" glyph-name="reason" d="M1023.502 857.602c0 56.326-45.6 102.402-101.898 102.402h-819.204c-56.326 0-102.402-46.076-102.402-102.402v-614.4c0-56.296 46.076-102.4 102.402-102.4h716.8l204.8-204.802-0.498 921.602zM819.202 499.202h-614.402v102.398h614.402v-102.398z" />
<glyph unicode="&#xe95c;" glyph-name="reassign" d="M980.052 663.904c-48.406 75.486-127.186 122.704-209.794 134.452l-0.584 152.556-208.068-171.494 209.416-179.964-0.616 160.194c63.802-20.59 121.756-62.818 160.376-123.042 50.822-79.25 56.278-171.056 23.002-246.324l16.744-26.112c65.67 81.482 73.188 200.458 9.524 299.734zM376.104 365.528c0 125.098 64.64 233.048 158.082 283.22-35.84 40.74-85.386 65.946-140.124 65.946-109.358 0-198-100.6-198-224.694 0-124.092 88.646-242.628 198-242.628 0.378 0 0.752 0.016 1.13 0.020-12.318 37.608-19.088 77.658-19.088 118.136zM850.058 361.998c0-124.092-88.634-242.626-197.996-242.626-109.354 0-198 118.536-198 242.626 0 124.096 88.642 224.696 198 224.696 109.354 0 197.996-100.598 197.996-224.696zM1017.488-64c-66.062 111.584-217.9 150.296-217.9 150.296-162.27-120.564-279.998 5.978-279.998 5.978s-175.004-16.066-250.824-156.274h748.722zM166.202-64c58.512 156.41 218.628 200.476 278.742 211.704-3.972 5.646-7.818 11.42-11.494 17.344-103.86-17.824-171.86 55.228-171.86 55.228s-248.856-24.956-261.59-284.276h166.202z" />
<glyph unicode="&#xe95d;" glyph-name="redo" d="M3 448.004c0-69.324 13.48-135.554 40.462-198.67 26.982-63.11 63.246-117.548 108.804-163.332 45.564-45.772 99.734-82.228 162.544-109.332s128.706-40.67 197.708-40.67c76.074 0 148.398 16.122 216.954 48.34 68.556 32.212 126.936 77.66 175.152 136.33 3.094 4.44 4.536 9.436 4.316 15.002-0.222 5.544-2.102 10.1-5.636 13.672l-90.894 92.006c-4.42 3.996-9.952 5.994-16.588 5.994-7.078-0.894-12.168-3.568-15.26-8.012-32.29-42.238-71.876-74.904-118.756-98.008-46.888-23.104-96.646-34.664-149.284-34.664-45.996 0-89.9 9.004-131.7 27.002-41.792 17.996-77.948 42.336-108.468 73.004-30.524 30.668-54.742 66.996-72.656 109-17.904 42-26.864 86.104-26.864 132.332 0 46.232 8.962 90.338 26.864 132.336 17.914 42.006 42.132 78.338 72.656 109 30.522 30.668 66.664 55.002 108.468 73.006 41.8 17.992 85.706 27 131.7 27 43.348 0 84.92-7.894 124.732-23.674 39.806-15.78 75.186-38.334 106.156-67.67l-90.894-91.996c-13.714-13.34-16.808-28.668-9.292-46.004 7.52-17.778 20.566-26.668 39.146-26.668h297.232c11.496 0 21.45 4.224 29.86 12.67 8.406 8.442 12.61 18.444 12.61 29.998v298.674c0 18.664-8.848 31.78-26.542 39.346-17.258 7.55-32.51 4.442-45.782-9.336l-86.26-86.014c-47.328 44.894-101.4 79.67-162.212 104.338-60.828 24.672-123.742 36.996-188.758 36.996-69.002 0-134.896-13.548-197.706-40.666s-116.994-63.558-162.558-109.334c-45.548-45.77-81.818-100.218-108.796-163.336-26.974-63.116-40.458-129.312-40.458-198.66z" />
<glyph unicode="&#xe95e;" glyph-name="reject" d="M875.5 960h-724c-82.842 0-150-67.158-150-150v-724c0-82.842 67.158-150 150-150h724c82.842 0 150 67.158 150 150v724c0 82.842-67.158 150-150 150zM874.528 106.442l-205.266 0.264-151.338 218.708-147.562-218.368h-218.488l243.046 341.874-231.116 340.64 209.158-0.284 144.484-201.828 153.086 201.512h204.596l-236.436-341.030 235.836-341.488z" />
<glyph unicode="&#xe95f;" glyph-name="release" d="M625.19 735.306c0-124.094-88.634-242.628-197.996-242.628-109.354 0-198 118.534-198 242.628s88.642 224.694 198 224.694c109.352 0 197.996-100.598 197.996-224.694zM573.358-7.682c0 36.138 6.078 70.124 31.64 95.696l7.332 7.332h-240.706c-74.632 0-135.348 60.718-135.348 135.352 0 74.63 60.716 135.348 135.348 135.348h242.702l-7.322 7.322c-25.568 25.572-33.646 59.558-33.646 95.7 0 16.994 3.15 33.496 9.108 48.888-7.632 1.222-12.016 1.628-12.016 1.628s-9.124-9.798-25.774-21.34c-42.588-26.486-81.678-36.26-115.856-36.682-34.176 0.422-73.268 10.196-115.856 36.682-16.65 11.542-25.774 21.34-25.774 21.34s-293.768-26.906-284.998-315.87c4.132-123.272 22.324-181.782 49.386-217.664 31.712-42.050 72.614-50.050 72.614-50.050h461.4c-7.996 17.452-12.234 36.556-12.234 56.318zM812.308-17.688l211.692 251.7-211.692 251.688c-30.656 30.636-72.32 30.636-102.978 0-15.326-15.332-22.99-35.412-22.99-55.49 0-20.082 9.652-37.7 22.99-55.492l54.234-76.23h-332.192c-28.952 0-78.48-14.156-78.48-64.476 0-44.346 41.442-64.484 78.48-64.484h332.19l-52.234-76.234c-17.346-26.068-24.99-35.41-24.99-55.488 0-20.082-0.336-40.16 14.99-55.488 30.658-30.658 80.322-30.658 110.98-0.006z" />
<glyph unicode="&#xe960;" glyph-name="remove" d="M955.466 705.076c-45.792 78.46-107.916 140.584-186.376 186.38-78.486 45.794-164.156 68.686-257.078 68.686-92.916 0-178.612-22.892-257.078-68.686-78.468-45.79-140.592-107.912-186.388-186.38-45.8-78.472-68.694-164.168-68.694-257.078 0-92.912 22.9-178.6 68.686-257.076 45.796-78.454 107.92-140.584 186.388-186.384 78.474-45.786 164.16-68.678 257.078-68.678 92.914 0 178.616 22.892 257.078 68.678 78.46 45.792 140.584 107.924 186.384 186.384 45.786 78.476 68.678 164.164 68.678 257.076 0 92.918-22.892 178.612-68.678 257.078zM810.758 405.322c0-11.556-4.22-21.572-12.67-30.014-8.448-8.442-18.448-12.678-30.006-12.678h-512.156c-11.558 0-21.558 4.236-30.006 12.678-8.446 8.442-12.67 18.458-12.67 30.014v85.36c0 11.558 4.224 21.562 12.67 30.006 8.448 8.45 18.448 12.672 30.006 12.672h512.156c11.558 0 21.558-4.224 30.006-12.672 8.45-8.444 12.67-18.448 12.67-30.006v-85.36z" />
<glyph unicode="&#xe961;" glyph-name="reorder" d="M-1.082 782h1025.082v-100h-1025.082v100zM-1.082 592.666h1025.082v-100h-1025.082v100zM-1.082 403.334h1025.082v-100h-1025.082v100zM-1.082 214h1025.082v-100h-1025.082v100z" />
<glyph unicode="&#xe962;" glyph-name="reports" d="M1.074 914.244h62.166v-932.488h-62.166v932.488zM1.074 43.924h1021.852v-62.168h-1021.852v62.168zM293.859 385.675l20.5-15.255-248.66-334.171-20.5 15.255 248.66 334.171zM672.841 460.544l4.733-25.116-371.054-69.929-4.733 25.116 371.054 69.929zM960.247 846.148l20.382-15.414-295.299-390.468-20.382 15.414 295.299 390.468zM370.184 364.466c0-35.406-28.702-64.108-64.108-64.108s-64.108 28.702-64.108 64.108c0 35.406 28.702 64.108 64.108 64.108s64.108-28.702 64.108-64.108zM743.178 457.718c0-35.394-28.714-64.114-64.11-64.114-35.392 0-64.108 28.718-64.108 64.114 0 35.388 28.714 64.108 64.108 64.108 35.396 0 64.11-28.718 64.11-64.108zM1022.924 830.71c0-35.406-28.702-64.108-64.108-64.108s-64.108 28.702-64.108 64.108c0 35.406 28.702 64.108 64.108 64.108s64.108-28.702 64.108-64.108z" />
<glyph unicode="&#xe963;" glyph-name="resolution" d="M1023.966 14.792v-39.416c0-21.76-17.61-39.418-39.388-39.418h-39.394c-21.746 0-39.384 17.622-39.384 39.418 0 21.794 17.598 39.416 39.384 39.416 0 21.754 17.612 39.418 39.394 39.418 21.78-0.002 39.388-17.622 39.388-39.418zM984.578 528.556c-21.742 0-39.394-17.618-39.394-39.374v-81.948c0-21.758 17.612-39.376 39.394-39.376 21.78 0 39.388 17.576 39.388 39.336v81.946c0 21.758-17.608 39.416-39.388 39.416zM984.578 765.71c-21.742 0-39.394-17.66-39.394-39.416v-81.946c0-21.756 17.612-39.416 39.394-39.416 21.78 0 39.388 17.7 39.388 39.458v81.946c0 21.754-17.608 39.374-39.388 39.374zM984.578 291.402c-21.742 0-39.394-17.622-39.394-39.416v-81.948c0-21.758 17.612-39.42 39.394-39.42 21.78 0 39.388 17.624 39.388 39.42v81.948c0 21.796-17.608 39.416-39.388 39.416zM984.578 960.334h-39.394c-21.746 0-39.384-17.66-39.384-39.416s17.598-39.416 39.384-39.416c0-21.756 17.612-39.416 39.394-39.416 21.78 0 39.388 17.7 39.388 39.458v39.372c0 21.758-17.608 39.418-39.388 39.418zM708.184 881.542h81.894c21.748 0 39.384 17.66 39.384 39.416s-17.598 39.376-39.384 39.376h-81.894c-21.744 0-39.382-17.66-39.382-39.416-0.002-21.756 17.638-39.376 39.382-39.376zM234.148 881.542h81.894c21.74 0 39.386 17.66 39.386 39.416s-17.648 39.376-39.346 39.376h-81.894c-21.786 0-39.392-17.66-39.392-39.416s17.606-39.376 39.352-39.376zM471.186 881.542h81.896c21.744 0 39.346 17.66 39.346 39.416s-17.602 39.376-39.346 39.376h-81.896c-21.74 0-39.352-17.66-39.352-39.416s17.612-39.376 39.352-39.376zM39.692 842.126c21.74 0 39.394 17.658 39.394 39.416 21.74 0 39.386 17.66 39.386 39.416s-17.69 39.376-39.428 39.376h-39.352c-21.744 0-39.392-17.66-39.392-39.418v-39.416c0-21.716 17.648-39.374 39.392-39.374zM39.692 604.972c21.74 0 39.394 17.658 39.394 39.416v81.946c0 21.756-17.654 39.416-39.394 39.416-21.744 0-39.392-17.66-39.392-39.416v-81.946c0-21.758 17.648-39.416 39.392-39.416zM790.078 14.792h-81.894c-21.744 0-39.382-17.622-39.382-39.416 0-21.796 17.596-39.418 39.382-39.418h81.894c21.748 0 39.384 17.622 39.384 39.418 0 21.794-17.596 39.416-39.384 39.416zM846.956 800.334l-243.638-30.446c-10.77-1.31-13.262-8.726-5.64-16.346l83.444-83.504-261.036-261.246h-341.042v80.348c0 21.756-17.654 39.374-39.392 39.374-21.746 0-39.352-17.618-39.352-39.374v-81.948c0-7.008 2.296-13.234 5.488-18.892-3.192-5.692-5.488-11.916-5.488-18.928v-393.998c0-21.76 17.648-39.418 39.392-39.418h393.746c7.002 0 13.222 2.292 18.912 5.49 5.616-3.154 11.876-5.448 18.838-5.448h81.896c21.744 0 39.346 17.616 39.346 39.416 0 21.796-17.602 39.414-39.346 39.414h-80.34v341.148l261.082 261.286 83.362-83.42c7.704-7.664 15.026-5.122 16.384 5.656l30.422 243.792c1.424 10.65-6.304 18.396-17.038 17.044z" />
<glyph unicode="&#xe964;" glyph-name="results" d="M584.244 912.378c0 26.947-32.072 48.789-71.631 48.789s-71.631-21.842-71.631-48.789h-75.336v-75.95h295.172v75.95h-76.574zM956.008 65.742l-29.643 85.227h-825.027l-33.342-85.227h247.089l-39.599-130.91h104.979l39.599 130.91h182.009l39.6-130.91h104.979l-39.594 130.91zM904.133 809.257h-784.271c-12.27 0-22.228-9.952-22.228-22.228v-584.195c0-12.281 9.957-22.229 22.228-22.229h784.271c12.281 0 22.232 9.947 22.232 22.229v584.195c0 12.275-9.951 22.228-22.232 22.228zM852.262 439.971l-72.875 76.579-240.836-222.308-142.029 144.5-196.376-188.967-43.228 44.467 239.604 251.945 144.506-148.205 176.609 175.375-86.455 75.342 238.365 13.585-17.285-222.313z" />
<glyph unicode="&#xe965;" glyph-name="role" d="M638.465 251.029c-3.695 40.65-2.293 69.031-2.293 106.184 18.406 9.658 51.418 71.273 56.986 123.318 14.486 1.195 37.324 15.324 44.002 71.102 3.596 29.947-10.719 46.799-19.439 52.096 23.553 70.867 72.506 290.097-90.541 312.75-16.752 29.466-59.719 44.371-115.545 44.371-223.356-4.114-250.31-168.676-201.356-357.121-8.696-5.297-23.035-22.148-19.438-52.096 6.701-55.777 29.515-69.906 44.002-71.102 5.543-52.020 39.861-113.66 58.314-123.318 0-37.152 1.404-65.533-2.291-106.184-44.198-118.848-342.426-85.49-356.197-314.662h958.664c-13.748 229.172-310.67 195.814-354.867 314.662z" />
<glyph unicode="&#xe966;" glyph-name="save" d="M831.188 961h-63.938v-416.406h-511.5v416.406h-255.75v-1025h1023v832.812l-191.812 192.188zM895.124 0.062h-767.248v448.438h767.25v-448.438zM191.812 384.438h639.376v-64.062h-639.376v64.062zM191.812 256.312h639.376v-64.062h-639.376v64.062zM191.812 128.188h639.376v-64.062h-639.376v64.062zM575.438 896.938h127.876v-288.282h-127.876v288.282z" />
<glyph unicode="&#xe967;" glyph-name="series" d="M383-64h256v1024h-256v-1024zM-1-64h256v512h-256v-512zM766.998 640v-704h256v704h-256z" />
<glyph unicode="&#xe968;" glyph-name="server-shadow" d="M512 595.528h-497.748c-8.892-12.846-14.252-28.38-14.252-45.266v-204.504c0-16.906 5.36-32.422 14.252-45.266h516.748zM179.198 526.102c42.344 0 76.802-35.042 76.802-78.1 0-43.066-34.458-78.104-76.802-78.104-42.338 0-76.796 35.040-76.796 78.104 0 43.056 34.458 78.1 76.796 78.1zM508 960h-429.358c-43.364 0-78.642-35.876-78.642-79.976v-204.504c0-16.906 5.36-32.422 14.252-45.264h518.748zM179.198 855.866c42.344 0 76.802-35.042 76.802-78.102s-34.458-78.104-76.802-78.104c-42.338 0-76.796 35.042-76.796 78.104 0 43.060 34.458 78.102 76.796 78.102zM502 265.766h-487.748c-8.892-12.844-14.252-28.38-14.252-45.268v-204.506c0-44.116 35.278-79.992 78.642-79.992h457.358zM179.198 40.136c-42.338 0-76.796 35.042-76.796 78.102s34.458 78.102 76.796 78.102c42.344 0 76.802-35.042 76.802-78.102 0-43.058-34.458-78.102-76.802-78.102z" />
<glyph unicode="&#xe969;" glyph-name="server" d="M0 550.262v-204.504c0-16.906 5.36-32.422 14.252-45.266h995.482c8.908 12.826 14.266 28.36 14.266 45.246v204.524c0 16.906-5.358 32.42-14.248 45.266h-995.5c-8.892-12.846-14.252-28.38-14.252-45.266zM887.462 439.322c9.426 0 17.072-7.778 17.072-17.356 0-9.582-7.646-17.358-17.072-17.358-9.42 0-17.066 7.776-17.066 17.358 0 9.578 7.648 17.356 17.066 17.356zM853.33 491.39c9.428 0 17.066-7.774 17.066-17.356s-7.638-17.36-17.066-17.36c-9.418 0-17.066 7.778-17.066 17.36s7.648 17.356 17.066 17.356zM819.198 439.322c9.428 0 17.066-7.778 17.066-17.356 0-9.582-7.64-17.358-17.066-17.358-9.416 0-17.062 7.776-17.062 17.358-0.004 9.578 7.646 17.356 17.062 17.356zM785.066 491.39c9.418 0 17.066-7.774 17.066-17.356s-7.648-17.36-17.066-17.36-17.066 7.778-17.066 17.36 7.648 17.356 17.066 17.356zM750.934 439.322c9.418 0 17.066-7.778 17.066-17.356 0-9.582-7.648-17.358-17.066-17.358s-17.066 7.776-17.066 17.358c0 9.578 7.648 17.356 17.066 17.356zM716.802 491.39c9.416 0 17.062-7.774 17.062-17.356s-7.646-17.36-17.062-17.36c-9.428 0-17.066 7.778-17.066 17.36s7.64 17.356 17.066 17.356zM682.67 439.322c9.418 0 17.066-7.778 17.066-17.356 0-9.582-7.648-17.358-17.066-17.358-9.426 0-17.066 7.776-17.066 17.358 0 9.578 7.64 17.356 17.066 17.356zM648.538 491.39c9.42 0 17.066-7.774 17.066-17.356s-7.648-17.36-17.066-17.36c-9.426 0-17.072 7.778-17.072 17.36-0.004 9.584 7.646 17.356 17.072 17.356zM614.398 439.322c9.424 0 17.064-7.778 17.064-17.356 0-9.582-7.64-17.358-17.064-17.358-9.42 0-17.066 7.776-17.066 17.358 0 9.578 7.646 17.356 17.066 17.356zM580.266 491.39c9.426 0 17.066-7.774 17.066-17.356s-7.64-17.36-17.066-17.36c-9.418 0-17.066 7.778-17.066 17.36s7.648 17.356 17.066 17.356zM179.198 526.102c42.344 0 76.802-35.042 76.802-78.1 0-43.066-34.458-78.104-76.802-78.104-42.338 0-76.796 35.040-76.796 78.104 0 43.056 34.458 78.1 76.796 78.1zM1009.752 630.238c8.89 12.844 14.248 28.376 14.248 45.264v204.522c0 44.1-35.274 79.976-78.646 79.976h-866.712c-43.364 0-78.642-35.876-78.642-79.976v-204.504c0-16.906 5.36-32.422 14.252-45.264l995.5-0.018zM887.462 769.086c9.426 0 17.072-7.776 17.072-17.356s-7.646-17.356-17.072-17.356c-9.42 0-17.066 7.776-17.066 17.356s7.648 17.356 17.066 17.356zM853.33 821.152c9.428 0 17.066-7.776 17.066-17.356s-7.638-17.356-17.066-17.356c-9.418 0-17.066 7.776-17.066 17.356s7.648 17.356 17.066 17.356zM819.198 769.086c9.428 0 17.066-7.776 17.066-17.356s-7.64-17.356-17.066-17.356c-9.416 0-17.062 7.776-17.062 17.356s7.646 17.356 17.062 17.356zM785.066 821.152c9.418 0 17.066-7.776 17.066-17.356s-7.648-17.356-17.066-17.356-17.066 7.776-17.066 17.356 7.648 17.356 17.066 17.356zM750.934 769.086c9.418 0 17.066-7.776 17.066-17.356s-7.648-17.356-17.066-17.356-17.066 7.776-17.066 17.356 7.648 17.356 17.066 17.356zM716.802 821.152c9.416 0 17.062-7.776 17.062-17.356s-7.646-17.356-17.062-17.356c-9.428 0-17.066 7.776-17.066 17.356s7.64 17.356 17.066 17.356zM682.67 769.086c9.418 0 17.066-7.776 17.066-17.356s-7.648-17.356-17.066-17.356c-9.426 0-17.066 7.776-17.066 17.356s7.64 17.356 17.066 17.356zM648.538 821.152c9.42 0 17.066-7.776 17.066-17.356s-7.648-17.356-17.066-17.356c-9.426 0-17.072 7.776-17.072 17.356s7.646 17.356 17.072 17.356zM614.398 769.086c9.424 0 17.064-7.776 17.064-17.356s-7.64-17.356-17.064-17.356c-9.42 0-17.066 7.776-17.066 17.356s7.646 17.356 17.066 17.356zM580.266 821.152c9.426 0 17.066-7.776 17.066-17.356s-7.64-17.356-17.066-17.356c-9.418 0-17.066 7.776-17.066 17.356s7.648 17.356 17.066 17.356zM179.198 855.866c42.344 0 76.802-35.042 76.802-78.102s-34.458-78.104-76.802-78.104c-42.338 0-76.796 35.042-76.796 78.104 0 43.060 34.458 78.102 76.796 78.102zM14.252 265.766c-8.892-12.844-14.252-28.38-14.252-45.268v-204.506c0-44.116 35.278-79.992 78.642-79.992h866.696c43.374 0 78.646 35.876 78.646 79.976v204.522c0 16.906-5.36 32.424-14.25 45.268h-995.482zM179.198 40.136c-42.338 0-76.796 35.042-76.796 78.102s34.458 78.102 76.796 78.102c42.344 0 76.802-35.042 76.802-78.102 0-43.058-34.458-78.102-76.802-78.102zM580.266 126.916c-9.418 0-17.066 7.778-17.066 17.356 0 9.58 7.648 17.358 17.066 17.358 9.426 0 17.066-7.778 17.066-17.358 0-9.578-7.64-17.356-17.066-17.356zM614.398 74.85c-9.42 0-17.066 7.776-17.066 17.356s7.646 17.358 17.066 17.358c9.424 0 17.064-7.778 17.064-17.358s-7.64-17.356-17.064-17.356zM648.538 126.916c-9.426 0-17.072 7.778-17.072 17.356 0 9.58 7.646 17.358 17.072 17.358 9.42 0 17.066-7.778 17.066-17.358 0-9.578-7.648-17.356-17.066-17.356zM682.67 74.85c-9.426 0-17.066 7.776-17.066 17.356s7.64 17.358 17.066 17.358c9.418 0 17.066-7.778 17.066-17.358s-7.648-17.356-17.066-17.356zM716.802 126.916c-9.428 0-17.066 7.778-17.066 17.356 0 9.58 7.64 17.358 17.066 17.358 9.416 0 17.062-7.778 17.062-17.358 0.004-9.578-7.646-17.356-17.062-17.356zM750.934 74.85c-9.418 0-17.066 7.776-17.066 17.356s7.648 17.358 17.066 17.358 17.066-7.778 17.066-17.358-7.648-17.356-17.066-17.356zM785.066 126.916c-9.418 0-17.066 7.778-17.066 17.356 0 9.58 7.648 17.358 17.066 17.358s17.066-7.778 17.066-17.358c0-9.578-7.648-17.356-17.066-17.356zM819.198 74.85c-9.416 0-17.062 7.776-17.062 17.356s7.646 17.358 17.062 17.358c9.428 0 17.066-7.778 17.066-17.358s-7.64-17.356-17.066-17.356zM853.33 126.916c-9.418 0-17.066 7.778-17.066 17.356 0 9.58 7.648 17.358 17.066 17.358 9.428 0 17.066-7.778 17.066-17.358 0-9.578-7.638-17.356-17.066-17.356zM887.462 74.85c-9.42 0-17.066 7.776-17.066 17.356s7.648 17.358 17.066 17.358c9.426 0 17.072-7.778 17.072-17.358 0.004-9.582-7.646-17.356-17.072-17.356z" />
<glyph unicode="&#xe96a;" glyph-name="shipment" d="M514.21 958.082l-510.808-253.228-0.698-513.094 510.152-254.23 510.79 253.232 0.688 513.082-510.124 254.238zM908.804 676.162l-113.53-47.068-406.692 184.686 123.576 60.932 396.646-198.55zM812.006 511.44l-76.288-30.646v33.812l75.272 31.208 1.016-34.374zM513.546 512.292l-398.932 166.4 173.136 85.37 385.654-185.494-159.858-66.276zM700.666 589.87l-387.852 186.55 50.258 24.782 404.392-183.636-66.798-27.696zM81.556 602.64l382.876-159.704-0.474-383.734-381.216 183.008-1.186 360.43zM569.968 57.678l0.462 388.402 143.286 59.404v-57.238l120.73 48.5-1.714 58.080 117.49 48.71-0.54-366.218-379.714-179.64zM401.942 308.868l-136.968 56.132v-138.072l137.318-66.264z" />
<glyph unicode="&#xe96b;" glyph-name="sort-alphabet-asc" d="M742.48 960h102.332l153.134-432.826h-98.076l-48.56 128.972h-119.392l-49.342-128.972h-94.608l154.512 432.826zM756.516 730.728h70.862l-34.676 130.312-36.186-130.312zM403.292 168.364h-104.118v770.568c0 11.638-9.426 21.068-21.040 21.068h-129.952c-11.61 0-21.036-9.428-21.036-21.068v-770.568h-104.1c-8.114 0-15.486-4.672-18.98-11.972-3.5-7.322-2.498-15.982 2.566-22.298l190.128-188.042c4.002-4.988 10.026-7.866 16.402-7.866 6.372 0 12.39 2.876 16.388 7.866l190.13 188.038c5.070 6.322 6.076 14.98 2.574 22.302-3.492 7.3-10.852 11.972-18.962 11.972zM628.256 277.376v92.306h336.826v-94.296l-208.992-246.282h216.418v-93.104h-359.102v88.33l211.13 253.044h-196.28zM564 583h160v-55.826h-160v55.826zM862 583h160v-55.826h-160v55.826zM612.086 369.68h81.916v-160h-81.916v160zM890.594 96h81.916v-160h-81.916v160z" />
<glyph unicode="&#xe96c;" glyph-name="sort-alphabet-desc" d="M401.292 168.364h-104.118v770.568c0 11.638-9.426 21.068-21.040 21.068h-129.952c-11.61 0-21.036-9.428-21.036-21.068v-770.568h-104.1c-8.114 0-15.486-4.672-18.98-11.972-3.5-7.322-2.498-15.982 2.566-22.298l190.128-188.042c4.002-4.988 10.026-7.866 16.402-7.866 6.372 0 12.39 2.876 16.388 7.866l190.13 188.038c5.070 6.322 6.076 14.98 2.574 22.302-3.492 7.3-10.85 11.972-18.962 11.972zM742.48 368.826h102.332l153.138-432.826h-98.078l-48.558 128.97h-119.394l-49.342-128.97h-94.61l154.512 432.826zM756.516 139.554h70.864l-34.676 130.312-36.188-130.312zM564-8.174h160v-55.826h-160v55.826zM862-8.174h160v-55.826h-160v55.826zM628.258 867.694v92.306h336.824v-94.296l-208.992-246.282h216.418v-93.104h-359.102v88.33l211.134 253.046h-196.282zM612.086 959.998h81.918v-160h-81.918v160zM890.594 686.318h81.918v-160h-81.918v160z" />
<glyph unicode="&#xe96d;" glyph-name="sort-date-asc" d="M494.082 815.6v-5.364c0.396-17.992 2.248-30.642 5.556-37.956 3.31-7.312 10.404-10.966 21.272-10.966 10.772 0 17.89 3.998 21.35 11.996 2.072 4.734 3.112 12.728 3.112 23.988v162.702h48.606v-161.916c0-19.784-3.344-35.458-10.034-47.030-11.312-19.568-31.732-29.354-61.262-29.354-29.528 0-49.33 7.916-59.41 23.75s-15.12 37.428-15.12 64.784v5.366h45.93zM678.896 960h54.998l82.3-232.618h-52.71l-15.348 47.818h-85.666l-15.77-47.816h-50.846l83.042 232.616zM675.69 815.282h59.582l-29.382 91.534-30.2-91.534zM835.406 960h50.958l92.344-162.2v162.2h45.292v-232.618h-48.602l-94.692 165.052v-165.052h-45.3v232.618zM577.254 181.328c15.458-5.73 27.976-16.236 37.554-31.52 7.676-12.366 12.912-25.736 15.708-40.122 2.792-14.384 4.19-28.096 4.19-41.13 0-33.042-5.884-61.022-17.652-83.948-15.96-30.908-40.592-46.358-73.904-46.358h-94.996v248.474h94.996c13.66-0.226 25.028-2.020 34.104-5.396zM492.844 143.57v-162.166h42.518c21.762 0 36.93 12.082 45.512 36.242 4.692 13.262 7.040 29.050 7.040 47.37 0 25.288-3.522 44.698-10.552 58.242-7.034 13.542-21.034 20.312-41.998 20.312h-42.52zM813.798 142.728h-116.598v-52.764h107.030v-43.154h-107.030v-63.886h121.976v-44.672h-166.972v248.472h161.592l0.002-43.996zM857.732 157.254c17.746 19.736 40.324 29.604 67.732 29.604 36.674 0 63.482-13.228 80.44-39.684 9.368-14.86 14.394-29.768 15.086-44.732h-46.042c-2.928 11.496-6.684 20.172-11.276 26.028-8.202 10.408-20.354 15.614-36.46 15.614-16.41 0-29.34-7.348-38.814-22.042-9.468-14.694-14.204-35.484-14.204-62.378 0-26.89 4.992-47.036 14.98-60.428 9.992-13.386 22.696-20.088 38.092-20.088 15.792 0 27.83 5.748 36.122 17.244 4.576 6.184 8.382 15.458 11.404 27.812h45.746c-3.948-26.134-14.032-47.388-30.25-63.762-16.212-16.374-36.986-24.556-62.324-24.556-31.346 0-56.002 11.062-73.944 33.18-17.938 22.228-26.91 52.702-26.91 91.416 0.008 41.85 10.212 74.108 30.622 96.772zM744.234 401.198h-283.556c-6.912 0-12.526-3.836-12.526-8.618v-102.764c0-4.75 5.604-8.62 12.526-8.62h283.556c6.934 0 12.562 3.854 12.562 8.62v102.782c-0.018 4.764-5.628 8.6-12.562 8.6zM852.548 621.024h-391.87c-6.908 0-12.526-3.85-12.526-8.622v-102.744c0-4.762 5.604-8.634 12.526-8.634h391.876c6.886 0 12.502 3.864 12.502 8.634v102.752c-0.026 4.766-5.614 8.614-12.508 8.614zM403.292 168.364h-104.118v770.568c0 11.638-9.426 21.068-21.040 21.068h-129.952c-11.61 0-21.036-9.428-21.036-21.068v-770.568h-104.1c-8.114 0-15.486-4.672-18.98-11.972-3.5-7.322-2.498-15.982 2.566-22.298l190.128-188.042c4.002-4.988 10.026-7.866 16.402-7.866 6.372 0 12.39 2.876 16.388 7.866l190.13 188.038c5.070 6.322 6.076 14.98 2.574 22.302-3.492 7.3-10.852 11.972-18.962 11.972z" />
<glyph unicode="&#xe96e;" glyph-name="sort-date-desc" d="M494.082 29.898v-5.366c0.396-17.99 2.248-30.64 5.556-37.956 3.31-7.312 10.404-10.966 21.272-10.966 10.772 0 17.89 3.996 21.35 11.996 2.072 4.734 3.112 12.726 3.112 23.986v162.706h48.606v-161.916c0-19.784-3.344-35.458-10.034-47.030-11.314-19.566-31.734-29.352-61.262-29.352s-49.33 7.916-59.41 23.752c-10.080 15.832-15.12 37.426-15.12 64.782v5.366h45.93zM678.896 168.618h54.998l82.302-232.618h-52.71l-15.348 47.816h-85.666l-15.77-47.816h-50.846l83.040 232.618zM675.69 23.898h59.582l-29.382 91.536-30.2-91.536zM835.406 168.618h50.958l92.344-162.2v162.2h45.292v-232.618h-48.602l-94.692 165.052v-165.052h-45.3v232.618zM577.254 954.47c15.458-5.73 27.976-16.236 37.554-31.52 7.676-12.366 12.912-25.736 15.708-40.122 2.792-14.384 4.19-28.096 4.19-41.13 0-33.042-5.884-61.022-17.652-83.948-15.96-30.908-40.592-46.358-73.904-46.358h-94.996v248.476h94.996c13.66-0.228 25.028-2.022 34.104-5.398zM492.844 916.712v-162.166h42.518c21.762 0 36.93 12.082 45.512 36.242 4.692 13.262 7.040 29.050 7.040 47.37 0 25.288-3.522 44.698-10.552 58.242-7.034 13.542-21.034 20.312-41.998 20.312h-42.52zM813.798 915.872h-116.598v-52.764h107.030v-43.154h-107.030v-63.886h121.976v-44.672h-166.972v248.472h161.592l0.002-43.996zM857.732 930.396c17.746 19.736 40.324 29.604 67.732 29.604 36.674 0 63.482-13.228 80.44-39.684 9.368-14.86 14.394-29.768 15.086-44.732h-46.042c-2.928 11.496-6.684 20.172-11.276 26.028-8.202 10.408-20.354 15.614-36.46 15.614-16.41 0-29.34-7.348-38.814-22.042-9.468-14.694-14.204-35.484-14.204-62.378 0-26.89 4.992-47.036 14.98-60.428 9.992-13.386 22.696-20.088 38.092-20.088 15.792 0 27.83 5.748 36.122 17.244 4.576 6.184 8.382 15.458 11.404 27.812h45.746c-3.948-26.134-14.032-47.388-30.25-63.762-16.212-16.374-36.986-24.556-62.324-24.556-31.346 0-56.002 11.062-73.944 33.18-17.938 22.228-26.91 52.702-26.91 91.416 0.008 41.85 10.212 74.108 30.622 96.772zM744.234 401.198h-283.556c-6.912 0-12.526-3.836-12.526-8.618v-102.764c0-4.75 5.604-8.62 12.526-8.62h283.556c6.934 0 12.562 3.854 12.562 8.62v102.782c-0.018 4.764-5.628 8.6-12.562 8.6zM852.548 621.024h-391.87c-6.908 0-12.526-3.85-12.526-8.622v-102.744c0-4.762 5.604-8.634 12.526-8.634h391.876c6.886 0 12.502 3.864 12.502 8.634v102.752c-0.026 4.766-5.614 8.614-12.508 8.614zM403.292 168.364h-104.118v770.568c0 11.638-9.426 21.068-21.040 21.068h-129.952c-11.61 0-21.036-9.428-21.036-21.068v-770.568h-104.1c-8.114 0-15.486-4.672-18.98-11.972-3.5-7.322-2.498-15.982 2.566-22.298l190.128-188.042c4.002-4.988 10.026-7.866 16.402-7.866 6.372 0 12.39 2.876 16.388 7.866l190.13 188.038c5.070 6.322 6.076 14.98 2.574 22.302-3.492 7.3-10.852 11.972-18.962 11.972z" />
</font>
</defs>
</svg>
