<?xml version="1.0" standalone="no"?>
<!DOCTYPE svg PUBLIC "-//W3C//DTD SVG 1.1//EN" "http://www.w3.org/Graphics/SVG/1.1/DTD/svg11.dtd" >
<svg xmlns="http://www.w3.org/2000/svg">
<metadata>Generated by IcoMoon</metadata>
<defs>
<font id="kordit-fonts" horiz-adv-x="1024">
<font-face units-per-em="1024" ascent="960" descent="-64" />
<missing-glyph horiz-adv-x="1024" />
<glyph unicode="&#x20;" horiz-adv-x="512" d="" />
<glyph unicode="&#xe600;" glyph-name="404-error" d="M726.77 713.167c0-124.54-88.644-243.5-198-243.5-109.352 0-198 118.96-198 243.5s88.646 225.5 198 225.5c109.354 0 198-100.96 198-225.5zM384.77 496.667l-94-159-120.328-233.698c0 0-17.672-46.302 3.328-86.302s46-45 69-45 286 0 286 0h220c0 0 49.464-2.886 77 20 25.208 20.95 37 35 39 87 1.672 43.454-11 85-60 108-49.222 23.106-34 16-34 16l-132 266 32 25c0 0 248.212-68 246-268.558-1.582-143.394-15.988-220.564-43.038-262.486-19.064-29.542-44.406-41.58-75.962-46.956-70.642-12.032-572-2-572-2s-39.118-7.548-73.146 44.402c-23.892 36.474-45.276 102.272-48.854 220.598-8.77 290 281 317 281 317zM485.77 434.667l71-8 123-247c0 0 124-8 134-81s-69-86-116-85l-212 421z" />
<glyph unicode="&#xe601;" glyph-name="preview" d="M968.942 938.667h-914.22c-30.356 0-55.056-26.044-55.056-58.056v-907.888c0-32.012 24.7-58.056 55.056-58.056h914.218c30.362 0 55.060 26.044 55.060 58.056v907.888c0 32.014-24.702 58.056-55.058 58.056zM860.008 849.649c25.148 0 45.624-21.582 45.624-48.104 0-26.524-20.472-48.104-45.624-48.104-25.156 0-45.618 21.582-45.618 48.104s20.462 48.104 45.618 48.104zM705.308 849.649c25.156 0 45.622-21.582 45.622-48.104 0-26.524-20.46-48.104-45.622-48.104-25.154 0-45.622 21.582-45.622 48.104 0.006 26.522 20.468 48.104 45.622 48.104zM139.348 826.425h184.044c13.034 0 23.596-11.134 23.596-24.878s-10.562-24.882-23.596-24.882h-184.044c-13.034 0-23.596 11.138-23.596 24.882s10.566 24.878 23.596 24.878zM936.55 15.261c0-4.172-3.22-7.572-7.186-7.572h-835.066c-3.96 0-7.182 3.4-7.182 7.572v625.252h849.436l-0.002-625.252z" />
<glyph unicode="&#xe602;" glyph-name="staff" d="M508.812 362.553c139.35 0 252.394 128.608 252.394 287.328 0 158.812-113.046 287.53-252.394 287.528-139.344 0-252.418-128.718-252.418-287.528 0-158.72 113.074-287.328 252.418-287.328zM803.094 215.281c-40.914 82.152-104.708 131.082-166.564 131.082 0 0-25.58-33.612-131.746-29.73-106.21 3.89-117.336 29.73-117.336 29.73-102.548 0-214.762-134.398-214.762-331.954v-94.294c0-1.402 0.172-2.788 0.478-4.148h678.748v75.796c-0.002 85.494-17.288 164.322-48.818 223.518zM508.526 288.191l-0.866 0.366h1.686l-0.82-0.366 27.51-11.632-15.242-26.268h-23.026l-14.592 26.592 25.35 11.308zM389.024 327.267l93.352-26-98.974-52 5.622 78zM508.834-3.533l-50.768 61.084 37.092 180.446h29.896l34.878-185.364-51.098-56.166zM538.202 299.267l93.352 26 5.624-78-98.976 52z" />
<glyph unicode="&#xe603;" glyph-name="institutions" d="M118.454 488.147h113.836v-398.432h-113.836v398.432zM346.124 488.147h113.836v-398.432h-113.836v398.432zM573.798 488.147h113.836v-398.432h-113.836v398.432zM801.47 488.147h113.836v-398.432h-113.836v398.432zM972.226 512.147c0-13.254-10.746-24-24-24h-868.226c-13.254 0-24 10.746-24 24v8.916c0 13.254 10.746 24 24 24h868.226c13.254 0 24-10.746 24-24v-8.916zM972.992 100.717c0-13.254-10.746-24-24-24h-868.226c-13.254 0-24 10.746-24 24v8.916c0 13.256 10.746 24 24 24h868.226c13.254 0 24-10.744 24-24v-8.916zM1020.98 6.717c0-13.254-11.928-24-26.64-24h-963.7c-14.712 0-26.64 10.746-26.64 24v8.916c0 13.256 11.928 24 26.64 24h963.7c14.712 0 26.64-10.744 26.64-24v-8.916zM18.666 580.743c-14.108 14.11-14.238 42.852-0.292 56.796l467.866 244.088c13.946 13.946 36.688 13.814 50.796-0.292l473.28-249.502c14.106-14.11 14.236-36.852 0.292-50.796z" />
<glyph unicode="&#xe604;" glyph-name="students" d="M507.164 520.405l-446.89 178.908 446.89 237.354 446.812-237.354zM953.976 699.313l-17.39-114.018h-25.574l-12.072 91.984zM908.062 596.159c0 0-14.882-2.826-19.968-23.56-5.108-20.73 6.682-28.856 6.682-28.856s-10.582-35.128-19.142-68.666c-8.576-33.544 9.77-79.34 25.064-86.67 15.298-7.34 63.030 14.796 63.030 14.796-50.946 20.538-42.922 128.15-42.922 128.15s5.804-0.352 12.67 4.44c6.87 4.782 13.056 6.24 17.512 23.894 4.464 17.632-13.098 30.344-13.098 30.344s2.708 25.496 2.482 44.884c-0.222 19.372-8.964 46.382-8.964 46.382zM733.178 530.097c0-139.438-99.32-252.424-221.746-252.424-122.414 0-221.75 112.986-221.75 252.424 0 139.518 99.34 252.604 221.75 252.604 122.426-0.004 221.746-113.086 221.746-252.604zM783-85.333v87.226c0 75.212-19.214 144.256-54.104 194.408-27.792 39.95-62.744 64.118-97.048 67.478-15.138-9.754-46.46-22.274-107.41-22.274-5.65 0-11.536 0.108-17.478 0.328-53.868 1.968-90.966 9.316-110.812 21.888-34.26-3.622-70.542-28.342-98.634-67.676-35.974-50.374-55.788-119.324-55.788-194.154v-87.224h541.274z" />
<glyph unicode="&#xe605;" glyph-name="dashboard_icon" d="M845.628 641.075c-89.696 76.926-206.1 123.714-333.702 123.714-283.396 0-513.146-229.75-513.146-513.29 0-7.598 0.744-78.552 1.086-86.124v-76.842h1023.266v71.242l0.97 5.6c0.312 7.6 1.116 78.528 1.116 86.124 0.028 251.606-179.59 389.576-179.59 389.576zM123.612 165.375c-0.428 4.686 0.172 72.814-0.142 77.498h105.264v33.994h-97.868c0 0.398-7.398-0.060-7.398-0.060 4.142 88.126 37.706 176.050 101.092 245.378l2.658 2.856 4.742-4.114 70.040-70.098 21.996 22.052-74.412 74.356c67.356 61.586 152.826 96.922 244.004 100.978l5.284 0.028c0 0 2.2 0.088 2.056-1.312v-103.806h28.022v105.092c13.826-0.572 27.652-2.2 41.28-4.342 78.294-10.34 151.078-44.132 210.012-97.98l-74.27-74.326 20.652-20.738 71.326 71.358 3.942 3.17 3.372-4.458c61.67-67.414 96.952-152.824 101.092-244.032h-105.146v-33.994l105.632 0.14c0 0 0.088-73.154-0.288-77.384l-782.942-0.256zM650.070 410.639c0 0-166.936-51.19-198.9-83.098-32.024-32.048-32.024-83.84 0.056-115.888 31.908-32.024 83.752-32.024 115.804 0 31.936 32.050 83.040 198.986 83.040 198.986z" />
<glyph unicode="&#xe606;" glyph-name="upload-download" d="M844.798 367.243v-254.572h-665.596v254.572h-179.202v-452.576h1024v452.576zM289.688 486.953h161.582v218.21h129.426l-211.33 233.504-211.296-233.504h131.618zM686.312 632.523h-161.58v-218.21h-129.426l211.33-233.504 211.296 233.504h-131.62z" />
<glyph unicode="&#xe607;" glyph-name="export" d="M452.576 93.869h-254.572v665.598h254.572v179.2h-452.576v-1024h452.576zM379.896 551.539v-230.402h211.146v-184.548l432.958 301.338-432.958 301.286v-187.674z" />
<glyph unicode="&#xe608;" glyph-name="import" d="M571.424 759.465h254.572v-665.598h-254.572v-179.2h452.576v1024h-452.576zM0.002 551.539v-230.402h211.148v-184.548l432.956 301.338-432.956 301.286v-187.674z" />
<glyph unicode="&#xe609;" glyph-name="download" d="M844.798 367.243v-254.572h-665.598v254.572h-179.2v-452.576h1024v452.576zM636.874 938.667h-230.402v-311.148h-184.548l301.338-332.956 301.286 332.956h-187.674z" />
<glyph unicode="&#xe60a;" glyph-name="upload" d="M844.798 367.243v-254.572h-665.598v254.572h-179.2v-452.576h1024v452.576zM409.6 294.563h230.4v311.148h184.548l-301.338 332.956-301.286-332.956h187.676z" />
<glyph unicode="&#xe60b;" glyph-name="text" d="M899.038 629.941c-0.434-7.18-1.402-12.144-2.714-14.58-1.404-2.622-5.49-4.524-12.236-5.712-14.636-3.248-24.376 2.31-29.184 16.638-17.014 52.754-37.276 87.78-60.686 105.322-32.496 24.132-89.344 36.242-170.724 36.242-32.896 0-50.974-3.59-54.124-10.708-1.126-2.34-1.782-5.744-1.782-10.112v-593.078c0-25.348 5.87-43.172 17.824-53.346 11.926-9.992 33.372-22.822 68.708-31.188 15.074-3.214 30.278-6.246 32.278-7.46 14.36 0 15.732-32.996-11.738-32.996-0.78-0.498-323.868 0.248-323.868 0.248s-22.57 13.706-2.31 31.934c8.46 3.78 23.942 10.708 23.942 10.708s57.126 19.166 69.018 31.496c13.548 13.892 20.23 36.338 20.23 67.24v576.474c0 11.52-7.148 18.262-21.446 20.196-1.53 0.47-13.268 0.624-35.026 0.624-75.388 0-130.828-13.050-166.632-39.3-26.97-19.416-50.852-55.066-71.89-107.134-6.774-16.23-16.138-21.506-28.002-16.014-13.486 3.154-18.386 10.584-14.89 22.008 13.89 42.892 20.852 103.326 20.852 181.49 0 9.116 12.082 18.294 36.306 16.638l666.964-1.81c22.13 3.246 34.214-0.374 36.21-10.708 11.112-52.724 16.044-113.782 14.92-183.112z" />
<glyph unicode="&#xe60c;" glyph-name="resolution" d="M1023.966-6.541v-39.416c0-21.76-17.61-39.418-39.388-39.418h-39.394c-21.746 0-39.384 17.622-39.384 39.418 0 21.794 17.598 39.416 39.384 39.416 0 21.754 17.612 39.418 39.394 39.418 21.78-0.002 39.388-17.622 39.388-39.418zM984.578 507.223c-21.742 0-39.394-17.618-39.394-39.374v-81.948c0-21.758 17.612-39.376 39.394-39.376 21.78 0 39.388 17.576 39.388 39.336v81.946c0 21.758-17.608 39.416-39.388 39.416zM984.578 744.377c-21.742 0-39.394-17.66-39.394-39.416v-81.946c0-21.756 17.612-39.416 39.394-39.416 21.78 0 39.388 17.7 39.388 39.458v81.946c0 21.754-17.608 39.374-39.388 39.374zM984.578 270.069c-21.742 0-39.394-17.622-39.394-39.416v-81.948c0-21.758 17.612-39.42 39.394-39.42 21.78 0 39.388 17.624 39.388 39.42v81.948c0 21.796-17.608 39.416-39.388 39.416zM984.578 939.001h-39.394c-21.746 0-39.384-17.66-39.384-39.416s17.598-39.416 39.384-39.416c0-21.756 17.612-39.416 39.394-39.416 21.78 0 39.388 17.7 39.388 39.458v39.372c0 21.758-17.608 39.418-39.388 39.418zM708.184 860.209h81.894c21.748 0 39.384 17.66 39.384 39.416s-17.598 39.376-39.384 39.376h-81.894c-21.744 0-39.382-17.66-39.382-39.416-0.002-21.756 17.638-39.376 39.382-39.376zM234.148 860.209h81.894c21.74 0 39.386 17.66 39.386 39.416s-17.648 39.376-39.346 39.376h-81.894c-21.786 0-39.392-17.66-39.392-39.416s17.606-39.376 39.352-39.376zM471.186 860.209h81.896c21.744 0 39.346 17.66 39.346 39.416s-17.602 39.376-39.346 39.376h-81.896c-21.74 0-39.352-17.66-39.352-39.416s17.612-39.376 39.352-39.376zM39.692 820.793c21.74 0 39.394 17.658 39.394 39.416 21.74 0 39.386 17.66 39.386 39.416s-17.69 39.376-39.428 39.376h-39.352c-21.744 0-39.392-17.66-39.392-39.418v-39.416c0-21.716 17.648-39.374 39.392-39.374zM39.692 583.639c21.74 0 39.394 17.658 39.394 39.416v81.946c0 21.756-17.654 39.416-39.394 39.416-21.744 0-39.392-17.66-39.392-39.416v-81.946c0-21.758 17.648-39.416 39.392-39.416zM790.078-6.541h-81.894c-21.744 0-39.382-17.622-39.382-39.416 0-21.796 17.596-39.418 39.382-39.418h81.894c21.748 0 39.384 17.622 39.384 39.418 0 21.794-17.596 39.416-39.384 39.416zM846.956 779.001l-243.638-30.446c-10.77-1.31-13.262-8.726-5.64-16.346l83.444-83.504-261.036-261.246h-341.042v80.348c0 21.756-17.654 39.374-39.392 39.374-21.746 0-39.352-17.618-39.352-39.374v-81.948c0-7.008 2.296-13.234 5.488-18.892-3.192-5.692-5.488-11.916-5.488-18.928v-393.998c0-21.76 17.648-39.418 39.392-39.418h393.746c7.002 0 13.222 2.292 18.912 5.49 5.616-3.154 11.876-5.448 18.838-5.448h81.896c21.744 0 39.346 17.616 39.346 39.416 0 21.796-17.602 39.414-39.346 39.414h-80.34v341.148l261.082 261.286 83.362-83.42c7.704-7.664 15.026-5.122 16.384 5.656l30.422 243.792c1.424 10.65-6.304 18.396-17.038 17.044z" />
<glyph unicode="&#xe60d;" glyph-name="html" d="M961.418 938.667h-898.77c-34.664 0-62.648-28.050-62.648-62.648v-898.636c0-34.732 28.050-62.716 62.648-62.716h898.704c34.664 0 62.648 28.052 62.648 62.714v898.638c0.066 34.598-27.984 62.648-62.582 62.648zM298.076 309.053h-53.030v98.31h-87.628v-98.31h-53.362v235.162h53.364v-90.434h87.628v90.434h53.030v-235.162zM507.592 499.601h-64.184v-190.546h-53.43v190.546h-63.182v44.616h180.796v-44.616zM736.942 309.053l-3.47 89.964c-1.066 28.316-2.070 62.512-2.070 96.642h-1c-7.346-29.99-17.166-63.516-26.252-91.034l-28.652-91.834h-41.472l-25.182 91.102c-7.678 27.582-15.694 61.11-21.238 91.766h-0.734c-1.402-31.724-2.4-68.058-4.208-97.31l-4.208-89.296h-49.222l15.026 235.162h70.93l23.042-78.544c7.282-27.182 14.696-56.504 19.904-84.088h1.070c6.676 27.25 14.694 58.308 22.304 84.488l25.18 78.144h69.458l12.892-235.162h-52.098zM976.848 309.053h-146.936v235.162h53.432v-190.618h93.504v-44.544z" />
<glyph unicode="&#xe60e;" glyph-name="audio" d="M901.582 261.017v509.040c0 30.158-24.442 54.606-54.606 54.606h-449.006c-30.158 0-54.606-24.448-54.606-54.606v-450.546c-23.084 6.954-48.37 9.33-74.39 6.044-90.658-11.438-155.792-86.928-145.484-168.612 10.308-81.68 92.152-138.62 182.81-127.178 87.404 11.030 146.278 81.132 146.278 159.844v525.84h339.794v-320.634c-23.136 6.988-48.468 9.386-74.558 6.092-90.656-11.438-155.79-86.926-145.48-168.61 10.308-81.68 92.148-138.62 182.808-127.182 85.932 10.848 146.44 78.958 146.44 155.902z" />
<glyph unicode="&#xe60f;" glyph-name="iframe" d="M364.546 262.393l-232.602 128.65v71.256l232.602 127.922v-83.692l-162.080-78.966 162.082-81.944-0.002-83.226zM404.28 217.373l154.252 417.904h48.734l-154.612-417.904h-48.374zM659.452 262.393v83.228l162.050 81.28-162.050 80.654v82.7l232.604-128.088v-70.828l-232.604-128.946zM1000 825.283h-976c-13.254 0-24-8.37-24-18.702v-760.518c0-10.326 10.746-18.698 24-18.698h976c13.25 0 24 8.372 24 18.698v760.518c0 10.332-10.75 18.702-24 18.702zM983.79 82.243c0-9.344-9.906-16.918-22.116-16.918h-899.348c-12.214 0-22.116 7.574-22.116 16.918v688.158c0 9.35 9.902 16.924 22.116 16.924h899.348c12.208 0 22.116-7.574 22.116-16.924v-688.158z" />
<glyph unicode="&#xe610;" glyph-name="video" d="M0.25 824.949v-796.13h1023.602v796.13h-1023.602zM566.604 752.409h121.272v-83.864h-121.272v83.864zM336.228 752.409h121.278v-83.864h-121.278v83.864zM227.136 101.375h-121.286v83.874h121.286v-83.874zM227.136 668.545h-121.286v83.864h121.286v-83.864zM457.5 101.375h-121.276v83.874h121.276v-83.874zM687.876 101.375h-121.272v83.874h121.272v-83.874zM512.050 279.827c-100.436 0-181.856 65.848-181.856 147.046 0 81.238 81.418 147.094 181.856 147.094 100.45 0 181.862-65.856 181.862-147.094-0.004-81.202-81.412-147.046-181.862-147.046zM918.262 101.375h-121.292v83.874h121.292v-83.874zM918.262 668.545h-121.292v83.864h121.292v-83.864zM470.556 510.815v-167.824l134.020 83.884z" />
<glyph unicode="&#xe611;" glyph-name="image" d="M958.86 825.165h-893.618c-35.892 0-64.992-29.098-64.992-64.988v-666.156c0-35.89 29.1-64.986 64.992-64.986h893.618c35.89 0 64.992 29.096 64.992 64.988v666.154c0 35.89-29.102 64.988-64.992 64.988zM958.86 760.177v-472.66l-128.082 116.448c-19.25 17.498-48.856 16.798-67.25-1.612l-129.622-129.604-255.59 305.292c-19.32 23.072-54.708 23.298-74.316 0.504l-238.758-277.478v459.11h893.618zM682.652 589.575c0 49.362 39.996 89.364 89.36 89.364 49.36 0 89.36-40.002 89.36-89.364s-39.996-89.36-89.36-89.36c-49.364-0.002-89.36 39.998-89.36 89.36z" />
<glyph unicode="&#xe612;" glyph-name="y-axis" d="M854.698-82.423l162.526 113.292c6.376 5.44 6.376 14.336 0 19.78l-162.522 113.29c-6.376 5.438-11.586 3.042-11.586-5.34v-47.394c0-8.376-6.856-15.228-15.232-15.228l-49.758-0.076-692.928 0.022c-8.38-0.004-15.2-7.072-15.2-15.446v-79.964c0-8.376 6.856-15.234 15.23-15.234l742.656 0.272c8.376 0 15.228-6.854 15.228-15.23v-47.39c0.004-8.386 5.214-10.792 11.586-5.354z" />
<glyph unicode="&#xe613;" glyph-name="x-axis" d="M249.274 771.365l-113.292 162.522c-5.44 6.374-14.338 6.374-19.78 0l-113.288-162.518c-5.438-6.374-3.038-11.586 5.34-11.586h47.394c8.376 0 15.23-6.854 15.23-15.234l0.076-49.76v-692.64l-0.020-0.284c0.002-8.378 7.072-15.2 15.446-15.2h79.964c8.378 0 15.232 6.856 15.232 15.23l-0.268 742.654c0 8.378 6.852 15.232 15.23 15.232h47.39c8.376 0 10.78 5.214 5.346 11.584z" />
<glyph unicode="&#xe614;" glyph-name="redo" d="M3 426.671c0-69.324 13.48-135.554 40.462-198.67 26.982-63.11 63.246-117.548 108.804-163.332 45.564-45.772 99.734-82.228 162.544-109.332s128.706-40.67 197.708-40.67c76.074 0 148.398 16.122 216.954 48.34 68.556 32.212 126.936 77.66 175.152 136.33 3.094 4.44 4.536 9.436 4.316 15.002-0.222 5.544-2.102 10.1-5.636 13.672l-90.894 92.006c-4.42 3.996-9.952 5.994-16.588 5.994-7.078-0.894-12.168-3.568-15.26-8.012-32.29-42.238-71.876-74.904-118.756-98.008-46.888-23.104-96.646-34.664-149.284-34.664-45.996 0-89.9 9.004-131.7 27.002-41.792 17.996-77.948 42.336-108.468 73.004-30.524 30.668-54.742 66.996-72.656 109-17.904 42-26.864 86.104-26.864 132.332 0 46.232 8.962 90.338 26.864 132.336 17.914 42.006 42.132 78.338 72.656 109 30.522 30.668 66.664 55.002 108.468 73.006 41.8 17.992 85.706 27 131.7 27 43.348 0 84.92-7.894 124.732-23.674 39.806-15.78 75.186-38.334 106.156-67.67l-90.894-91.996c-13.714-13.34-16.808-28.668-9.292-46.004 7.52-17.778 20.566-26.668 39.146-26.668h297.232c11.496 0 21.45 4.224 29.86 12.67 8.406 8.442 12.61 18.444 12.61 29.998v298.674c0 18.664-8.848 31.78-26.542 39.346-17.258 7.55-32.51 4.442-45.782-9.336l-86.26-86.014c-47.328 44.894-101.4 79.67-162.212 104.338-60.828 24.672-123.742 36.996-188.758 36.996-69.002 0-134.896-13.548-197.706-40.666s-116.994-63.558-162.558-109.334c-45.548-45.77-81.818-100.218-108.796-163.336-26.974-63.116-40.458-129.312-40.458-198.66z" />
<glyph unicode="&#xe615;" glyph-name="undo" d="M981.614 625.331c-26.98 63.118-63.248 117.566-108.798 163.336-45.564 45.776-99.748 82.216-162.558 109.334s-128.704 40.666-197.706 40.666c-65.014 0-127.928-12.324-188.756-36.996-60.812-24.668-114.884-59.444-162.212-104.338l-86.26 86.014c-13.272 13.78-28.524 16.888-45.782 9.336-17.696-7.564-26.542-20.682-26.542-39.346v-298.674c0-11.552 4.204-21.554 12.608-29.998 8.41-8.448 18.364-12.67 29.862-12.67h297.232c18.582 0 31.626 8.89 39.146 26.668 7.516 17.334 4.422 32.664-9.292 46.004l-90.896 91.998c30.972 29.336 66.35 51.892 106.158 67.67 39.81 15.78 81.382 23.674 124.73 23.674 45.996 0 89.9-9.008 131.7-27 41.804-18.004 77.948-42.338 108.468-73.006 30.524-30.662 54.742-66.994 72.656-109 17.9-42 26.864-86.104 26.864-132.336 0-46.228-8.958-90.332-26.864-132.332-17.914-42.004-42.132-78.332-72.656-109-30.522-30.668-66.678-55.008-108.468-73.004-41.8-17.998-85.706-27.002-131.7-27.002-52.636 0-102.396 11.56-149.284 34.664-46.88 23.104-86.466 55.77-118.756 98.008-3.092 4.444-8.182 7.118-15.26 8.012-6.636 0-12.168-1.998-16.588-5.994l-90.894-92.006c-3.534-3.572-5.414-8.126-5.636-13.672-0.218-5.566 1.224-10.562 4.318-15.002 48.216-58.67 106.596-104.118 175.152-136.33 68.556-32.218 140.88-48.34 216.954-48.34 69.002 0 134.896 13.566 197.706 40.67s116.98 63.56 162.544 109.332c45.558 45.784 81.822 100.222 108.804 163.332 26.982 63.118 40.462 129.348 40.462 198.67 0 69.346-13.484 135.542-40.456 198.658z" />
<glyph unicode="&#xe616;" glyph-name="save" d="M831.188 939.667h-63.938v-416.406h-511.5v416.406h-255.75v-1025h1023v832.812l-191.812 192.188zM895.124-21.271h-767.248v448.438h767.25v-448.438zM191.812 363.105h639.376v-64.062h-639.376v64.062zM191.812 234.979h639.376v-64.062h-639.376v64.062zM191.812 106.855h639.376v-64.062h-639.376v64.062zM575.438 875.605h127.876v-288.282h-127.876v288.282z" />
<glyph unicode="&#xe617;" glyph-name="label" d="M705.732 502.461l-30.126 29.168c-0.852-6.372-3.586-13.16-8.196-20.378-4.616-7.224-9.74-14.5-15.386-21.842-5.638-7.35-11.224-14.868-16.748-22.548-5.526-7.69-9.734-15.296-12.632-22.824-2.902-7.534-3.858-15.036-2.862-22.51 0.988-7.478 5.178-14.792 12.562-21.94 4.85-4.694 9.906-7.682 15.182-8.964 5.27-1.29 10.472-1.376 15.608-0.28 5.132 1.098 10.198 3.274 15.196 6.524 4.996 3.252 9.75 7.18 14.282 11.792 9.504 9.672 16.326 19.25 20.462 28.726s6.33 18.362 6.592 26.65c0.256 8.284-0.96 15.76-3.654 22.412-2.696 6.652-6.126 11.994-10.28 16.014zM1009.28 925.223c-6.084 5.912-14.458 8.904-22.936 8.178l-383.946-32.68c-6.958-0.59-13.488-3.636-18.374-8.594l-568.036-575.488c-11.296-11.446-11.108-29.8 0.42-41.010l359.672-348.202c11.53-11.2 30.026-11.016 41.324 0.424l567.244 574.692c4.894 4.956 7.838 11.484 8.284 18.414l25.052 381.672c0.55 8.424-2.618 16.678-8.704 22.594zM605.228 275.513l-101.298 45.486-102.524-104.33 47.66-100.068-32.93-33.51-154.090 336.578 35.646 36.276 343.182-144.158-35.646-36.274zM798.486 464.575c-7.468-7.6-15.558-11.566-24.26-11.904-8.706-0.338-17.93 4.212-27.676 13.646 1.822-17.498-0.378-33.674-6.612-48.538-6.236-14.864-15.458-28.516-27.682-40.954-7.924-8.064-16.376-14.816-25.358-20.278-8.986-5.458-18.052-8.93-27.204-10.404-9.15-1.484-18.438-0.69-27.876 2.38-9.434 3.064-18.678 8.98-27.724 17.74-10.206 9.878-16.86 19.694-19.962 29.438-3.098 9.74-3.91 19.396-2.424 28.974 1.488 9.568 4.748 18.998 9.79 28.274s10.602 18.388 16.676 27.334c6.298 9.628 12.61 18.468 18.922 26.512 6.32 8.040 11.444 15.55 15.364 22.542 3.926 6.986 6.020 13.488 6.29 19.526 0.266 6.030-2.382 11.744-7.952 17.134-6.49 6.284-12.898 10.128-19.222 11.532-6.318 1.398-12.392 1.21-18.214-0.568s-11.404-4.696-16.736-8.74c-5.336-4.048-10.27-8.376-14.792-12.98-12.222-12.436-20.024-25.106-23.42-37.998-3.388-12.896 1.186-26.088 13.728-39.582l-28.856-29.364c-10.684 11.24-17.814 22.64-21.4 34.198-3.582 11.558-4.354 23.090-2.318 34.606 2.036 11.51 6.36 22.712 12.988 33.604 6.622 10.884 14.914 21.396 24.876 31.534 7.918 8.058 16.368 15.5 25.332 22.326 8.966 6.822 18.408 11.724 28.336 14.7 9.922 2.97 20.048 3.278 30.382 0.92 10.326-2.36 20.702-8.582 31.114-18.662l92.372-89.424c6.95-6.728 12.43-11.254 16.464-13.584 4.032-2.332 8.308-1.198 12.84 3.412 2.486 2.532 4.97 5.976 7.434 10.33l22.968-22.234c-1.97-7.98-7.362-16.466-16.188-25.448zM866.83 704.339c-20.952-21.216-55.266-21.57-76.64-0.784-21.374 20.788-21.716 54.842-0.772 76.064 20.94 21.222 55.258 21.574 76.634 0.788 21.374-20.786 21.72-54.84 0.778-76.068zM465.908 337.585l-156.28 71.076-0.678-0.692 74.802-153.986z" />
<glyph unicode="&#xe618;" glyph-name="series" d="M383-85.333h256v1024h-256v-1024zM-1-85.333h256v512h-256v-512zM766.998 618.667v-704h256v704h-256z" />
<glyph unicode="&#xe619;" glyph-name="legend" d="M99.434 657.615c-54.754 0-99.13-44.376-99.13-99.128 0-54.75 44.376-99.128 99.13-99.128 54.752 0 99.128 44.378 99.128 99.128 0 54.752-44.378 99.128-99.128 99.128zM99.434 381.271c-54.754 0-99.13-44.376-99.13-99.128s44.376-99.126 99.13-99.126c54.752 0 99.128 44.376 99.128 99.126s-44.378 99.128-99.128 99.128zM99.434 112.927c-54.754 0-99.13-44.376-99.13-99.128s44.376-99.132 99.13-99.132c54.752 0 99.128 44.376 99.128 99.13s-44.378 99.13-99.128 99.13zM330.732 492.401h627.816c36.512 0 66.086 29.574 66.086 66.086s-29.574 66.086-66.086 66.086h-627.816c-36.512 0-66.086-29.574-66.086-66.086s29.574-66.086 66.086-66.086zM958.55 348.227h-627.818c-36.512 0-66.086-29.572-66.086-66.086 0-36.512 29.574-66.086 66.086-66.086h627.816c36.512 0 66.086 29.574 66.086 66.086 0.002 36.514-29.572 66.086-66.084 66.086zM958.55 79.883h-627.818c-36.512 0-66.086-29.574-66.086-66.084 0-36.514 29.574-66.084 66.086-66.084h627.816c36.512 0 66.086 29.57 66.086 66.084 0 36.51-29.572 66.084-66.084 66.084zM99.434 938.667c-54.754 0-99.13-44.376-99.13-99.128 0-54.75 44.376-99.128 99.13-99.128 54.752 0 99.128 44.376 99.128 99.128s-44.378 99.128-99.128 99.128zM330.732 773.455h627.816c36.512 0 66.086 29.572 66.086 66.084s-29.574 66.086-66.086 66.086h-627.816c-36.512 0-66.086-29.574-66.086-66.086s29.574-66.084 66.086-66.084z" />
<glyph unicode="&#xe61a;" glyph-name="grid2" d="M0 938.667v-1024h1024v1024h-1024zM958.016 296.651h-254.016v258.016h254.016v-258.016zM640 296.651h-256v258.016h256v-258.016zM640 234.667v-256h-256v256h256zM64 554.667h256v-257.984h-256v257.984zM384 618.667v253.984h256v-253.984h-256zM320 872.651v-253.984h-256v253.984h256zM64 234.667h256v-256h-256v256zM704-21.333v256h254.016v-256h-254.016zM958.016 618.667h-254.016v253.984h254.016v-253.984z" />
<glyph unicode="&#xe61b;" glyph-name="axis" d="M249.274 771.365l-113.292 162.522c-5.44 6.374-14.338 6.374-19.78 0l-113.288-162.518c-5.438-6.374-3.038-11.586 5.34-11.586h47.394c8.376 0 15.23-6.854 15.23-15.234l0.076-49.76v-692.64l-0.020-0.282c0.002-8.38 7.072-15.2 15.446-15.2h79.964c8.378 0 15.232 6.856 15.232 15.23l-0.268 742.652c0 8.378 6.852 15.232 15.23 15.232h47.39c8.376 0 10.78 5.214 5.346 11.584zM854.698-82.423l162.524 113.292c6.376 5.438 6.376 14.336 0 19.778l-162.52 113.29c-6.376 5.438-11.586 3.040-11.586-5.34v-47.394c0-8.376-6.856-15.23-15.234-15.23l-49.758-0.076-692.926 0.022c-8.38-0.004-15.2-7.072-15.2-15.446v-79.964c0-8.378 6.856-15.234 15.23-15.234l742.654 0.27c8.376 0 15.23-6.852 15.23-15.23v-47.39c0.004-8.38 5.214-10.786 11.586-5.348z" />
<glyph unicode="&#xe61c;" glyph-name="customize" d="M939.036 809.739v96.794c0 17.74-13.972 32.134-31.196 32.134h-831.928c-17.212 0-31.198-14.394-31.198-32.134v-96.408h-13.848c-17.238 0-31.2-14.392-31.2-32.134 0-17.74 13.962-32.138 31.2-32.138h13.848v-96.408c0-17.74 13.986-32.136 31.198-32.136h831.928c17.224 0 31.196 14.392 31.196 32.136v95.674c13.59-1.84 24.252-13.37 24.252-27.87v-149.882c0-15.768-12.432-28.602-27.748-28.602h-131.168l-218.942 3.558h-45.008c-49.726 0-90.166-41.646-90.166-92.872v-64.234h-25.998c-17.234 0-31.196-14.39-31.196-32.132v-407.058c0-17.742 13.962-32.134 31.196-32.134h114.39c17.244 0 31.204 14.392 31.204 32.134v407.056c0 17.748-13.958 32.138-31.204 32.138h-26v64.232c0 15.762 12.45 28.598 27.766 28.598l263.45-3.558h131.674c49.72 0 90.136 41.644 90.136 92.872v149.884c0.010 49.964-38.584 90.562-86.638 92.49z" />
<glyph unicode="&#xe61d;" glyph-name="title" d="M1000.232 937.823h-972.968c-13.212 0-23.926-10.716-23.926-23.932v-973.21c0-13.216 10.712-23.932 23.926-23.932h972.968c13.21 0 23.926 10.714 23.926 23.932v973.21c0 13.216-10.714 23.932-23.926 23.932zM929.848 28.685c0-10.826-8.778-19.604-19.598-19.604h-797.002c-10.824 0-19.598 8.778-19.598 19.604v797.2c0 10.826 8.774 19.604 19.598 19.604h797.002c10.82 0 19.598-8.778 19.598-19.604v-797.2zM165 719.667h694v-208h-694v208zM165 423.335h694v-48h-694v48zM165 303.001h694v-48h-694v48zM165 182.667h694v-48h-694v48z" />
<glyph unicode="&#xe61e;" glyph-name="check" d="M796.876 938.667l-435.092-671.656-217.314 271.186-144.856-162.858 362.17-460.672 659.232 1024z" />
<glyph unicode="&#xe61f;" glyph-name="cross" d="M242-85.333l782 1024h-224.14l-799.86-1024zM244-85.333l782 1024h-224.14l-799.86-1024zM2.9 939.567l798.058-1025.402 224.142-0.394-780.2 1025.37z" />
<glyph unicode="&#xe620;" glyph-name="back" d="M906.85 835.103l-182.57 103.594-607.13-511.576 607.13-511.578 182.57 103.596-484.244 407.982z" />
<glyph unicode="&#xe621;" glyph-name="lists" d="M1024-51.069c0-19.066-9.004-34.264-20.3-34.264h-728.046c-11.040 0-19.986 15.198-19.986 34.264v136.338c0 18.996 8.946 34.2 19.986 34.2h728.046c11.296 0 20.3-15.204 20.3-34.2v-136.338zM183.666-51.067c0-19.068-13.662-34.266-30.73-34.266h-122.086c-17.188 0-30.85 15.198-30.85 34.266v136.336c0 18.998 13.662 34.2 30.85 34.2h122.086c17.068 0 30.73-15.202 30.73-34.2v-136.336zM1024 358.467c0-19.002-9.004-34.198-20.3-34.198h-728.046c-11.040 0-19.986 15.196-19.986 34.198v136.534c0 18.63 8.946 34 19.986 34h728.046c11.296 0 20.3-15.37 20.3-34v-136.534zM183.666 358.465c0-18.998-13.662-34.198-30.73-34.198h-122.086c-17.188 0.002-30.85 15.2-30.85 34.198v136.536c0 18.698 13.662 34.066 30.85 34.066h122.086c17.068 0 30.73-15.368 30.73-34v-136.602zM1024 767.935c0-18.634-9.004-34.066-20.3-34.066h-728.046c-11.040 0-19.986 15.432-19.986 34.066v136.73c0 18.636 8.946 34.002 19.986 34.002h728.046c11.296 0 20.3-15.366 20.3-34.002v-136.73zM183.666 767.933c0-18.632-13.662-34.066-30.73-34.066h-122.086c-17.188 0-30.85 15.434-30.85 34.066v136.732c0 18.634 13.662 34.002 30.85 34.002h122.086c17.068 0 30.73-15.368 30.73-34.002v-136.732z" />
<glyph unicode="&#xe622;" glyph-name="edit" d="M83.666 238.427l239.464-239.718 547.316 547.894-239.442 239.696-547.338-547.872zM768.868 924.295l-101.008-101.132 239.438-239.65 101.014 101.134c34.298 34.308 0 68.642 0 68.642l-170.84 171.006c0 0-34.302 34.334-68.604 0zM50.004 205.843l-50.292-291.176 290.276 50.986-239.984 240.19z" />
<glyph unicode="&#xe623;" glyph-name="trash" d="M906.936 725.341h-138.448v127.996c0 47.144-38.122 85.33-85.192 85.33h-340.784c-47.068 0-85.196-38.188-85.196-85.33v-128h-138.442c-29.388 0-53.246-23.898-53.246-53.336 0-29.436 23.858-53.334 53.246-53.334h31.95v-618.668c0-47.146 38.124-85.332 85.196-85.332h553.776c47.068 0 85.196 38.186 85.196 85.332v618.668h31.95c29.386 0 53.25 23.896 53.25 53.334-0.006 29.442-23.87 53.34-53.256 53.34zM661.998 725.341h-298.19v59.722c0 26.024 20.886 46.94 46.866 46.94h204.46c25.982 0 46.864-20.918 46.864-46.94v-59.722zM363.808 576.003v-512c0-23.46-19.178-42.67-42.596-42.67s-42.596 19.208-42.596 42.67v512c0 23.458 19.178 42.666 42.596 42.666 23.42-0.002 42.596-19.21 42.596-42.666zM555.506 576.003v-512c0-23.46-19.18-42.67-42.6-42.67s-42.596 19.208-42.596 42.67v512c0 23.458 19.178 42.666 42.596 42.666 23.42-0.002 42.6-19.21 42.6-42.666zM747.188 576.003v-512c0-23.46-19.178-42.67-42.59-42.67-23.42 0-42.6 19.208-42.6 42.67v512c0 23.458 19.18 42.666 42.6 42.666 23.414-0.002 42.59-19.21 42.59-42.666z" />
<glyph unicode="&#xe624;" glyph-name="add" d="M1001.74 315.363h-378.436v-378.434c0-12.262-10-22.262-22.264-22.262h-178.084c-12.282 0-22.26 10-22.26 22.262v378.434h-378.434c-12.284 0-22.262 10-22.262 22.264v178.084c0 12.282 9.978 22.26 22.262 22.26h378.434v378.436c0 12.284 9.98 22.26 22.26 22.26h178.084c12.264 0 22.264-9.978 22.264-22.26v-378.434h378.436c12.26 0 22.26-9.978 22.26-22.26v-178.084c0-12.266-10-22.266-22.26-22.266z" />
<glyph unicode="&#xe625;" glyph-name="data_collection_icon" d="M93.695 892.86h837.348v-46.52h-837.348v46.52zM47.176 799.821h930.387v-46.52h-930.387v46.52zM1017.539 706.782h-1010.342c-3.633 0-6.541-2.725-6.541-5.996v-732.318c0-3.27 2.908-5.996 6.541-5.996h1010.342c3.637 0 6.543 2.727 6.543 5.996v732.318c0 3.272-2.906 5.996-6.543 5.996zM977.563 8.991h-930.387v651.272h930.387v-651.272zM317.023 500.263l195.346-195.346 195.346 195.346 60.283-60.33-255.629-255.586-255.629 255.586 60.283 60.33z" />
<glyph unicode="&#xe626;" glyph-name="openemis" d="M570.875 532.682c0 0 34.457-23.184 41.823-229.14 7.365-205.965-43.245-326.863-43.245-326.863s140.95 22.585 192.235 121.318c51.282 98.762 41.543 302.56 34.25 385-4.318 48.825-6.787 90.49-6.787 90.49s-19.050-53.265-97.928-67.811c-78.917-14.528-120.347 27.006-120.347 27.006zM331.872 269.142c0 0 31.251-94.63 35.476-175.875 5.217-99.958-2.411-159.88-2.411-159.88s80.58-19.602 116.074 18.36c16.136 17.267 33.066 43.61 36.009 181.090 2.347 109.56-17.434 175.735-17.434 175.735s-8.208-24.895-70.438-43.758c-62.23-18.885-97.276 4.328-97.276 4.328zM173.975 108.402c0 0 30.989-16.537 59.903-10.61 28.905 5.918 47.030 39.225 47.030 39.225 0.027-3.225 8.769-38.413 8.798-71.82 0.055-66.68-14.976-107.878-14.976-107.878s-17.275-0.253-54.882 18.592c-39.346 19.695-49.834 40.15-49.834 40.15s8.141 19.48 8.806 55.51c0.195 10.3-4.844 36.83-4.844 36.83zM911.668 809.982l-271.485 98.8-250.94-143.137 155.758-54.592c-6.18-16.555-8.91-34.7-7.32-53.48 5.768-67.885 65.482-118.244 133.35-112.485 67.895 5.768 118.253 65.464 112.493 133.341-1.587 18.78-7.31 36.204-16.198 51.489l85.74 47.562 7.86-92.47 27.297 2.318-8.88 104.726 32.325 17.929zM562.2 459.59l-175.911 64.025-162.629-92.76 100.941-35.365c-4.011-10.74-5.769-22.5-4.74-34.663 3.72-44.002 42.421-76.635 86.414-72.905 43.991 3.74 76.635 42.43 72.914 86.423-1.046 12.16-4.768 23.445-10.516 33.355l55.575 30.829 5.085-59.931 17.705 1.488-5.758 67.895 20.92 11.61zM326.349 234.040l-116.253 42.32-107.475-61.305 66.699-23.39c-2.636-7.105-3.814-14.853-3.122-22.893 2.459-29.082 28.025-50.657 57.099-48.19 29.091 2.46 50.656 28.035 48.189 57.118-0.682 8.050-3.141 15.507-6.946 22.060l36.729 20.36 3.356-39.608 11.704 1.002-3.814 44.85 13.835 7.675z" />
<glyph unicode="&#xe627;" glyph-name="administration" d="M422.711 534.3c0-91.558-80.528-165.758-179.801-165.758-99.263 0-179.802 74.2-179.802 165.758 0 91.618 80.539 165.869 179.802 165.869 99.272 0 179.801-74.251 179.801-165.869zM827.676 396.415c0 0-23.676-43.824-121.953-40.912-98.318 2.914-108.613 40.912-108.613 40.912-94.924 0-198.797-119.381-198.797-267.471v-70.686c0-69.359 624.232-69.359 624.232 0v70.686c0 148.090-99.945 267.471-194.869 267.471zM853.070 205.556l-49.713-48.467c-8.105-7.895-13.168-23.484-11.26-34.635l11.742-68.424c1.908-11.15-4.721-15.973-14.736-10.709l-61.453 32.314c-10.014 5.264-26.398 5.264-36.412 0l-61.453-32.314c-10.016-5.264-16.645-0.441-14.736 10.709l11.732 68.424c1.918 11.15-3.154 26.74-11.25 34.635l-49.723 48.467c-8.096 7.895-5.564 15.689 5.625 17.316l68.717 9.984c11.199 1.627 24.459 11.26 29.461 21.406l30.727 62.256c5.002 10.146 13.199 10.146 18.213 0l30.715-62.256c5.014-10.146 18.273-19.779 29.463-21.406l68.715-9.984c11.201-1.627 13.732-9.422 5.627-17.316zM943.090 631.554c0-118.971-104.646-215.391-233.641-215.391-128.984 0-233.651 96.42-233.651 215.391 0 119.056 104.667 215.54 233.651 215.54 128.994 0 233.641-96.484 233.641-215.54zM367.225 128.944c0 68.475 22.229 130.781 55.486 178.012-26.578 29.010-59.063 46.398-90.834 46.398 0 0-18.222-33.742-93.849-31.49-75.657 2.238-83.583 31.49-83.583 31.49-73.055 0-152.991-91.881-152.991-205.848v-54.402c0-36.412 223.677-47.975 365.771-34.686v70.525zM304.505 142.515l9.030-52.656c1.466-8.588-3.627-12.293-11.341-8.246l-47.291 24.871c-7.704 4.049-20.32 4.049-28.024 0l-47.291-24.871c-7.704-4.047-12.807-0.342-11.341 8.246l9.030 52.656c1.477 8.578-2.421 20.582-8.658 26.658l-38.261 37.297c-6.237 6.076-4.289 12.072 4.329 13.328l52.876 7.674c8.618 1.256 18.824 8.67 22.681 16.475l23.636 47.914c3.857 7.814 10.165 7.814 14.022 0l23.635-47.914c3.857-7.805 14.063-15.219 22.672-16.475l52.886-7.674c8.618-1.256 10.566-7.252 4.329-13.328l-38.261-37.297c-6.237-6.076-10.125-18.080-8.658-26.658z" />
<glyph unicode="&#xe628;" glyph-name="web_icon" d="M0 938.667v-731.438h1024v731.438h-1024zM960 280.354h-896v585.156h896v-585.156zM672 134.104h-320l-32-146.313-64-73.125h512l-64 73.125-32 146.313z" />
<glyph unicode="&#xe629;" glyph-name="results" d="M584.244 891.045c0 26.947-32.072 48.789-71.631 48.789s-71.631-21.842-71.631-48.789h-75.336v-75.95h295.172v75.95h-76.574zM956.008 44.409l-29.643 85.227h-825.027l-33.342-85.227h247.089l-39.599-130.91h104.979l39.599 130.91h182.009l39.6-130.91h104.979l-39.594 130.91zM904.133 787.924h-784.271c-12.27 0-22.228-9.952-22.228-22.228v-584.195c0-12.281 9.957-22.229 22.228-22.229h784.271c12.281 0 22.232 9.947 22.232 22.229v584.195c0 12.275-9.951 22.228-22.232 22.228zM852.262 418.638l-72.875 76.579-240.836-222.308-142.029 144.5-196.376-188.967-43.228 44.467 239.604 251.945 144.506-148.205 176.609 175.375-86.455 75.342 238.365 13.585-17.285-222.313z" />
<glyph unicode="&#xe62a;" glyph-name="reports" d="M1.074 892.91h62.167v-932.487h-62.167v932.487zM1.074 22.591h1021.852v-62.168h-1021.852v62.168zM65.73 14.954l-20.5 15.254 248.644 334.159 20.5-15.254-248.644-334.159zM306.5 344.186l-4.732 25.115 371.057 69.918 4.732-25.115-371.057-69.918zM685.381 418.957l-20.383 15.413 295.275 390.483 20.383-15.413-295.275-390.483zM370.185 343.133c0-35.406-28.702-64.108-64.108-64.108s-64.108 28.702-64.108 64.108c0 35.406 28.702 64.108 64.108 64.108s64.108-28.702 64.108-64.108zM743.178 436.385c0-35.394-28.715-64.112-64.109-64.112s-64.107 28.719-64.107 64.112c0 35.389 28.715 64.108 64.107 64.108 35.395 0 64.109-28.72 64.109-64.108zM1022.925 809.376c0-35.406-28.702-64.108-64.108-64.108s-64.108 28.702-64.108 64.108c0 35.406 28.702 64.108 64.108 64.108s64.108-28.702 64.108-64.108z" />
<glyph unicode="&#xe62b;" glyph-name="play" d="M995.814 690.166h-16.609v-496.687c0-15.512-12.584-28.1-28.096-28.1l-439.107-51.525-439.102 51.525c-15.52 0-28.104 12.588-28.104 28.1v496.687h-16.607c-14.674 0-26.57-11.899-26.57-26.576v-551.341c0-14.674 11.896-26.576 26.57-26.576h967.625c14.668 0 26.566 11.902 26.566 26.576v551.341c0 14.677-11.898 26.576-26.566 26.576zM927.172 767.658l-415.17-48.712-415.171 48.712c-14.674 0-26.57-11.894-26.57-26.565v-533.635c0-14.668 11.896-26.57 26.57-26.57l415.171-48.713 415.17 48.713c14.666 0 26.574 11.902 26.574 26.57v533.635c0 14.672-11.908 26.565-26.574 26.565zM471.031 340.401l-0.337-2.848c-0.981-8.486-7.832-14.662-15.296-13.797l-313.686 36.34c-7.464 0.867-12.724 8.447-11.737 16.928l0.337 2.85c0.981 8.484 7.827 14.66 15.297 13.795l313.685-36.34c7.459-0.865 12.724-8.441 11.737-16.928zM472.753 466.255l-0.337-2.85c-0.982-8.485-7.827-14.661-15.291-13.796l-313.686 36.341c-7.469 0.865-12.724 8.445-11.737 16.927l0.337 2.849c0.981 8.486 7.822 14.662 15.291 13.797l313.686-36.336c7.464-0.865 12.724-8.445 11.737-16.932zM474.48 592.107l-0.332-2.85c-0.981-8.485-7.832-14.661-15.302-13.801l-313.685 36.34c-7.465 0.871-12.725 8.451-11.737 16.933l0.337 2.849c0.981 8.486 7.827 14.662 15.296 13.791l313.686-36.335c7.464-0.861 12.724-8.441 11.737-16.927zM544.857 592.107c-0.986 8.485 4.273 16.065 11.738 16.927l313.684 36.335c7.471 0.871 14.314-5.305 15.297-13.791l0.338-2.849c0.986-8.481-4.273-16.062-11.738-16.933l-313.686-36.34c-7.469-0.86-14.318 5.315-15.301 13.801l-0.332 2.85zM546.584 466.255c-0.986 8.486 4.273 16.066 11.736 16.932l313.686 36.336c7.471 0.865 14.311-5.311 15.291-13.797l0.338-2.849c0.986-8.481-4.268-16.062-11.738-16.927l-313.684-36.341c-7.465-0.865-14.311 5.311-15.291 13.796l-0.338 2.85zM877.623 360.097l-313.686-36.34c-7.463-0.865-14.314 5.311-15.295 13.797l-0.338 2.848c-0.986 8.486 4.279 16.063 11.738 16.928l313.684 36.34c7.471 0.865 14.316-5.311 15.297-13.795l0.338-2.85c0.986-8.48-4.273-16.061-11.738-16.928z" />
<glyph unicode="&#xe62c;" glyph-name="packages" d="M888.486 729.599c-22.52 7.166-37.879-5.119-37.879-5.119l-253.895-193.492c0 0-98.282-66.544-146.397-37.879-48.121 28.664 26.676 84.971 26.676 84.971l161.694 111.594c0 0 15.357-26.619 41.975-22.523 26.621 4.094 34.807 28.664 34.807 28.664l-1.025 71.665c0 0-6.141 20.475-16.379 26.619-10.236 6.141-15.359 18.426-57.33-7.167-41.975-25.595-220.109-154.591-220.109-154.591s-63.475-31.737-63.475-117.734c0-85.996 0-498.575 0-498.575s40.056-89.070 119.843-101.352c79.79-12.287 140.196 21.498 140.196 21.498l281.535 207.824c0 0 15.357 8.189 15.357 35.83 0 27.645 0 511.888 0 511.888s-3.070 30.716-25.594 37.88zM856.238 454.206l-245.703-165.791v110.061l245.703 165.784v-110.054zM329.509 544.553c0 90.251 66.605 123.557 66.605 123.557s186.967 135.394 231.059 162.299c17.656 10.782 28.984 15.005 37.043 15.933-3.711 8.189-9.789 16.861-20.408 20.254-22.525 7.164-37.883-5.122-37.883-5.122l-253.896-193.492c0 0-98.282-66.545-146.396-37.879-48.122 28.664 26.681 84.974 26.681 84.974l161.689 111.59c0 0 15.358-26.618 41.98-22.522 26.615 4.097 34.807 28.666 34.807 28.666l-1.025 71.663c0 0-6.146 20.475-16.377 26.618-10.243 6.145-15.359 18.427-57.333-7.166-41.98-25.593-220.113-154.59-220.113-154.59s-63.474-31.736-63.474-117.732c0-85.998 0-498.577 0-498.577s40.054-89.070 119.847-101.354c38.52-5.951 72.337-1.090 97.195 5.5 0 105.197 0 412.838 0 487.382z" />
<glyph unicode="&#xe62d;" glyph-name="mobile_icon" d="M736.771 940.43h-449.542c-52.994 0-96.331-43.352-96.331-96.33v-834.864c0-52.994 43.337-96.33 96.331-96.33h449.542c52.994 0 96.33 43.336 96.33 96.33v834.864c0 52.979-43.336 96.33-96.33 96.33zM383.56 892.265h256.882v-32.11h-256.882v32.11zM512-22.876c-35.496 0-64.22 28.725-64.22 64.223 0 35.496 28.724 64.219 64.22 64.219s64.221-28.723 64.221-64.219c0-35.498-28.725-64.223-64.221-64.223zM768.883 169.786h-513.764v642.203h513.764v-642.203z" />
<glyph unicode="&#xe62e;" glyph-name="items" d="M894.84 938.272h-765.682c-22.914 0-41.479-18.564-41.479-41.482v-940.246c0-22.918 18.565-41.482 41.479-41.482h765.682c22.912 0 41.482 18.564 41.482 41.482v940.246c0 22.918-18.57 41.482-41.482 41.482zM741.014 243.458h-456.299c-11.451 0-20.741 9.289-20.741 20.738 0 11.453 9.29 20.744 20.741 20.744h456.299c11.449 0 20.738-9.291 20.738-20.744 0-11.449-9.289-20.738-20.738-20.738zM741.014 468.149h-456.299c-11.451 0-20.741 9.29-20.741 20.739 0 11.453 9.29 20.743 20.741 20.743h456.299c11.449 0 20.738-9.29 20.738-20.743 0-11.449-9.289-20.739-20.738-20.739zM741.014 692.842h-456.299c-11.451 0-20.741 9.29-20.741 20.738s9.29 20.739 20.741 20.739h456.299c11.449 0 20.738-9.29 20.738-20.739s-9.289-20.738-20.738-20.738z" />
<glyph unicode="&#xe62f;" glyph-name="data_management_icon" d="M210.563-83.337v0c-28.263 0-55.754 5.535-81.703 16.535-7.123 3.018-12.248 9.369-13.746 16.943-1.475 7.578 0.908 15.379 6.374 20.848l82.111 82.088v65.711h-65.688l-82.111-82.088c-5.455-5.445-13.236-7.895-20.857-6.352-7.564 1.451-13.938 6.623-16.932 13.746-33.378 78.867-15.867 168.871 44.594 229.32 39.422 39.469 91.864 61.176 147.664 61.176 22.932 0 45.342-3.652 66.801-10.91l339.174 339.196c-25.359 75.103-6.441 157.78 50.242 214.464 39.445 39.424 91.887 61.153 147.686 61.153 28.264 0 55.754-5.558 81.682-16.559 7.145-2.994 12.27-9.345 13.768-16.921 1.475-7.576-0.908-15.379-6.373-20.868l-82.113-82.111v-65.712h65.713l82.064 82.089c5.49 5.489 13.203 7.916 20.869 6.396 7.576-1.475 13.928-6.624 16.922-13.769 33.389-78.867 15.877-168.895-44.596-229.344-39.398-39.4-91.863-61.131-147.641-61.131-22.932 0-45.342 3.63-66.801 10.889l-339.173-339.174c25.358-75.104 6.419-157.803-50.265-214.486-39.423-39.4-91.865-61.131-147.664-61.131zM181.846-34.388c9.391-1.656 18.986-2.494 28.717-2.494 43.392 0 84.152 16.875 114.819 47.52 47.044 47.021 60.653 117.064 34.659 178.398-3.675 8.711-1.701 18.805 4.99 25.496l360.383 360.381c6.713 6.691 16.807 8.688 25.473 4.99 20.188-8.528 41.6-12.883 63.578-12.883 43.393 0 84.152 16.875 114.797 47.543 38.334 38.287 54.461 91.887 45.094 143.604l-61.516-61.471c-4.355-4.355-10.252-6.805-16.398-6.805h-98.535c-12.814 0-23.227 10.389-23.227 23.228v98.533c0 6.17 2.428 12.067 6.805 16.423l61.447 61.424c-9.412 1.679-19.008 2.518-28.738 2.518-43.393 0-84.176-16.898-114.842-47.52-47-47.044-60.609-117.088-34.66-178.398 3.697-8.711 1.725-18.805-4.967-25.496l-360.405-360.383c-6.691-6.713-16.808-8.664-25.473-4.988-20.188 8.527-41.601 12.883-63.579 12.883-43.393 0-84.176-16.875-114.82-47.543-38.299-38.311-54.438-91.91-45.059-143.627l61.481 61.494c4.378 4.377 10.274 6.805 16.422 6.805h98.556c12.816 0 23.228-10.391 23.228-23.229v-98.557c0-6.168-2.45-12.066-6.805-16.422l-61.425-61.424zM930.531-83.337c-24.814 0-48.131 9.662-65.711 27.219l-213.512 213.535c-9.072 9.072-9.072 23.771 0 32.844l98.533 98.533c9.074 9.074 23.771 9.074 32.846 0l213.533-213.533c17.557-17.557 27.221-40.875 27.221-65.689s-9.688-48.178-27.221-65.711c-17.557-17.535-40.873-27.197-65.689-27.197zM700.621 173.839l197.066-197.111c17.535-17.535 48.133-17.557 65.689 0 8.777 8.777 13.609 20.438 13.609 32.844s-4.832 24.090-13.588 32.844l-197.088 197.113-65.689-65.689zM205.346 767.626l265.023-265.024-32.844-32.845-265.025 265.002zM618.465 101.323c-5.943 0-11.887 2.268-16.422 6.805-9.098 9.072-9.098 23.748 0 32.822l197.066 197.111c9.072 9.072 23.771 9.072 32.844 0 9.074-9.096 9.074-23.771 0-32.846l-197.066-197.088c-4.537-4.537-10.48-6.805-16.422-6.805zM156.078 695.108c-5.942 0-11.885 2.27-16.422 6.806l-131.4 131.4c-4.367 4.333-6.805 10.23-6.805 16.423 0 6.191 2.438 12.090 6.805 16.422l65.688 65.689c9.085 9.096 23.749 9.096 32.845 0l131.4-131.401c4.355-4.355 6.805-10.253 6.805-16.423s-2.449-12.066-6.805-16.422l-65.689-65.688c-4.535-4.536-10.479-6.806-16.422-6.806zM57.522 849.737l98.556-98.557 32.845 32.844-98.556 98.557-32.845-32.844zM706.61 200.694l-170.503 170.506 32.844 32.843 170.503-170.506-32.844-32.843z" />
<glyph unicode="&#xe630;" glyph-name="ellipsis" d="M512.371 309.718c-65.281 0.014-113.982 47.037-115.736 111.744-1.809 66.148 51.516 122.653 115.736 122.653s117.545-56.52 115.732-122.667c-1.75-64.707-50.482-111.746-115.732-111.73zM510.369 938.65c63.895 1.060 114.762-47.143 117.574-111.406 2.93-67.355-47.555-122.182-113.555-123.315-63.043-1.090-115 48.305-117.59 111.788-2.797 68.018 46.92 121.83 113.57 122.934zM513.578-85.333c-65.604-0.574-114.35 45.434-116.691 110.168-2.488 68.387 46.199 119.637 114.275 120.256 68.033 0.617 118.164-49.896 116.941-117.84-1.176-64.822-49.158-111.996-114.525-112.584z" />
<glyph unicode="&#xe631;" glyph-name="grid" d="M0 938.667h263.314v-270.223h-263.314v270.223zM380.343 938.667h263.313v-270.223h-263.313v270.223zM760.686 938.667h263.314v-270.223h-263.314v270.223zM0 554.667h263.314v-270.223h-263.314v270.223zM380.343 554.667h263.313v-270.223h-263.313v270.223zM760.686 554.667h263.314v-270.223h-263.314v270.223zM0 184.89h263.314v-270.223h-263.314v270.223zM380.343 184.89h263.313v-270.223h-263.313v270.223zM760.686 184.89h263.314v-270.223h-263.314v270.223z" />
<glyph unicode="&#xe632;" glyph-name="arrow-down" d="M666.102 279.501v661.605h-308.22v-661.605h-195.293l349.78-364.834 348.018 364.834z" />
<glyph unicode="&#xe633;" glyph-name="arrow-up" d="M356.874 574.702v-660.035h308.22v660.035h195.293l-349.78 363.965-348.018-363.965z" />
<glyph unicode="&#xe634;" glyph-name="arrow-last" d="M1024 849.77c-143 102.044-347 135.098-512-7.997s-154.118-344.717-154.118-344.717v-217.139h-195.293l349.78-362.25 348.018 362.25h-194.285v224.193h-0.004l-0.098 72.172c0 298.561 358 273.487 358 273.487z" />
<glyph unicode="&#xe635;" glyph-name="arrow-first" d="M0 6.563c143-102.043 347-135.098 511.998 7.998 165.002 143.096 154.119 344.717 154.119 344.717v217.139h195.293l-349.779 362.25-348.018-362.25h194.284v-224.193h0.004l0.098-72.172c0-298.561-357.999-273.488-357.999-273.488z" />
<glyph unicode="&#xe636;" glyph-name="403-error" d="M731.692 713.973c0-124.094-88.636-242.628-197.996-242.628-109.354 0-198 118.534-198 242.628s88.642 224.694 198 224.694c109.352 0 197.996-100.598 197.996-224.694zM522.628 169.077c-23.058 0-41.772-18.65-41.772-41.626 0-18.312 11.92-33.852 28.406-39.402v-22.2c0-7.326 6.016-13.32 13.368-13.32 7.354 0 13.372 5.994 13.372 13.32v22.2c16.596 5.55 28.406 21.090 28.406 39.402-0.004 22.978-18.722 41.626-41.78 41.626zM536 307.271h-26.736c-22.168 0-40.104-17.872-40.104-39.958v-48.288h106.942v48.288c0 22.086-17.938 39.958-40.102 39.958zM673.694 492.271c-162.27-120.566-280 5.978-280 5.978s-293.77-26.904-285-315.866c4.132-123.27 22.324-181.78 49.386-217.666 31.712-42.050 72.614-50.050 72.614-50.050s500.306 0 572 0c25.24 5.624 50.182 18.33 70.522 41.716 35.036 40.284 46.792 120.040 48.478 272.276 2.212 199.84-248 263.612-248 263.612zM662.092 22.509c0-10.99-9.022-19.982-20.046-19.982h-237.888c-11.028 0-20.050 8.992-20.050 19.982v176.538c0 10.99 9.022 19.976 20.050 19.976h21.722v58.276c0 41.4 33.644 74.924 75.194 74.924h43.442c41.552 0 75.198-33.52 75.192-74.924v-58.276h22.286c11.028 0 20.052-8.988 20.102-19.98l-0.004-176.534z" />
<glyph unicode="&#xe637;" glyph-name="role" d="M638.465 229.696c-3.695 40.65-2.293 69.031-2.293 106.184 18.406 9.658 51.418 71.273 56.986 123.318 14.486 1.195 37.324 15.324 44.002 71.102 3.596 29.947-10.719 46.799-19.439 52.096 23.553 70.867 72.506 290.097-90.541 312.75-16.752 29.466-59.719 44.371-115.545 44.371-223.356-4.114-250.31-168.676-201.356-357.121-8.696-5.297-23.035-22.148-19.438-52.096 6.701-55.777 29.515-69.906 44.002-71.102 5.543-52.020 39.861-113.66 58.314-123.318 0-37.152 1.404-65.533-2.291-106.184-44.198-118.848-342.426-85.49-356.197-314.662h958.664c-13.748 229.172-310.67 195.814-354.867 314.662z" />
<glyph unicode="&#xe638;" glyph-name="reject" d="M875.5 938.667h-724c-82.842 0-150-67.158-150-150v-724c0-82.842 67.158-150 150-150h724c82.842 0 150 67.158 150 150v724c0 82.842-67.158 150-150 150zM874.528 85.109l-205.266 0.264-151.338 218.708-147.562-218.368h-218.488l243.046 341.874-231.116 340.64 209.158-0.284 144.484-201.828 153.086 201.512h204.596l-236.436-341.030 235.836-341.488z" />
<glyph unicode="&#xe639;" glyph-name="approve" d="M874.158 938.667h-724c-82.842 0-150-67.158-150-150v-724c0-82.842 67.158-150 150-150h724c82.842 0 150 67.158 150 150v724c0 82.842-67.158 150-150 150zM413.234 73.669l-271.21 272.814 126.476 180.466 126.734-130.616 261.778 371.334h233.284l-477.062-693.998z" />
<glyph unicode="&#xe63a;" glyph-name="dropout" d="M625.19 713.973c0-124.094-88.634-242.628-197.996-242.628-109.354 0-198 118.534-198 242.628s88.642 224.694 198 224.694c109.352 0 197.996-100.598 197.996-224.694zM486.492 116.475l51.928 51.948-51.938 51.958c-62.726 62.768-63.79 164.178-3.276 228.316-117.346-34.966-196.014 49.554-196.014 49.554s-293.77-26.906-285-315.87c4.132-123.27 22.324-181.78 49.386-217.664 31.712-42.050 72.614-50.050 72.614-50.050h338.668c-38.86 63.144-31.012 147.132 23.632 201.808zM888.954 168.423l108.46 108.506c32.782 32.782 32.782 85.884 0 118.666-16.37 16.38-37.85 24.57-59.332 24.57s-42.964-8.19-59.334-24.57l-108.504-108.504-108.506 108.504c-16.37 16.38-37.85 24.57-59.332 24.57s-42.964-8.19-59.336-24.57c-32.758-32.782-32.758-85.884 0-118.666l108.466-108.506-108.466-108.506c-32.758-32.778-32.758-85.882 0-118.664 16.372-16.392 37.844-24.586 59.336-24.586s42.964 8.194 59.332 24.586l108.506 108.506 108.504-108.506c16.39-16.392 37.862-24.586 59.334-24.586 21.47 0 42.944 8.194 59.332 24.586 32.782 32.782 32.782 85.886 0 118.664l-108.46 108.506z" />
<glyph unicode="&#xe63b;" glyph-name="transfer" d="M625.19 713.973c0-124.094-88.634-242.628-197.996-242.628-109.354 0-198 118.534-198 242.628s88.642 224.694 198 224.694c109.352 0 197.996-100.598 197.996-224.694zM331.93 67.221c0 103.99 38.32 203.75 107.9 280.898 51.782 57.416 117.766 98.962 190.618 120.91-36.218 16.348-63.256 23.242-63.256 23.242-162.27-120.564-280 5.978-280 5.978s-293.77-26.904-285-315.868c4.132-123.27 22.324-181.78 49.386-217.664 31.712-42.050 72.614-50.050 72.614-50.050h207.738v152.554zM668.376 2.919c-22.19 22.254-34.41 51.794-34.41 83.18v6.074c-61.994-12.246-112.304-41.276-155.142-106.582l-46.522-70.924h263.888c25.24 5.624 50.182 18.33 70.524 41.716 3.852 4.428 7.406 9.366 10.712 14.792-8.348-1.85-16.95-2.832-25.708-2.832-31.504 0.002-61.094 12.276-83.342 34.576zM1016 293.749l-237.586 234.378c-7.356 7.354-17.036 11.024-26.696 11.024s-19.338-3.668-26.694-11.024c-7.354-7.392-11.060-17.070-11.060-26.73v-96.616c-169.894-18.802-302.036-162.652-302.036-337.56v-37.754c84.764 129.226 198.21 148.032 302.036 150.614v-93.982c0-9.624 3.708-19.318 11.060-26.694 7.356-7.374 17.034-11.060 26.694-11.060s19.34 3.688 26.696 11.060l237.586 234.344z" />
<glyph unicode="&#xe63c;" glyph-name="graduate" d="M623.19 713.973c0-124.094-88.634-242.628-197.996-242.628-109.354 0-198 118.534-198 242.628s88.642 224.694 198 224.694c109.352 0 197.996-100.598 197.996-224.694zM592.826 123.189c-12.204-2.966-24.846-4.492-37.722-4.492-42.324 0-82.12 16.486-112.078 46.444-61.736 61.78-61.736 162.3 0.020 224.096l73.050 73.048c-136.382-65.59-230.904 35.964-230.904 35.964s-293.77-26.904-285-315.868c4.132-123.27 22.324-181.78 49.386-217.664 31.712-42.050 72.614-50.050 72.614-50.050h495.502c-15.716 24.598-24.87 53.774-24.87 85.064v123.458zM751.306 584.359l-251.692-251.692c-30.636-30.656-30.636-80.32 0-110.978 15.33-15.328 35.41-22.992 55.49-22.992s40.162 7.664 55.49 22.992l62.232 62.234v-284.192c0-43.302 35.122-78.48 78.48-78.48 43.302 0 78.482 35.178 78.482 78.48v284.192l62.234-62.234c15.328-15.328 35.41-22.992 55.49-22.992s40.16 7.664 55.488 22.992c30.656 30.658 30.656 80.322 0 110.978l-251.694 251.692z" />
<glyph unicode="&#xe63d;" glyph-name="guardian" d="M579.278 635.653c0-155.922-111.054-282.262-247.95-282.262-136.888 0-247.97 126.338-247.97 282.262 0 156.012 111.082 282.462 247.97 282.462 136.894 0 247.95-126.448 247.95-282.462zM981.996 402.583c0-110.908-78.998-200.776-176.372-200.776-97.368 0-176.38 89.868-176.38 200.776 0 110.972 79.014 200.918 176.38 200.918 97.374-0.002 176.372-89.946 176.372-200.918zM550.4-85.333v50.29c0 67.93 18.45 131.174 51.952 178.084 9.656 13.516 20.284 25.296 31.574 35.198-38.57 98.958-109.056 159.242-177.13 159.242 0 0-25.13-33.018-129.424-29.206-104.338 3.824-115.268 29.206-115.268 29.206-100.742 0-210.978-132.028-210.978-326.102v-92.632c0-1.38 0.17-2.738 0.47-4.078h548.804zM1021.626-85.333v50.29c0 59.824-15.284 114.74-43.034 154.63-22.106 31.774-49.906 50.998-77.192 53.672-12.040-7.758-36.954-17.718-85.434-17.718-4.494 0-9.174 0.088-13.902 0.262-42.846 1.568-72.354 7.41-88.138 17.412-27.25-2.882-56.108-22.544-78.454-53.83-28.614-40.066-44.372-94.91-44.372-154.428v-50.29h430.526z" />
<glyph unicode="&#xe63e;" glyph-name="compile" d="M7.954 656.867l503.374 172.55 503.376-172.55-503.376-165.298zM3.666 502.287l138.546 56.178 368.62-121.176 370.648 119.362 136.52-54.364-507.168-165.296zM3.666 343.177l138.546 56.18 368.62-121.178 370.648 119.362 136.52-54.364-507.168-165.296zM3.666 189.711l138.546 56.178 368.62-121.176 370.648 119.362 136.52-54.364-507.168-165.294z" />
<glyph unicode="&#xe63f;" glyph-name="reorder" d="M-1.082 760.667h1025.082v-100h-1025.082v100zM-1.082 571.333h1025.082v-100h-1025.082v100zM-1.082 382.001h1025.082v-100h-1025.082v100zM-1.082 192.667h1025.082v-100h-1025.082v100z" />
<glyph unicode="&#xe640;" glyph-name="draggable" d="M510.72 938.655c40.79 0.676 73.266-30.096 75.060-71.122 1.872-43.002-30.36-78.002-72.494-78.726-40.246-0.696-73.416 30.838-75.070 71.366-1.786 43.424 29.952 77.778 72.504 78.482zM510.72 501.591c40.79 0.676 73.266-30.096 75.060-71.122 1.872-43-30.36-78.002-72.494-78.726-40.246-0.696-73.416 30.84-75.070 71.368-1.786 43.422 29.952 77.774 72.504 78.48zM510.72 64.527c40.79 0.676 73.266-30.098 75.060-71.122 1.872-43.004-30.36-78.004-72.494-78.726-40.246-0.696-73.416 30.84-75.070 71.368-1.786 43.42 29.952 77.774 72.504 78.48z" />
<glyph unicode="&#xe641;" glyph-name="draggable-line" d="M396 759.417h40v-665h-40v665zM588 759.417h40v-665h-40v665z" />
<glyph unicode="&#xe642;" glyph-name="header" d="M984 898.667v-944h-944v944h944zM984 938.667h-944c-22.092 0-40-17.908-40-40v-944c0-22.092 17.908-40 40-40h944c22.092 0 40 17.908 40 40v944c0 22.092-17.908 40-40 40v0zM112 826.667h799.998v-229.966h-799.998v229.966zM314.776 504.731v-458.064h-182.444v458.064h182.444zM334.776 524.731h-222.444v-498.064h222.444v498.064zM892 504.731v-458.064h-458.304v458.064h458.304zM912 524.731h-498.304v-498.064h498.304v498.064z" />
<glyph unicode="&#xe643;" glyph-name="rows" d="M984 898.667v-944h-944v944h944zM984 938.667h-944c-22.092 0-40-17.908-40-40v-944c0-22.092 17.908-40 40-40h944c22.092 0 40 17.908 40 40v944c0 22.092-17.908 40-40 40v0zM892.184 206.119v-160.452h-760v160.452h760zM912.184 226.119h-800v-200.452h800v200.452zM894.184 408.567v-164.45h-764v164.45h764zM912.184 426.567h-800v-200.45h800v200.45zM892.184 605.215v-160.452h-760v160.452h760zM912.184 625.215h-800v-200.452h800v200.452zM112.184 825.667h800v-200.452h-800v200.452z" />
<glyph unicode="&#xe644;" glyph-name="table" d="M984 898.667v-944h-944v944h944zM984 938.667h-944c-22.092 0-40-17.908-40-40v-944c0-22.092 17.908-40 40-40h944c22.092 0 40 17.908 40 40v944c0 22.092-17.908 40-40 40v0zM292.182 206.119v-160.452h-160v160.452h160zM312.182 226.119h-200v-200.452h200v200.452zM692.184 206.119v-160.452h-160v160.452h160zM712.184 226.119h-200v-200.452h200v200.452zM892.184 206.119v-160.452h-160v160.452h160zM912.184 226.119h-200v-200.452h200v200.452zM492.184 206.119v-160.452h-160v160.452h160zM512.184 226.119h-200v-200.452h200v200.452zM294.182 408.567v-164.45h-164v164.45h164zM312.182 426.567h-200v-200.45h200v200.45zM694.184 408.567v-164.45h-164v164.45h164zM712.184 426.567h-200v-200.45h200v200.45zM894.184 408.567v-164.45h-164v164.45h164zM912.184 426.567h-200v-200.45h200v200.45zM494.184 408.567v-164.45h-164v164.45h164zM512.184 426.567h-200v-200.45h200v200.45zM292.182 605.215v-160.452h-160v160.452h160zM312.182 625.215h-200v-200.452h200v200.452zM692.184 605.215v-160.452h-160v160.452h160zM712.184 625.215h-200v-200.452h200v200.452zM892.184 605.215v-160.452h-160v160.452h160zM912.184 625.215h-200v-200.452h200v200.452zM492.184 605.215v-160.452h-160v160.452h160zM512.184 625.215h-200v-200.452h200v200.452zM112.184 825.667h800v-200.452h-800v200.452z" />
<glyph unicode="&#xe800;" glyph-name="shipment" d="M514.21 936.749l-510.808-253.228-0.698-513.094 510.152-254.23 510.79 253.232 0.688 513.082-510.124 254.238zM908.804 654.829l-113.53-47.068-406.692 184.686 123.576 60.932 396.646-198.55zM812.006 490.107l-76.288-30.646v33.812l75.272 31.208 1.016-34.374zM513.546 490.959l-398.932 166.4 173.136 85.37 385.654-185.494-159.858-66.276zM700.666 568.537l-387.852 186.55 50.258 24.782 404.392-183.636-66.798-27.696zM81.556 581.307l382.876-159.704-0.474-383.734-381.216 183.008-1.186 360.43zM569.968 36.345l0.462 388.402 143.286 59.404v-57.238l120.73 48.5-1.714 58.080 117.49 48.71-0.54-366.218-379.714-179.64zM401.942 287.535l-136.968 56.132v-138.072l137.318-66.264z" />
<glyph unicode="&#xe900;" glyph-name="sort-date-desc" d="M494.082 794.267v-5.364c0.396-17.992 2.248-30.642 5.556-37.956 3.31-7.312 10.404-10.966 21.272-10.966 10.772 0 17.89 3.998 21.35 11.996 2.072 4.734 3.112 12.728 3.112 23.988v162.702h48.606v-161.916c0-19.784-3.344-35.458-10.034-47.030-11.312-19.568-31.732-29.354-61.262-29.354-29.528 0-49.33 7.916-59.41 23.75s-15.12 37.428-15.12 64.784v5.366h45.93zM678.896 938.667h54.998l82.3-232.618h-52.71l-15.348 47.818h-85.666l-15.77-47.816h-50.846l83.042 232.616zM675.69 793.949h59.582l-29.382 91.534-30.2-91.534zM835.406 938.667h50.958l92.344-162.2v162.2h45.292v-232.618h-48.602l-94.692 165.052v-165.052h-45.3v232.618zM577.254 159.995c15.458-5.73 27.976-16.236 37.554-31.52 7.676-12.366 12.912-25.736 15.708-40.122 2.792-14.384 4.19-28.096 4.19-41.13 0-33.042-5.884-61.022-17.652-83.948-15.96-30.908-40.592-46.358-73.904-46.358h-94.996v248.474h94.996c13.66-0.226 25.028-2.020 34.104-5.396zM492.844 122.237v-162.166h42.518c21.762 0 36.93 12.082 45.512 36.242 4.692 13.262 7.040 29.050 7.040 47.37 0 25.288-3.522 44.698-10.552 58.242-7.034 13.542-21.034 20.312-41.998 20.312h-42.52zM813.798 121.395h-116.598v-52.764h107.030v-43.154h-107.030v-63.886h121.976v-44.672h-166.972v248.472h161.592l0.002-43.996zM857.732 135.921c17.746 19.736 40.324 29.604 67.732 29.604 36.674 0 63.482-13.228 80.44-39.684 9.368-14.86 14.394-29.768 15.086-44.732h-46.042c-2.928 11.496-6.684 20.172-11.276 26.028-8.202 10.408-20.354 15.614-36.46 15.614-16.41 0-29.34-7.348-38.814-22.042-9.468-14.694-14.204-35.484-14.204-62.378 0-26.89 4.992-47.036 14.98-60.428 9.992-13.386 22.696-20.088 38.092-20.088 15.792 0 27.83 5.748 36.122 17.244 4.576 6.184 8.382 15.458 11.404 27.812h45.746c-3.948-26.134-14.032-47.388-30.25-63.762-16.212-16.374-36.986-24.556-62.324-24.556-31.346 0-56.002 11.062-73.944 33.18-17.938 22.228-26.91 52.702-26.91 91.416 0.008 41.85 10.212 74.108 30.622 96.772zM744.234 379.865h-283.556c-6.912 0-12.526-3.836-12.526-8.618v-102.764c0-4.75 5.604-8.62 12.526-8.62h283.556c6.934 0 12.562 3.854 12.562 8.62v102.782c-0.018 4.764-5.628 8.6-12.562 8.6zM852.548 599.691h-391.87c-6.908 0-12.526-3.85-12.526-8.622v-102.744c0-4.762 5.604-8.634 12.526-8.634h391.876c6.886 0 12.502 3.864 12.502 8.634v102.752c-0.026 4.766-5.614 8.614-12.508 8.614zM403.292 147.031h-104.118v770.568c0 11.638-9.426 21.068-21.040 21.068h-129.952c-11.61 0-21.036-9.428-21.036-21.068v-770.568h-104.1c-8.114 0-15.486-4.672-18.98-11.972-3.5-7.322-2.498-15.982 2.566-22.298l190.128-188.042c4.002-4.988 10.026-7.866 16.402-7.866 6.372 0 12.39 2.876 16.388 7.866l190.13 188.038c5.070 6.322 6.076 14.98 2.574 22.302-3.492 7.3-10.852 11.972-18.962 11.972z" />
<glyph unicode="&#xe901;" glyph-name="sort-date-asc" d="M494.082 8.565v-5.366c0.396-17.99 2.248-30.64 5.556-37.956 3.31-7.312 10.404-10.966 21.272-10.966 10.772 0 17.89 3.996 21.35 11.996 2.072 4.734 3.112 12.726 3.112 23.986v162.706h48.606v-161.916c0-19.784-3.344-35.458-10.034-47.030-11.314-19.566-31.734-29.352-61.262-29.352s-49.33 7.916-59.41 23.752c-10.080 15.832-15.12 37.426-15.12 64.782v5.366h45.93zM678.896 147.285h54.998l82.302-232.618h-52.71l-15.348 47.816h-85.666l-15.77-47.816h-50.846l83.040 232.618zM675.69 2.565h59.582l-29.382 91.536-30.2-91.536zM835.406 147.285h50.958l92.344-162.2v162.2h45.292v-232.618h-48.602l-94.692 165.052v-165.052h-45.3v232.618zM577.254 933.137c15.458-5.73 27.976-16.236 37.554-31.52 7.676-12.366 12.912-25.736 15.708-40.122 2.792-14.384 4.19-28.096 4.19-41.13 0-33.042-5.884-61.022-17.652-83.948-15.96-30.908-40.592-46.358-73.904-46.358h-94.996v248.476h94.996c13.66-0.228 25.028-2.022 34.104-5.398zM492.844 895.379v-162.166h42.518c21.762 0 36.93 12.082 45.512 36.242 4.692 13.262 7.040 29.050 7.040 47.37 0 25.288-3.522 44.698-10.552 58.242-7.034 13.542-21.034 20.312-41.998 20.312h-42.52zM813.798 894.539h-116.598v-52.764h107.030v-43.154h-107.030v-63.886h121.976v-44.672h-166.972v248.472h161.592l0.002-43.996zM857.732 909.063c17.746 19.736 40.324 29.604 67.732 29.604 36.674 0 63.482-13.228 80.44-39.684 9.368-14.86 14.394-29.768 15.086-44.732h-46.042c-2.928 11.496-6.684 20.172-11.276 26.028-8.202 10.408-20.354 15.614-36.46 15.614-16.41 0-29.34-7.348-38.814-22.042-9.468-14.694-14.204-35.484-14.204-62.378 0-26.89 4.992-47.036 14.98-60.428 9.992-13.386 22.696-20.088 38.092-20.088 15.792 0 27.83 5.748 36.122 17.244 4.576 6.184 8.382 15.458 11.404 27.812h45.746c-3.948-26.134-14.032-47.388-30.25-63.762-16.212-16.374-36.986-24.556-62.324-24.556-31.346 0-56.002 11.062-73.944 33.18-17.938 22.228-26.91 52.702-26.91 91.416 0.008 41.85 10.212 74.108 30.622 96.772zM744.234 379.865h-283.556c-6.912 0-12.526-3.836-12.526-8.618v-102.764c0-4.75 5.604-8.62 12.526-8.62h283.556c6.934 0 12.562 3.854 12.562 8.62v102.782c-0.018 4.764-5.628 8.6-12.562 8.6zM852.548 599.691h-391.87c-6.908 0-12.526-3.85-12.526-8.622v-102.744c0-4.762 5.604-8.634 12.526-8.634h391.876c6.886 0 12.502 3.864 12.502 8.634v102.752c-0.026 4.766-5.614 8.614-12.508 8.614zM403.292 147.031h-104.118v770.568c0 11.638-9.426 21.068-21.040 21.068h-129.952c-11.61 0-21.036-9.428-21.036-21.068v-770.568h-104.1c-8.114 0-15.486-4.672-18.98-11.972-3.5-7.322-2.498-15.982 2.566-22.298l190.128-188.042c4.002-4.988 10.026-7.866 16.402-7.866 6.372 0 12.39 2.876 16.388 7.866l190.13 188.038c5.070 6.322 6.076 14.98 2.574 22.302-3.492 7.3-10.852 11.972-18.962 11.972z" />
<glyph unicode="&#xe902;" glyph-name="sort-alphabet-asc" d="M742.48 938.667h102.332l153.134-432.826h-98.076l-48.56 128.972h-119.392l-49.342-128.972h-94.608l154.512 432.826zM756.516 709.395h70.862l-34.676 130.312-36.186-130.312zM403.292 147.031h-104.118v770.568c0 11.638-9.426 21.068-21.040 21.068h-129.952c-11.61 0-21.036-9.428-21.036-21.068v-770.568h-104.1c-8.114 0-15.486-4.672-18.98-11.972-3.5-7.322-2.498-15.982 2.566-22.298l190.128-188.042c4.002-4.988 10.026-7.866 16.402-7.866 6.372 0 12.39 2.876 16.388 7.866l190.13 188.038c5.070 6.322 6.076 14.98 2.574 22.302-3.492 7.3-10.852 11.972-18.962 11.972zM628.256 256.043v92.306h336.826v-94.296l-208.992-246.282h216.418v-93.104h-359.102v88.33l211.13 253.044h-196.28zM564 561.667h160v-55.826h-160v55.826zM862 561.667h160v-55.826h-160v55.826zM612.086 348.347h81.916v-160h-81.916v160zM890.594 74.667h81.916v-160h-81.916v160z" />
<glyph unicode="&#xe903;" glyph-name="sort-alphabet-desc" d="M401.292 147.031h-104.118v770.568c0 11.638-9.426 21.068-21.040 21.068h-129.952c-11.61 0-21.036-9.428-21.036-21.068v-770.568h-104.1c-8.114 0-15.486-4.672-18.98-11.972-3.5-7.322-2.498-15.982 2.566-22.298l190.128-188.042c4.002-4.988 10.026-7.866 16.402-7.866 6.372 0 12.39 2.876 16.388 7.866l190.13 188.038c5.070 6.322 6.076 14.98 2.574 22.302-3.492 7.3-10.85 11.972-18.962 11.972zM742.48 347.493h102.332l153.138-432.826h-98.078l-48.558 128.97h-119.394l-49.342-128.97h-94.61l154.512 432.826zM756.516 118.221h70.864l-34.676 130.312-36.188-130.312zM564-29.507h160v-55.826h-160v55.826zM862-29.507h160v-55.826h-160v55.826zM628.258 846.361v92.306h336.824v-94.296l-208.992-246.282h216.418v-93.104h-359.102v88.33l211.134 253.046h-196.282zM612.086 938.665h81.918v-160h-81.918v160zM890.594 664.985h81.918v-160h-81.918v160z" />
<glyph unicode="&#xe904;" glyph-name="download-fail" d="M997.544 367.243c16.87-39.638 25.42-82.134 25.42-126.838 0-58.624-14.66-113.476-43.58-163.042-28.892-49.496-68.63-89.234-118.118-118.118-49.562-28.92-104.416-43.58-163.042-43.58-58.622 0-113.474 14.66-163.038 43.578-49.486 28.886-89.228 68.624-118.124 118.114-6.702 11.49-12.604 23.276-17.77 35.312h-220.092v254.574h-179.2v-452.576h1024v452.576h-26.456zM417.070 403.439c28.886 49.498 68.63 89.236 118.124 118.122 49.56 28.92 104.418 43.584 163.036 43.584 18.376 0 36.384-1.444 53.974-4.314l60.346 66.688h-187.674v311.148h-230.404v-311.148h-184.548l205.482-227.042c0.56 0.984 1.092 1.982 1.664 2.962zM944.228 383.011c-25.402 43.528-59.864 77.99-103.386 103.394-43.54 25.4-91.062 38.102-142.614 38.102-51.542 0-99.078-12.702-142.608-38.102-43.532-25.4-77.992-59.864-103.396-103.394-25.408-43.536-38.106-91.066-38.106-142.606 0-51.542 12.704-99.080 38.102-142.61 25.404-43.518 59.87-77.988 103.398-103.394 43.53-25.396 91.064-38.096 142.61-38.096 51.542 0 99.080 12.7 142.608 38.096 43.528 25.4 77.988 59.864 103.394 103.394 25.398 43.53 38.098 91.074 38.098 142.61-0.002 51.54-12.702 99.080-38.1 142.606zM758.946 15.011c0-4.434-1.428-8.14-4.272-11.142-2.838-3.010-6.328-4.504-10.444-4.504h-91.082c-4.108 0-7.748 1.578-10.902 4.738-3.172 3.166-4.748 6.802-4.748 10.908v90.13c0 4.114 1.576 7.754 4.748 10.912 3.154 3.164 6.794 4.748 10.902 4.748h91.082c4.116 0 7.614-1.508 10.444-4.508 2.844-3.016 4.272-6.728 4.272-11.152v-90.13zM747.994 218.203c-0.322-3.162-1.976-5.938-4.97-8.304-3.016-2.37-6.724-3.554-11.146-3.554h-67.764c-4.438 0-8.23 1.186-11.394 3.554-3.16 2.368-4.744 5.142-4.744 8.304l-18.064 254.598c0 3.8 1.582 6.646 4.742 8.542 3.166 2.528 6.964 3.798 11.38 3.798h104.386c4.432 0 8.218-1.262 11.38-3.798 3.162-1.896 4.732-4.746 4.732-8.542l-18.538-254.598z" />
<glyph unicode="&#xe905;" glyph-name="download-success" d="M997.544 367.243c16.87-39.638 25.42-82.134 25.42-126.838 0-58.624-14.66-113.476-43.58-163.042-28.892-49.496-68.63-89.234-118.118-118.118-49.562-28.92-104.416-43.58-163.042-43.58-58.622 0-113.474 14.66-163.038 43.578-49.486 28.886-89.228 68.624-118.124 118.114-6.702 11.49-12.604 23.276-17.77 35.312h-220.092v254.574h-179.2v-452.576h1024v452.576h-26.456zM417.070 403.439c28.886 49.498 68.63 89.236 118.124 118.122 49.56 28.92 104.418 43.584 163.036 43.584 18.376 0 36.384-1.444 53.974-4.314l60.346 66.688h-187.674v311.148h-230.404v-311.148h-184.548l205.482-227.042c0.56 0.984 1.092 1.982 1.664 2.962zM944.228 383.011c-25.402 43.528-59.864 77.99-103.386 103.394-43.54 25.4-91.062 38.102-142.614 38.102-51.542 0-99.078-12.702-142.608-38.102-43.532-25.4-77.992-59.864-103.396-103.394-25.408-43.536-38.106-91.066-38.106-142.606 0-51.542 12.704-99.080 38.102-142.61 25.404-43.518 59.87-77.988 103.398-103.394 43.53-25.396 91.064-38.096 142.61-38.096 51.542 0 99.080 12.7 142.608 38.096 43.528 25.4 77.988 59.864 103.394 103.394 25.398 43.53 38.098 91.074 38.098 142.61-0.002 51.54-12.702 99.080-38.1 142.606zM904.81 300.881l-246.444-246.44c-4.848-4.848-10.602-7.274-17.262-7.274-6.658 0-12.408 2.426-17.258 7.274l-130.184 130.184c-4.84 4.84-7.264 10.596-7.264 17.252 0 6.66 2.424 12.418 7.264 17.262l33.306 33.302c4.844 4.85 10.596 7.266 17.254 7.266 6.66 0 12.418-2.416 17.258-7.266l79.62-79.624 195.886 195.884c4.842 4.844 10.606 7.266 17.26 7.266 6.664 0 12.418-2.422 17.26-7.266l33.306-33.306c4.84-4.844 7.266-10.6 7.266-17.254 0.002-6.662-2.428-12.42-7.268-17.26z" />
<glyph unicode="&#xe906;" glyph-name="alphabet" d="M131.37 654.661h87.642l131.15-454.524h-83.996l-24.46 93.43h-136.51l-25.128-93.43h-81.024l132.326 454.524zM126.264 371.891h94.938l-46.828 178.852-48.11-178.852zM650.726 606.245c10.954-19.324 16.434-42.45 16.434-69.382 0-27.75-5.53-50.060-16.582-66.914-6.178-9.458-15.28-18.092-27.306-25.904 18.272-8.43 32.058-21.79 41.362-40.086 9.292-18.298 13.946-40.5 13.946-66.608 0-26.932-5.312-51.090-15.942-72.468-6.764-14.182-15.214-26.108-25.356-35.768-11.432-11.1-24.918-18.71-40.456-22.82-15.538-4.116-32.396-6.166-50.588-6.166h-161.32v454.532h173.020c43.658-0.824 74.588-16.96 92.788-48.416zM456.33 575.721v-100.216h87.016c15.544 0 28.166 3.748 37.862 11.254 9.698 7.5 14.542 20.812 14.542 39.934 0 21.168-6.41 35.15-19.23 41.936-11.058 4.726-25.16 7.090-42.308 7.090l-77.882 0.002zM456.33 400.261v-121.184h86.92c15.524 0 27.614 2.668 36.256 8.016 15.686 9.862 23.534 28.778 23.534 56.74 0 23.634-7.61 39.878-22.808 48.718-8.486 4.932-20.414 7.504-35.782 7.708h-88.12zM757.242 600.039c28.836 36.772 65.522 55.16 110.056 55.16 59.594 0 103.164-24.654 130.72-73.954 15.218-27.686 23.384-55.464 24.508-83.344h-74.808c-4.762 21.412-10.872 37.582-18.322 48.492-13.326 19.396-33.076 29.094-59.25 29.094-26.65 0-47.672-13.69-63.058-41.066-15.386-27.38-23.076-66.124-23.076-116.232 0-50.112 8.118-87.638 24.354-112.594 16.234-24.958 36.868-37.426 61.888-37.426 25.66 0 45.226 10.708 58.692 32.126 7.446 11.516 13.622 28.792 18.534 51.822h74.32c-6.408-48.698-22.792-88.298-49.138-118.804-26.354-30.514-60.114-45.766-101.284-45.766-50.944 0-90.992 20.612-120.148 61.828-29.154 41.422-43.73 98.198-43.73 170.33 0 77.994 16.582 138.1 49.742 180.334z" />
<glyph unicode="&#xe907;" glyph-name="alphanumeric" d="M136.048 655.807h89.308l133.644-455.364h-85.592l-24.924 93.602h-139.108l-25.608-93.602h-82.562l134.842 455.364zM130.846 372.515h96.742l-47.716 179.184-49.026-179.184zM404.282 288.191c11.574 30.222 38.896 62.222 81.974 95.996 37.38 29.386 61.574 50.44 72.582 63.162 16.886 19.8 25.33 41.48 25.33 65.040 0 19.174-4.836 35.124-14.514 47.84-9.68 12.714-23.536 19.076-41.56 19.076-24.668 0-41.462-10.112-50.38-30.33-5.124-11.676-8.162-30.23-9.11-55.658h-78.844c1.328 38.562 7.69 69.728 19.086 93.494 21.656 45.232 60.122 67.852 115.4 67.852 43.684 0 78.448-13.29 104.284-39.868 25.826-26.58 38.75-61.756 38.75-105.532 0-33.564-9.124-63.374-27.38-89.428-11.974-17.304-31.648-36.586-59.026-57.848l-32.51-25.328c-20.344-15.844-34.264-27.308-41.756-34.398-7.5-7.082-13.808-15.316-18.932-24.696h180.172v-78.484h-282.64c0.758 32.512 7.116 62.214 19.074 89.11zM805.906 346.557c0-17.66 2.836-32.27 8.508-43.84 10.526-21.312 29.658-31.964 57.402-31.964 17.008 0 31.84 5.828 44.492 17.504 12.656 11.672 18.986 28.468 18.986 50.386 0 29.020-11.736 48.402-35.208 58.148-13.356 5.484-34.392 8.218-63.126 8.218v62.108c28.118 0.404 47.73 3.144 58.862 8.218 19.21 8.524 28.822 25.772 28.822 51.758 0 16.842-4.912 30.544-14.732 41.1-9.816 10.552-23.638 15.832-41.446 15.832-20.446 0-35.478-6.5-45.088-19.486-9.622-12.99-14.222-30.344-13.814-52.058h-80.982c0.806 21.918 4.562 42.722 11.248 62.412 7.096 17.25 18.248 33.184 33.456 47.798 11.354 10.352 24.836 18.266 40.442 23.748 15.616 5.48 34.776 8.22 57.482 8.22 42.174 0 76.188-10.914 102.036-32.728 25.846-21.818 38.776-51.098 38.776-87.832 0-25.984-7.714-47.906-23.138-65.76-9.736-11.164-19.892-18.774-30.446-22.832 7.914 0 19.284-6.802 34.098-20.4 22.122-20.504 33.186-48.512 33.186-84.028 0-37.348-12.93-70.168-38.782-98.488-25.856-28.312-64.124-42.468-114.814-42.468-62.448 0-105.838 20.398-130.17 61.192-12.776 21.714-19.876 50.128-21.292 85.246l85.246-0.004z" />
<glyph unicode="&#xe908;" glyph-name="numeric" d="M2 511.799v60.67c27.33 1.252 46.464 3.128 57.394 5.628 17.41 3.958 31.584 11.884 42.52 23.768 7.486 8.132 13.156 18.966 17 32.524 2.226 8.134 3.342 14.174 3.342 18.138h72.458v-453.452h-88.896v312.724h-103.818zM326.778 288.191c13.088 30.222 43.99 62.222 92.706 95.996 42.276 29.386 69.636 50.44 82.084 63.162 19.096 19.8 28.646 41.48 28.646 65.040 0 19.174-5.468 35.124-16.414 47.84-10.946 12.714-26.614 19.076-47 19.076-27.896 0-46.888-10.112-56.974-30.33-5.794-11.676-9.23-30.23-10.302-55.658h-89.164c1.5 38.562 8.698 69.728 21.586 93.494 24.49 45.232 67.992 67.852 130.506 67.852 49.404 0 88.718-13.29 117.936-39.868 29.208-26.58 43.822-61.756 43.822-105.532 0-33.564-10.318-63.374-30.964-89.428-13.542-17.304-35.792-36.586-66.754-57.848l-36.766-25.328c-23.004-15.844-38.748-27.308-47.222-34.398-8.48-7.082-15.614-15.316-21.41-24.696h203.758v-78.484h-319.64c0.852 32.512 8.042 62.214 21.566 89.11zM805.906 346.557c0-17.66 2.836-32.27 8.508-43.84 10.526-21.312 29.658-31.964 57.402-31.964 17.008 0 31.84 5.828 44.492 17.504 12.656 11.672 18.986 28.468 18.986 50.386 0 29.020-11.736 48.402-35.208 58.148-13.356 5.484-34.392 8.218-63.126 8.218v62.108c28.118 0.404 47.73 3.144 58.862 8.218 19.21 8.524 28.822 25.772 28.822 51.758 0 16.842-4.912 30.544-14.732 41.1-9.816 10.552-23.638 15.832-41.446 15.832-20.446 0-35.478-6.5-45.088-19.486-9.622-12.99-14.222-30.344-13.814-52.058h-80.982c0.806 21.918 4.562 42.722 11.248 62.412 7.096 17.25 18.248 33.184 33.456 47.798 11.354 10.352 24.836 18.266 40.442 23.748 15.616 5.48 34.776 8.22 57.482 8.22 42.174 0 76.188-10.914 102.036-32.728 25.846-21.818 38.776-51.098 38.776-87.832 0-25.984-7.714-47.906-23.138-65.76-9.736-11.164-19.892-18.774-30.446-22.832 7.914 0 19.284-6.802 34.098-20.4 22.122-20.504 33.186-48.512 33.186-84.028 0-37.348-12.93-70.168-38.782-98.488-25.856-28.312-64.124-42.468-114.814-42.468-62.448 0-105.838 20.398-130.17 61.192-12.776 21.714-19.876 50.128-21.292 85.246l85.246-0.004z" />
<glyph unicode="&#xe909;" glyph-name="add-column" d="M743.876-85.209h280v692h-280v-692zM781.376 573.791h205v-297.998h-205v297.998zM781.376-47.709v290.5h205v-290.5h-205zM371.876 573.791h280v-307.334h-280v307.334zM371.876 938.543h280v-331.752h-280v331.752zM-0.124-85.209h280v692h-280v-692zM37.376 573.791h205v-297.998h-205v297.998zM37.376-47.709v290.5h205v-290.5h-205z" />
<glyph unicode="&#xe90a;" glyph-name="add-row" d="M0 194.667v-280h692v280h-692zM659 157.167v-205h-297.998v205h297.998zM37.5 157.167h290.5v-205h-290.5v205zM351.666 566.667h307.334v-280h-307.334v280zM692.002 566.667h331.752v-280h-331.752v280zM0 938.667v-280h692v280h-692zM659 901.167v-205h-297.998v205h297.998zM37.5 901.167h290.5v-205h-290.5v205z" />
<glyph unicode="&#xe90b;" glyph-name="header-row-col" d="M1023.336-44.407v941.648c0 10.958-4.274 21.266-12.036 29.022-7.79 7.784-18.144 12.070-29.168 12.068h-942.096c-22.72 0-41.204-18.432-41.204-41.090l0.004-941.648c0-22.66 18.482-41.094 41.202-41.094h942.092c22.722 0 41.206 18.434 41.206 41.094zM991.372-55.357h-301.038v301.914h301.038v-301.914zM658.334 246.557v-301.914h-298.5v301.918l298.5-0.004zM359.834 275.457v301.92h298.5l-0.002-301.92h-298.498zM991.372 275.457h-301.038l0.002 301.92h301.036v-301.92z" />
<glyph unicode="&#xe90c;" glyph-name="header-row" d="M1023.336-44.407v941.648c0 10.958-4.274 21.266-12.036 29.022-7.786 7.784-18.144 12.070-29.168 12.068h-942.096c-22.72 0-41.204-18.432-41.204-41.090l0.004-941.648c0-22.66 18.482-41.094 41.202-41.094h942.092c22.722 0 41.206 18.434 41.206 41.094zM991.372-55.357h-301.038v301.916h301.038v-301.916zM658.334 246.559v-301.916h-298.5v301.918l298.5-0.002zM359.834 275.457v301.92h298.5l-0.002-301.92h-298.498zM991.372 275.457h-301.038l0.002 301.92h301.036v-301.92zM28.794 577.375h299.042v-301.92l-299.042 0.002v301.918zM28.794 246.561h299.042v-301.918h-299.042v301.918z" />
<glyph unicode="&#xe90d;" glyph-name="header-col" d="M983.908 938.667h-941.65c-10.958 0-21.266-4.274-29.022-12.034-7.784-7.786-12.070-18.146-12.068-29.168v-942.096c0-22.72 18.432-41.204 41.090-41.204l941.65 0.004c22.658 0 41.092 18.482 41.092 41.202v942.092c0 22.72-18.434 41.204-41.092 41.204zM994.858 906.705v-301.038h-301.918v301.038h301.918zM692.94 573.667h301.918v-298.5h-301.918v298.5zM664.042 275.167h-301.918v298.5h301.918v-298.5zM664.042 906.705v-301.038h-301.918v301.038h301.918zM362.124-55.875v299.042h301.918v-299.042h-301.918zM692.94-55.875v299.042h301.918v-299.042h-301.918z" />
<glyph unicode="&#xe90e;" glyph-name="remove" d="M955.466 683.743c-45.792 78.46-107.916 140.584-186.376 186.38-78.486 45.794-164.156 68.686-257.078 68.686-92.916 0-178.612-22.892-257.078-68.686-78.468-45.79-140.592-107.912-186.388-186.38-45.8-78.472-68.694-164.168-68.694-257.078 0-92.912 22.9-178.6 68.686-257.076 45.796-78.454 107.92-140.584 186.388-186.384 78.474-45.786 164.16-68.678 257.078-68.678 92.914 0 178.616 22.892 257.078 68.678 78.46 45.792 140.584 107.924 186.384 186.384 45.786 78.476 68.678 164.164 68.678 257.076 0 92.918-22.892 178.612-68.678 257.078zM810.758 383.989c0-11.556-4.22-21.572-12.67-30.014-8.448-8.442-18.448-12.678-30.006-12.678h-512.156c-11.558 0-21.558 4.236-30.006 12.678-8.446 8.442-12.67 18.458-12.67 30.014v85.36c0 11.558 4.224 21.562 12.67 30.006 8.448 8.45 18.448 12.672 30.006 12.672h512.156c11.558 0 21.558-4.224 30.006-12.672 8.45-8.444 12.67-18.448 12.67-30.006v-85.36z" />
<glyph unicode="&#xe90f;" glyph-name="validate-row" d="M-0.504-44.407v941.65c0 10.958 4.276 21.266 12.036 29.022 7.786 7.782 18.144 12.068 29.168 12.068h942.094c22.72 0 41.206-18.432 41.206-41.090l-0.006-941.65c0-22.66-18.48-41.094-41.2-41.094h-942.092c-22.72 0-41.206 18.434-41.206 41.094zM332.496 606.457v301.918h-301.038v-301.918h301.038zM994.042 275.459v301.916h-299.046v-301.92l299.046 0.004zM662.998 275.457v301.92h-298.5v-301.92h298.5zM332.5 275.457l-0.002 301.92h-301.040v-301.92h301.042zM994.042-55.357v301.918h-299.046v-301.918h299.046zM662.998-55.357v301.918l-298.5-0.002v-301.916h298.5zM332.5-55.357v301.916h-301.042v-301.916h301.042z" />
<glyph unicode="&#xe910;" glyph-name="validate-col" d="M983.908 938.667h-941.65c-10.958 0-21.266-4.274-29.022-12.034-7.784-7.786-12.070-18.146-12.068-29.168v-942.096c0-22.716 18.432-41.204 41.090-41.204l941.65 0.004c22.658 0 41.092 18.482 41.092 41.202v942.092c0 22.72-18.434 41.204-41.092 41.204zM333.042 605.667h-301.918v301.038h301.918v-301.038zM664.042-55.875h-301.918v299.042h301.918v-299.042zM664.042 275.167h-301.918v298.5h301.918v-298.5zM664.042 605.667h-301.918v301.038h301.918v-301.038zM994.858-55.875h-301.918v299.042h301.918v-299.042zM994.858 275.167h-301.918v298.5h301.918v-298.5zM994.858 605.667h-301.918v301.038h301.918v-301.038z" />
<glyph unicode="&#xe911;" glyph-name="add-tab" d="M989.748 938.667h-953.496c-19.95 0-36.122-16.17-36.122-36.122v-951.754c0-19.952 16.172-36.124 36.122-36.124h953.496c19.948 0 36.124 16.176 36.124 36.124v951.754c0 19.952-16.176 36.122-36.124 36.122zM953.624 714.363h-250.132v152.062h250.132v-152.062zM631.25 866.425v-152.062h-242.128v152.062h242.128zM72.374-13.081v879.506h246.128v-188.182c0-19.95 16.172-36.122 36.124-36.122h598.998v-655.208l-881.25 0.006zM757.826 252.795h-189.956v-189.956c0-6.154-5.020-11.174-11.178-11.174h-89.39c-6.164 0-11.172 5.020-11.172 11.174v189.956h-189.956c-6.166 0-11.174 5.020-11.174 11.178v89.388c0 6.166 5.008 11.174 11.174 11.174h189.956v189.958c0 6.166 5.008 11.172 11.172 11.172h89.39c6.158 0 11.178-5.008 11.178-11.172v-189.956h189.956c6.154 0 11.174-5.008 11.174-11.176v-89.388c0-6.158-5.020-11.178-11.174-11.178z" />
<glyph unicode="&#xe912;" glyph-name="tab" d="M989.748 938.667h-953.496c-19.95 0-36.122-16.17-36.122-36.122v-951.754c0-19.954 16.172-36.124 36.122-36.124h953.496c19.948 0 36.124 16.176 36.124 36.124v951.754c0 19.952-16.176 36.122-36.124 36.122zM953.624 714.363h-250.132v152.062h250.132v-152.062zM631.25 866.425v-152.062h-242.128v152.062h242.128zM72.374-13.081v879.506h246.128v-188.182c0-19.95 16.172-36.122 36.124-36.122h598.998v-655.208l-881.25 0.006z" />
<glyph unicode="&#xe913;" glyph-name="close-round" d="M997.128 79.125l-347.892 347.892 347.892 347.894c37.56 37.56 37.56 98.028 0 135.586-37.556 37.56-98.028 37.56-135.588 0l-347.892-347.892-347.892 347.892c-37.56 37.56-98.026 37.56-135.586 0s-37.56-98.026 0-135.586l347.892-347.892-347.892-347.894c-37.56-37.56-37.56-98.032 0-135.588 37.56-37.56 98.026-37.56 135.586 0l347.892 347.892 347.892-347.892c37.56-37.56 98.032-37.56 135.588 0 37.296 37.558 37.296 98.294 0 135.588z" />
<glyph unicode="&#xe914;" glyph-name="close" d="M904.876-73.653c-11.914-12.064-29.93-13.5-40.23-3.222l-856.472 854.628c-10.304 10.278-8.994 28.388 2.924 40.45l109.676 110.994c11.916 12.058 29.926 13.502 40.23 3.222l856.474-854.63c10.3-10.28 8.99-28.382-2.92-40.446l-109.682-110.996zM1014.344 817.563c11.916-12.064 13.208-30.174 2.912-40.452l-856.778-854.346c-10.304-10.278-28.314-8.826-40.226 3.234l-109.638 111.026c-11.91 12.066-13.212 30.172-2.908 40.454l856.772 854.348c10.304 10.272 28.314 8.824 40.226-3.234l109.64-111.030z" />
<glyph unicode="&#xe915;" glyph-name="user" d="M761.208 649.881c0-158.72-113.046-287.328-252.396-287.328-139.344 0-252.418 128.608-252.418 287.328 0 158.81 113.074 287.528 252.418 287.528 139.348 0.002 252.396-128.716 252.396-287.528zM803.094 215.281c-40.914 82.152-104.708 131.080-166.564 131.080 0 0-25.582-33.61-131.746-29.728-106.21 3.89-117.336 29.728-117.336 29.728-102.548 0-214.762-134.396-214.762-331.952v-94.294c0-1.404 0.172-2.788 0.478-4.15h678.748v75.798c-0.002 85.494-17.288 164.322-48.818 223.518z" />
<glyph unicode="&#xe916;" glyph-name="add-multiple" d="M841.556 799.691h-829.806c-6.5 0-11.75-4.344-11.75-9.78v-865.462c0-5.416 5.22-9.782 11.75-9.782h829.806c6.55 0 11.778 4.366 11.778 9.782v865.462c0 5.39-5.226 9.78-11.778 9.78zM648.016 302.721c0-5.302-4.278-9.624-9.522-9.624h-161.878v-163.562c0-5.304-4.278-9.626-9.524-9.626h-76.176c-5.254 0-9.524 4.322-9.524 9.626v163.562h-161.876c-5.256 0-9.524 4.322-9.524 9.624v76.968c0 5.31 4.268 9.624 9.524 9.624h161.876v163.566c0 5.308 4.27 9.622 9.524 9.622h76.176c5.248 0 9.524-4.314 9.524-9.622v-163.566h161.878c5.244 0 9.522-4.312 9.522-9.622v-76.97zM170.664 939.431v-93.16h739.554v-791.864h113.782v885.024z" />
<glyph unicode="&#xe917;" glyph-name="publish" d="M422.148 43.563h181.462v245.062h145.35l-237.332 262.232-237.292-262.232h147.812zM917.66 709.493c-22.2 30.296-53.214 65.782-87.23 99.768-33.954 33.986-69.41 65-99.738 87.198-51.586 37.864-76.598 42.208-90.982 42.208h-496.24c-44.116 0-80.040-35.926-80.040-80.040v-864.42c0-44.142 35.924-80.040 80.040-80.040h736.358c44.148 0 80.040 35.894 80.040 80.040v624.304c0 14.35-4.376 39.392-42.208 90.982zM785.156 763.925c30.704-30.734 54.778-58.402 72.54-81.382h-154.016v154.012c22.952-17.822 50.714-41.896 81.352-72.63h0.124zM895.836-5.793c0-8.694-7.254-16.008-16.008-16.008h-736.358c-8.628 0-16.008 7.314-16.008 16.008v864.42c0 8.63 7.378 16.008 16.008 16.008 0 0 496.178 0 496.244 0v-224.108c0-17.666 14.38-32.016 32.016-32.016h224.11l-0.004-624.304z" />
<glyph unicode="&#xe918;" glyph-name="unpublish" d="M601.148 550.857h-181.46v-245.062h-145.352l237.332-262.232 237.292 262.232h-147.812zM917.66 709.493c-22.2 30.296-53.214 65.782-87.23 99.768-33.954 33.986-69.41 65-99.738 87.198-51.586 37.864-76.598 42.208-90.982 42.208h-496.24c-44.116 0-80.040-35.926-80.040-80.040v-864.42c0-44.142 35.924-80.040 80.040-80.040h736.358c44.148 0 80.040 35.894 80.040 80.040v624.304c0 14.35-4.376 39.392-42.208 90.982zM785.156 763.925c30.704-30.734 54.778-58.402 72.54-81.382h-154.016v154.012c22.952-17.822 50.714-41.896 81.352-72.63h0.124zM895.836-5.793c0-8.694-7.254-16.008-16.008-16.008h-736.358c-8.628 0-16.008 7.314-16.008 16.008v864.42c0 8.63 7.378 16.008 16.008 16.008 0 0 496.178 0 496.244 0v-224.108c0-17.666 14.38-32.016 32.016-32.016h224.11l-0.004-624.304z" />
</font>
</defs>
</svg>
